<?xml version="1.0" encoding="utf-8"?>
<!-- Generator: Adobe Illustrator 18.0.0, SVG Export Plug-In . SVG Version: 6.00 Build 0)  -->
<!DOCTYPE svg PUBLIC "-//W3C//DTD SVG 1.1//EN" "http://www.w3.org/Graphics/SVG/1.1/DTD/svg11.dtd">
<svg version="1.1" id="Layer_1" xmlns="http://www.w3.org/2000/svg" xmlns:xlink="http://www.w3.org/1999/xlink" x="0px" y="0px"
	 viewBox="0 0 140 140" enable-background="new 0 0 140 140" xml:space="preserve">
<g>
	<g>
		<polygon fill-rule="evenodd" clip-rule="evenodd" points="51.8,68.5 91,68.5 71.4,34 51.8,68.5 		"/>
	</g>
	<g>
		<path fill-rule="evenodd" clip-rule="evenodd" d="M102.1,78.9c-0.1-1.8-1.2-3.4-1.6-5.1c-0.4-1.5,0.8-2.5,1.3-3.7
			c0.3-0.6-0.1-1.2-0.7-1.5c-0.6-0.1-1.2,0-1.7,0.3c-3,3.3-4.6,6.9-7.2,10.5C92,79.8,91.7,80,91.5,80c-1.1,0.2-1.9,1.1-2,2.2
			c0,0.1,0,0.2,0,0.3c0,0,0,0.3-0.2,1.1c-0.1,0.5-0.8,0.5-0.8,0c-0.1-1.9-1.3-3.5-1.8-5.3c-0.5-1.4,0.7-2.5,1.2-3.7
			c0.2-0.6-0.1-1.2-0.7-1.4c-0.6-0.1-1.2,0-1.7,0.4c-2.9,3.4-4.4,7.1-6.8,10.8c-0.2,0.4-0.5,0.4-0.8,0.6c-1.1,0.2-1.9,1.1-1.9,2.3
			c0,0.1,0,0.2,0,0.3c-0.1,1.2-0.7,2.1-0.7,2.1c-0.4,0.5-0.7,1-1.2,1.4c-0.5,0.4-1.1,0.3-1.3-0.2c-0.1-0.5-0.1-0.7,0-1.4
			c1.3-3.9,2.3-7.8,3.4-11.9c0-0.1-0.4-0.1-0.4-0.1c-1.1,0-2.1,0.4-3.2,0.7c-0.6,0.4-0.5,1.2-1,1.4c-0.6,0.4-1.3-0.3-1.9-0.4
			c-1.1-0.1-3.3-0.1-5.1,1.6c-2.8,2.4-4.3,5.4-5.3,9c-0.1,0.7-1,0.9-1.6,0.4c-0.9-1.1-1.9-2.3-3.3-2.6c-0.4-0.1-0.5-0.4-0.4-0.6
			c0.5-0.8,1.3-1.3,1.9-2c3.4-4,2.2-7.3,1.7-8c-0.7-1-1.5-1.6-2.6-1.8c-5-1.2-9.8,1.2-13.5,4.4c-2.6,2.4-4.8,5.1-6.3,8.3
			c-1.9,4.1-3.5,8.4-3.5,12.9c0,4,2.6,5.3,4.3,5.5c5.1,0.7,7.3-4.9,8.6-8.8c1.7-5.4,2.6-10.9,4.9-16c0.2-0.6,0.5-1.4,1.1-2
			c0.2-0.5-0.2-0.8-0.7-0.7c-2.4,1-5.9,5.5-6,5.7c-1.2,1.8-1.8,3.8-2.4,5.7c-1.2,3.8-1.4,7.6-2.9,11.3c-0.2,0.8-0.6,1.8-1.6,2.2
			c-1,0.2-1.7-0.5-1.9-1.3c-0.4-1-0.5-1.9-0.4-3C35,96,35.7,93,36.9,90c0.7-1.7,1.7-3.2,2.7-4.9c2.2-3.5,5.1-6.1,9-7.5
			c1.5-0.6,3.3-0.4,4.4,1.1c0.5,0.7,0.4,1.6,0.2,2.4c-0.1,0.5-0.6,2.8-2.3,5c-0.7,0.9-1.7,1.1-2.3,2c-0.1,0.2,0,0.5,0.1,0.5
			c1.3,0.4,3.4,0.6,3.2,1.9c0,0.6-1.8,0.7-3.3,2c-1,0.8-1.8,1.8-2.4,2.9c-1.2,2.2-1.1,5.4,1.2,6.5c1.6,0.8,3.4,0.6,4.9-0.2
			c3.1-1.8,4.8-5.1,5.3-8.7c0-0.4,0.5-0.6,0.8-0.5c1,0.7,0.8,1.7,1.6,2.9c1,1.7,3.6,2.6,5.3,1.4c1.2-0.8,2-1.9,3-3
			c0,0,0.3-0.2,0.5,0c2,2.1,4.7,1.3,6.2-0.6c0.8-0.9,1.2-1.9,2-2.2c1-0.3,2.7,0.8,4.5,0.7c3.3-0.2,6.2-2.5,8.8-6.1
			c1,0,1.7,0.7,2.8,1c1.4,0.3,2.7,0.3,4.1-0.2C103,84.2,102.1,78.9,102.1,78.9L102.1,78.9z M53.3,93.5c0,2.4-0.6,5.2-3,6.3
			c-0.7,0.4-1.7,0-2-0.6c-0.5-1.1-0.1-2.1,0.5-3.1c0.9-1.4,2.1-2.4,3.6-3.1C52.8,92.9,53.4,93,53.3,93.5L53.3,93.5z M70.4,83.9
			c-0.9,3.1-1.3,6.7-3.7,9.1c-0.6,0.6-1,0.7-1.4,0.8c-1.7,0.2-1.9-1.7-1.9-2.8c0.1-1.9,0.7-3.7,1.7-5.4c1-1.8,2.3-4.2,4.4-4.1
			C70.5,81.6,70.6,82.9,70.4,83.9L70.4,83.9z M83.8,83.8c-0.1,4.9-2.3,5.5-3.3,5.5c-0.4,0-0.8-0.1-0.7-0.2c0,0,1.2-0.7,0.8-2.4
			c-0.3-1.1,0-1.5,0-1.5c1.1-1.6,1.9-3.1,2.9-4.5C84,81.5,83.8,82.7,83.8,83.8L83.8,83.8z M97.5,79c-0.2,4.9-2.4,5.4-3.5,5.4
			c-0.4,0-0.8-0.1-0.7-0.3c0,0,1.2-0.7,0.8-2.4c-0.3-1.1,0-1.5,0-1.5c1.1-1.5,2-3.1,3-4.5C97.8,76.8,97.5,78,97.5,79L97.5,79z"/>
	</g>
	<g>
		<path fill-rule="evenodd" clip-rule="evenodd" d="M68.2,100.3c0,0,11.6-7.2,24.1-8.6c0,0,3.5-0.5,1.6,0.8c0,0-1.8,0.9-3.9,3.3
			c0,0,0.1,0.4-1.6,0.3c0,0-9.2,0-19.2,6.3c0,0-0.6,0.7-2-0.2C67.1,102.1,66.1,101.5,68.2,100.3L68.2,100.3z"/>
	</g>
	<g>
		<g>
			<path fill-rule="evenodd" clip-rule="evenodd" d="M99.5,90.7H98l-2.2,8.1h1.4l0.4-1.7h2.3l0.4,1.7h1.4L99.5,90.7L99.5,90.7z
				 M98,95.7l0.8-3.2h0l0.8,3.2H98L98,95.7z"/>
		</g>
		<g>
			<polygon fill-rule="evenodd" clip-rule="evenodd" points="103.7,98.8 102.5,98.8 102.5,90.7 103.7,90.7 103.7,98.8 			"/>
		</g>
		<g>
			<path fill-rule="evenodd" clip-rule="evenodd" d="M108.8,95.9c0-2.7-1.3-3.3-2.2-3.3c-2,0-2.2,2.3-2.2,3c0,2.5,1,3.3,2.3,3.3
				c0.8,0,1.7-0.5,2-1.9h-1.2c-0.1,0.4-0.4,0.6-0.8,0.6c-1,0-1.1-1-1.1-1.5h3.1V95.9L108.8,95.9z M105.7,95.2
				c0.1-0.8,0.4-1.3,0.9-1.3c0.4,0,0.9,0.3,0.9,1.3H105.7L105.7,95.2z"/>
		</g>
	</g>
</g>
</svg>
