<?xml version="1.0" encoding="utf-8"?>
<!-- Generator: Adobe Illustrator 18.0.0, SVG Export Plug-In . SVG Version: 6.00 Build 0)  -->
<!DOCTYPE svg PUBLIC "-//W3C//DTD SVG 1.1//EN" "http://www.w3.org/Graphics/SVG/1.1/DTD/svg11.dtd">
<svg version="1.1" id="Layer_1" xmlns="http://www.w3.org/2000/svg" xmlns:xlink="http://www.w3.org/1999/xlink" x="0px" y="0px"
	 viewBox="0 0 140 140" enable-background="new 0 0 140 140" xml:space="preserve">
<g>
	<g>
		<path d="M9.1,60.5h2.8c2.6,0,3.7,0.8,3.7,2.4c0,1.4-1.1,2.4-3.4,2.4H9.1V60.5z M5.7,76.6h6.9c3.6,0,7.2-1.3,7.2-5.4
			c0-2.4-1.7-4.3-4.1-4.6v-0.1c2-0.6,3.3-2,3.3-4.2c0-3.5-3-4.8-5.8-4.8H5.7L5.7,76.6z M9.1,68.2l3.3,0c2.7,0,4,0.7,4,2.7
			c0,2.5-2.4,2.8-4.2,2.8l-3.1,0V68.2z"/>
	</g>
	<g>
		<path d="M22,57.1h3.2l0,19.5H22V57.1z"/>
	</g>
	<g>
		<path d="M30.6,70.1c0-2,1.4-3.9,3.8-3.9c2.4,0,3.8,1.9,3.8,3.9c0,2-1.4,3.9-3.8,3.9C32,74,30.6,72.1,30.6,70.1z M27.4,70.1
			c0,4.1,3.1,6.8,7,6.8c3.9,0,7-2.7,7-6.8c0-4.1-3.1-6.8-7-6.8C30.5,63.4,27.4,66.1,27.4,70.1z"/>
	</g>
	<g>
		<path d="M46.1,70.1c0-2,1.4-3.9,3.8-3.9c2.4,0,3.8,1.8,3.8,3.9c0,2-1.4,3.9-3.8,3.9C47.5,74,46.1,72.1,46.1,70.1z M42.9,70.1
			c0,4.1,3.1,6.8,7,6.8c3.9,0,7-2.7,7-6.8c0-4.1-3.1-6.8-7-6.8S42.9,66.1,42.9,70.1z"/>
	</g>
	<g>
		<path d="M58.9,63.7h3.1v2H62c0.6-1.2,1.8-2.3,3.9-2.3c2,0,3.4,0.8,4,2.4c0.9-1.6,2.3-2.4,4.2-2.4c3.4,0,4.7,2.4,4.7,5.5v7.7h-3.2
			v-7.3c0-1.6-0.5-3-2.4-3c-2,0-2.8,1.7-2.8,3.3v7h-3.2l0-7.7c0-1.6-0.6-2.6-2.2-2.6c-2.1,0-3,1.6-3,3.3l0,7h-3.2L58.9,63.7z"/>
	</g>
	<g>
		<path d="M92.2,70.1c0,2-1.4,3.9-3.8,3.9c-2.4,0-3.8-1.9-3.8-3.9c0-2,1.4-3.9,3.8-3.9C90.8,66.2,92.2,68.1,92.2,70.1z M81.5,76.6
			h3.1v-1.9h0c0.9,1.6,2.6,2.2,4.4,2.2c4,0,6.4-2.9,6.4-6.8c0-3.8-2.6-6.8-6.2-6.8c-2.4,0-3.7,1.1-4.4,2h-0.1l0-8.2h-3.2L81.5,76.6z
			"/>
	</g>
	<g>
		<path d="M100.1,68.8c0.2-1.9,1.4-3.1,3.3-3.1c2,0,3.3,1.2,3.3,3.1L100.1,68.8z M109.9,71.2v-0.9c0-4.5-2.4-7-6-7
			c-3.9,0-7,2.7-7,6.8c0,4.1,3.1,6.8,7,6.8c2,0,4-0.7,5.5-2.6l-2.3-1.8c-0.8,1-1.9,1.8-3.5,1.8c-1.8,0-3.3-1.2-3.5-3.1L109.9,71.2z"
			/>
	</g>
	<g>
		<path d="M112,63.7h3.2l0,2h0.1c0.7-1.5,2.1-2.4,3.8-2.4c0.4,0,0.8,0.1,1.2,0.2l0,3.1c-0.5-0.1-1-0.2-1.6-0.2c-3,0-3.5,2.6-3.5,3.3
			v6.9H112L112,63.7z"/>
	</g>
	<g>
		<path d="M127.5,66.2c2.3,0,3.8,1.6,3.8,3.8c0,2.1-1.4,3.8-3.8,3.8c-2.2,0-3.8-1.7-3.8-3.7C123.7,67.8,125.3,66.2,127.5,66.2z
			 M131.3,63.6v1.9h-0.1c-0.9-1.6-2.6-2.3-4.4-2.3c-4,0-6.4,3-6.4,6.8c0,3.7,2.6,6.6,6.4,6.6c1.6,0,3.3-0.6,4.2-1.9h0.1v0.9
			c0,2.6-1,4.3-4.1,4.3c-1.8,0-3.1-0.7-4.4-1.9l-1.9,2.6c1.8,1.6,4,2.1,6.4,2.1c5,0,7.3-3,7.3-7.6l0-11.7H131.3z"/>
	</g>
	<g>
		<path d="M9.1,60.5h2.8c2.6,0,3.7,0.8,3.7,2.4c0,1.4-1.1,2.4-3.4,2.4H9.1V60.5z M5.7,76.6h6.9c3.6,0,7.2-1.3,7.2-5.4
			c0-2.4-1.7-4.3-4.1-4.6v-0.1c2-0.6,3.3-2,3.3-4.2c0-3.5-3-4.8-5.8-4.8H5.7L5.7,76.6z M9.1,68.2l3.3,0c2.7,0,4,0.7,4,2.7
			c0,2.5-2.4,2.8-4.2,2.8l-3.1,0V68.2z"/>
	</g>
	<g>
		<path d="M22,57.1h3.2l0,19.5H22V57.1z"/>
	</g>
	<g>
		<path d="M30.6,70.1c0-2,1.4-3.9,3.8-3.9c2.4,0,3.8,1.9,3.8,3.9c0,2-1.4,3.9-3.8,3.9C32,74,30.6,72.1,30.6,70.1z M27.4,70.1
			c0,4.1,3.1,6.8,7,6.8c3.9,0,7-2.7,7-6.8c0-4.1-3.1-6.8-7-6.8C30.5,63.4,27.4,66.1,27.4,70.1z"/>
	</g>
	<g>
		<path d="M46.1,70.1c0-2,1.4-3.9,3.8-3.9c2.4,0,3.8,1.8,3.8,3.9c0,2-1.4,3.9-3.8,3.9C47.5,74,46.1,72.1,46.1,70.1z M42.9,70.1
			c0,4.1,3.1,6.8,7,6.8c3.9,0,7-2.7,7-6.8c0-4.1-3.1-6.8-7-6.8S42.9,66.1,42.9,70.1z"/>
	</g>
	<g>
		<path d="M58.9,63.7h3.1v2H62c0.6-1.2,1.8-2.3,3.9-2.3c2,0,3.4,0.8,4,2.4c0.9-1.6,2.3-2.4,4.2-2.4c3.4,0,4.7,2.4,4.7,5.5v7.7h-3.2
			v-7.3c0-1.6-0.5-3-2.4-3c-2,0-2.8,1.7-2.8,3.3v7h-3.2l0-7.7c0-1.6-0.6-2.6-2.2-2.6c-2.1,0-3,1.6-3,3.3l0,7h-3.2L58.9,63.7z"/>
	</g>
	<g>
		<path d="M92.2,70.1c0,2-1.4,3.9-3.8,3.9c-2.4,0-3.8-1.9-3.8-3.9c0-2,1.4-3.9,3.8-3.9C90.8,66.2,92.2,68.1,92.2,70.1z M81.5,76.6
			h3.1v-1.9h0c0.9,1.6,2.6,2.2,4.4,2.2c4,0,6.4-2.9,6.4-6.8c0-3.8-2.6-6.8-6.2-6.8c-2.4,0-3.7,1.1-4.4,2h-0.1l0-8.2h-3.2L81.5,76.6z
			"/>
	</g>
	<g>
		<path d="M100.1,68.8c0.2-1.9,1.4-3.1,3.3-3.1c2,0,3.3,1.2,3.3,3.1L100.1,68.8z M109.9,71.2v-0.9c0-4.5-2.4-7-6-7
			c-3.9,0-7,2.7-7,6.8c0,4.1,3.1,6.8,7,6.8c2,0,4-0.7,5.5-2.6l-2.3-1.8c-0.8,1-1.9,1.8-3.5,1.8c-1.8,0-3.3-1.2-3.5-3.1L109.9,71.2z"
			/>
	</g>
	<g>
		<path d="M112,63.7h3.2l0,2h0.1c0.7-1.5,2.1-2.4,3.8-2.4c0.4,0,0.8,0.1,1.2,0.2l0,3.1c-0.5-0.1-1-0.2-1.6-0.2c-3,0-3.5,2.6-3.5,3.3
			v6.9H112L112,63.7z"/>
	</g>
	<g>
		<path d="M127.5,66.2c2.3,0,3.8,1.6,3.8,3.8c0,2.1-1.4,3.8-3.8,3.8c-2.2,0-3.8-1.7-3.8-3.7C123.7,67.8,125.3,66.2,127.5,66.2z
			 M131.3,63.6v1.9h-0.1c-0.9-1.6-2.6-2.3-4.4-2.3c-4,0-6.4,3-6.4,6.8c0,3.7,2.6,6.6,6.4,6.6c1.6,0,3.3-0.6,4.2-1.9h0.1v0.9
			c0,2.6-1,4.3-4.1,4.3c-1.8,0-3.1-0.7-4.4-1.9l-1.9,2.6c1.8,1.6,4,2.1,6.4,2.1c5,0,7.3-3,7.3-7.6l0-11.7H131.3z"/>
	</g>
</g>
</svg>
