<?xml version="1.0" encoding="utf-8"?>
<!-- Generator: Adobe Illustrator 18.0.0, SVG Export Plug-In . SVG Version: 6.00 Build 0)  -->
<!DOCTYPE svg PUBLIC "-//W3C//DTD SVG 1.1//EN" "http://www.w3.org/Graphics/SVG/1.1/DTD/svg11.dtd">
<svg version="1.1" id="Layer_1" xmlns="http://www.w3.org/2000/svg" xmlns:xlink="http://www.w3.org/1999/xlink" x="0px" y="0px"
	 viewBox="0 0 140 140" enable-background="new 0 0 140 140" xml:space="preserve">
<g>
	<g>
		<g>
			<path d="M40.5,93.5h1.9c2.9,0,5.6,0.7,5.6,4.2c0,1.1-0.6,2.4-1.6,2.9v0c1.8,0.3,3.1,2.1,3.1,3.9c0,3.1-2.6,4.3-5.3,4.3h-3.6V93.5
				z M42.4,100.3h0.5c1.8,0,3.3-0.4,3.3-2.6c0-2.1-1.5-2.5-3.2-2.5h-0.5V100.3z M42.4,107.1h1.5c1.8,0,3.6-0.5,3.6-2.7
				c0-2.2-2.2-2.6-3.9-2.6h-1.2V107.1z"/>
		</g>
	</g>
	<g>
		<path d="M54.3,93.5v9c0,2.5,0.7,4.8,3.7,4.8c2.9,0,3.7-2.3,3.7-4.8v-9h1.9v9.7c0,3.4-2.1,5.9-5.6,5.9c-3.5,0-5.6-2.6-5.6-5.9v-9.7
			H54.3z"/>
	</g>
	<g>
		<rect x="68.1" y="93.5" width="1.9" height="15.3"/>
	</g>
	<g>
		<path d="M85.6,96.4c-1.1-1-2.6-1.5-4-1.5c-3.4,0-6,2.9-6,6.2c0,3.3,2.6,6.2,6,6.2c1.5,0,2.9-0.6,4.1-1.6v2.3
			c-1.2,0.7-2.7,1.1-4,1.1c-4.4,0-8-3.5-8-7.9c0-4.5,3.6-8.1,8.1-8.1c1.3,0,2.7,0.3,3.8,1V96.4z"/>
	</g>
	<g>
		<polygon points="97.4,93.5 99.9,93.5 93,100.4 100,108.8 97.4,108.8 91.7,101.7 90.9,102.4 90.9,108.8 89,108.8 89,93.5 
			90.9,93.5 90.9,100.1 		"/>
	</g>
	<g>
		<path d="M90.8,41.1C90.8,41.1,90.8,41.1,90.8,41.1L90.8,41.1L90.8,41.1c-0.1-0.1-0.1-0.1-0.1-0.2c0,0-0.1-0.1-0.1-0.1
			c-0.3-0.3-0.5-0.7-0.8-1c0,0,0,0,0,0C85,34.4,78.1,31,70.4,31c-2.9,0-5.6,0.5-8.2,1.3c-0.2,0.1-0.4,0.1-0.6,0.2
			c-0.2,0.1-0.4,0.1-0.6,0.2c0,0,0,0,0,0c-0.4,0.2-0.7,0.3-1.1,0.5c-0.2,0.1-0.4,0.2-0.6,0.3c-0.2,0.1-0.4,0.2-0.5,0.3
			c0,0-0.1,0.1-0.1,0.1c-0.3,0.2-0.7,0.3-1,0.5c0,0,0,0,0,0c-0.4,0.2-0.7,0.4-1.1,0.6c-0.1,0-0.1,0.1-0.2,0.1
			c-0.1,0-0.1,0.1-0.2,0.1c0,0,0,0,0,0c-0.1,0.1-0.3,0.2-0.4,0.3c0,0,0,0-0.1,0c0,0-0.1,0-0.1,0.1c-0.1,0.1-0.2,0.2-0.4,0.3
			c0,0-0.1,0-0.1,0.1c-0.1,0.1-0.2,0.1-0.3,0.2c-0.2,0.2-0.4,0.3-0.7,0.5c0,0-0.1,0-0.1,0.1c-0.1,0.1-0.3,0.3-0.4,0.4
			c-0.1,0.1-0.3,0.3-0.4,0.4c-0.1,0-0.1,0.1-0.2,0.1c0,0-0.1,0.1-0.1,0.1c-0.2,0.2-0.4,0.3-0.5,0.5c0,0-0.1,0.1-0.1,0.1
			c-0.2,0.2-0.4,0.4-0.6,0.7c-0.2,0.2-0.4,0.4-0.6,0.7c0,0-0.1,0.1-0.1,0.1c-0.4,0.4-0.7,0.9-1.1,1.4c-0.2,0.3-0.4,0.5-0.6,0.8
			c-0.2,0.4-0.5,0.7-0.7,1.1c-0.2,0.3-0.3,0.5-0.5,0.8c-0.2,0.4-0.4,0.7-0.6,1.1c-0.2,0.4-0.4,0.7-0.5,1.1c-0.1,0.3-0.2,0.6-0.4,0.8
			c-0.1,0.2-0.2,0.4-0.2,0.6c-0.1,0.2-0.1,0.4-0.2,0.5c-0.1,0.3-0.2,0.5-0.3,0.8c0,0.2-0.1,0.3-0.1,0.5c-0.1,0.2-0.1,0.3-0.1,0.5
			c0,0.2-0.1,0.3-0.1,0.4c0,0,0,0,0,0c-0.1,0.5-0.2,1-0.3,1.5c0,0.2-0.1,0.3-0.1,0.5c0,0.1-0.1,0.3-0.1,0.4c0,0.1,0,0.2,0,0.2
			c-0.2,1-0.2,2.1-0.3,3.2c0,0.2,0,0.4,0,0.5c0,0.2,0,0.4,0,0.7c0,0.2,0,0.4,0,0.6c0,0.2,0,0.4,0,0.5c0,0.2,0,0.4,0,0.6
			c0,0.1,0,0.3,0,0.4c0,0.3,0.1,0.6,0.1,0.8c0.3,2,0.8,3.9,1.5,5.6c0,0,0,0.1,0.1,0.1c0,0,0,0,0,0c0,0.1,0.1,0.2,0.1,0.3
			c0.1,0.1,0.1,0.3,0.2,0.4c0,0,0,0,0,0.1c0.1,0.3,0.3,0.6,0.4,0.9c0.1,0.2,0.2,0.3,0.2,0.5c0.1,0.1,0.1,0.2,0.2,0.3
			c0.1,0.1,0.1,0.2,0.2,0.3c0.1,0.1,0.2,0.3,0.3,0.5c0.1,0.2,0.2,0.3,0.3,0.5c0,0.1,0.1,0.1,0.1,0.1c0.1,0.2,0.2,0.4,0.3,0.5
			c0,0,0.1,0.1,0.1,0.1h0v0c0,0,0.1,0.1,0.1,0.2c0.1,0.2,0.2,0.3,0.3,0.5c2.1,3.1,4.9,5.7,8.2,7.6c0.3,0.2,0.6,0.3,0.9,0.5
			c0.1,0.1,0.3,0.2,0.4,0.2c0.2,0.1,0.3,0.2,0.5,0.2c0.3,0.2,0.7,0.3,1,0.5c3.1,1.3,6.5,2.1,10.1,2.1c6.9,0,13.1-2.7,17.8-7.1
			c0.1-0.1,0.3-0.2,0.4-0.4c0.1-0.1,0.3-0.3,0.4-0.4c0.2-0.2,0.4-0.4,0.5-0.6c0.1-0.2,0.3-0.3,0.4-0.5c0.1-0.2,0.3-0.3,0.4-0.5
			c0.1-0.1,0.2-0.3,0.3-0.4c1.6-2.1,2.9-4.4,3.8-6.9c0.1-0.2,0.1-0.4,0.2-0.6c0.1-0.4,0.3-0.7,0.4-1.1c0-0.2,0.1-0.3,0.1-0.5
			c0.1-0.3,0.2-0.7,0.3-1.1c0-0.1,0.1-0.3,0.1-0.4c0-0.1,0.1-0.3,0.1-0.4c0-0.2,0.1-0.4,0.1-0.6c0-0.2,0-0.3,0.1-0.5
			c0-0.1,0-0.2,0-0.3c0.2-1.1,0.2-2.3,0.2-3.5C96.1,50.8,94.1,45.4,90.8,41.1z M70.7,77.4L70.7,77.4C70.7,77.4,70.7,77.4,70.7,77.4
			L70.7,77.4c-1.1,0-2.1-0.1-3-0.2c-0.1,0-0.2,0-0.3-0.1c0,0-0.1,0-0.1,0c0,0-0.1,0-0.1,0c-0.1,0-0.2,0-0.3-0.1
			c-1.2-0.2-2.4-0.6-3.6-1c0,0,0,0-0.1,0c-0.5-0.2-0.9-0.4-1.4-0.6c-0.2-0.1-0.5-0.2-0.5-0.3c1.3-0.9,3.4-4.5,4.8-9.2
			c0.1-0.2,0.1-0.3,0.2-0.2h0c0,0,0,0,0.1,0.1c0.1,0.1,0.1,0.3,0.2,0.4c0.7,1.7,2.2,4.4,3.5,5.9c0.2,0.2,0.4,0.6,0.7,0.3
			c0.2-0.2,3.9-4.9,5.6-11.1c0.1-0.4,0.2-0.2,0.2,0c0.6,1.7,2.7,4.9,3.7,6.1c0.3,0.4,0.5,0.4,0.7,0c2.4-3.4,3.7-5.5,4.9-9.1
			c1.3-3.8,1-11.5,0.8-14.2c-0.1-0.5,0.2,0.1,0.4,0.3c2.4,3.4,3.9,7.5,3.9,12.1c0,7.7-4.3,14.4-10.4,18.1c-0.1,0.1-0.2,0.1-0.4,0.2
			c0,0-0.1,0-0.1,0.1C77.4,76.5,74.1,77.4,70.7,77.4z M49.6,56.3c0-11.2,9.7-20.5,20.9-20.5c4.2,0,8.1,1.4,11.3,3.4
			c0,0,0.2,0.1,0,0.1c-2.2,0-6.7,0-6.9,0c-0.3,0-0.5,0.1-0.5,0.3c0,0.3-0.1,3.1-0.1,3.3c0,0.1,0,0.2-0.1,0.2c-0.2,0-8.6,0-8.9,0
			c-0.3,0-0.5,0.1-0.5,0.3c0,0.3-0.1,3-0.1,3.3c0,0.2,0.1,0.5-0.3,0.5c0,0-8.6,0-8.9,0c-0.3,0-0.5,0-0.6,0.3c0,0.3-0.5,9.4-0.6,12.7
			c0,3.6,0,9.1,2.7,12.2c0.1,0.1-0.3-0.2-0.4-0.3c-2.1-1.9-4.4-4.8-5.8-8.7c0,0,0,0,0-0.1c-0.6-2-1.1-4.2-1.1-6.8
			C49.6,56.5,49.6,56.4,49.6,56.3z M70.2,67.6c-2.6-4.3-3.2-7.9-3.3-11.8v0c0-0.7,0-1.4,0.1-1.9c0-0.5,0.1-1,0.2-1.1
			c0,0,0.2,0,0.2,0.1c0,0.1,0.3,0.5,0.4,0.8l0,0c0,0.1,0.1,0.2,0.2,0.3c0.1,0.1,0.1,0.3,0.2,0.3h0v0c0.3,0.4,0.6,1,0.8,1.4
			c0,0,0-0.1,0-0.1l4.2,7.3c-1,2.7-1.9,4.3-2.3,4.8C70.7,68.1,70.4,67.9,70.2,67.6z M68.1,45.9l6.5,0c0,0,0.1,9.8,0.1,10.3
			c0,0.6-0.3,0.3-0.4,0.1C74.2,56.2,68.1,45.9,68.1,45.9z M80.5,62.9C77.8,58.4,77,55,76.9,51v-0.2c0-0.7,0-1.3,0-1.7
			c0-0.3,0-0.7,0.1-0.7c0.1,0,0.1,0,0.2,0.2c0.2,0.4,0.8,1.3,1.1,1.7c0,0,0,0.1,0,0.1c0.1,0.2,0.3,0.4,0.4,0.6c0,0,0,0,0-0.1
			l4.7,7.3c-1,2.6-2,4.2-2.3,4.7C80.9,63.3,80.7,63.2,80.5,62.9z M59.8,72.6c-2.3-4.4-2.9-7.9-2.9-11.5v0c0-0.8,0.1-1.8,0.1-2.7
			c0,0,0-0.7,0.2-0.8c0.1-0.1,0.2,0.2,0.3,0.3c0,0,0,0,0.1,0.1c0,0.1,0.1,0.2,0.2,0.4c0.1,0.2,0.2,0.4,0.3,0.6
			c0,0.1,0.1,0.2,0.1,0.3c0,0.1,0.1,0.2,0.2,0.3c0,0,0,0.1,0,0.1c0,0.1,0.1,0.1,0.1,0.2c0.1,0.1,0.1,0.2,0.2,0.3c0,0,0,0.1,0.1,0.1
			c0,0.1,0.1,0.1,0.1,0.1c0.2,0.4,0.5,0.9,0.7,1.3c0-0.1-0.1-0.2-0.1-0.4l3.5,6.2c-1,2.7-2.3,4.7-2.6,5.2
			C60.1,72.9,59.9,72.8,59.8,72.6z M58,50.2h6.7c0,0-0.2,10.1-0.2,10.7c0,0.6-0.3,0.3-0.4,0.1C64.1,60.8,58,50.2,58,50.2z
			 M84.1,52.6c0,0.6-0.3,0.3-0.4,0.1c-0.1-0.2-6.2-10.5-6.2-10.5l6.5,0C84.1,42.2,84.1,52,84.1,52.6z"/>
	</g>
</g>
</svg>
