<?xml version="1.0" encoding="utf-8"?>
<!-- Generator: Adobe Illustrator 18.0.0, SVG Export Plug-In . SVG Version: 6.00 Build 0)  -->
<!DOCTYPE svg PUBLIC "-//W3C//DTD SVG 1.1//EN" "http://www.w3.org/Graphics/SVG/1.1/DTD/svg11.dtd">
<svg version="1.1" id="Layer_1" xmlns="http://www.w3.org/2000/svg" xmlns:xlink="http://www.w3.org/1999/xlink" x="0px" y="0px"
	 viewBox="0 0 140 140" enable-background="new 0 0 140 140" xml:space="preserve">
<g>
	<g>
		<path d="M78.5,88.5c-0.6,0.4-1.3,0.5-1.6,0.1c-0.3-0.4-0.1-1.1,0.5-1.5c0.6-0.4,1.3-0.5,1.6-0.1C79.3,87.3,79.1,88,78.5,88.5z
			 M68.1,90.2c-0.2-0.1-0.5-0.2-0.9-0.2c-0.5,0-1.1,0.3-1.6,0.5c-2.2,1.2-4.9,3.7-6.2,5.7c-0.6,0.9-0.6,1.3-0.4,1.4
			c0.1,0.1,0.6,0.1,1.3-0.3C62.3,96.2,65.8,92.7,68.1,90.2z M56.7,90.2c-0.2-0.1-0.4-0.2-0.9-0.2c-0.5,0-1.2,0.2-1.7,0.5
			c-2.3,1.1-5.2,3.8-6.5,5.7C47,97,47,97.5,47.2,97.7c0.1,0.1,0.6,0,1.3-0.3C50.5,96.2,54.3,92.6,56.7,90.2z M78.3,95
			c4.2-2.8,7.8-6.3,9.4-8.6c0.9-1.2,0.4-1.8-0.9-1C83.4,87.5,79.1,92.1,78.3,95z M103.9,90.2c-0.2-0.1-0.4-0.2-0.9-0.2
			c-0.5,0-1.2,0.2-1.7,0.5c-2.3,1.1-5.2,3.8-6.5,5.7c-0.6,0.9-0.6,1.3-0.4,1.5c0.1,0.1,0.6,0,1.3-0.3
			C97.6,96.2,101.4,92.6,103.9,90.2z M115.6,95.1l0.1,0.6c-0.8,0.9-2.9,2.3-5.2,2.9c-1.9,0.4-3.3,0.2-4.1-0.7
			c-0.7-0.7-0.8-1.9-0.4-3.1c-3.9,3.6-6.1,4-6.9,3.3c-0.7-0.6-0.5-1.9,0.3-3c-1.2,1-2.4,2-3.5,2.6c-1.7,1-2.6,0.6-2.8-0.5
			c-0.1-0.5,0.2-1.3,0.6-2c-3.3,2.9-5.8,3.4-7.3,3c-0.6-0.2-1.1-0.7-1.3-1.4c-4.3,2.3-7.9,2.2-8.6-0.1c-2.6,1.4-5.2,2.1-6.2,1.5
			c-0.8-0.5-1.1-1.5-0.3-3.1c-2.7,2.5-5.1,3.9-6.3,3.1c-0.8-0.5-0.5-2,0.2-3c-1.1,1-2.3,2-3.3,2.6c-1.6,1-2.6,0.6-2.8-0.4
			c-0.1-0.6,0.2-1.4,0.6-2.2c-3.5,3.2-5.7,3.7-6.5,3c-0.6-0.6-0.5-1.9,0.3-2.9c-1.2,1-2.4,2-3.5,2.6c-1.7,1-2.6,0.6-2.8-0.5
			c-0.1-0.6,0.2-1.5,0.8-2.4c-4.4,3.6-10,6.6-13.7,6.6c-4.7,0-6-3.3-4.3-7.4c0.6-1.4,1.7-2.9,3.1-4.4c-4.2-0.3-6.2-1.2-7-2.7
			c-0.5-1-0.3-2.9,1.7-4.5c3-2.5,8.8-4.1,13.2-4.6c1-0.1,1.9-0.2,2.3-0.1l0.4,0.7c-3.9-0.4-11.1,1.5-14.2,4.3
			c-2.1,1.9-2,3.6-0.9,4.7c0.7,0.8,2,1.4,5.2,1.6c0.3-0.3,0.7-0.6,1-0.9c6.4-5.2,16.7-9.9,23.6-10.8c1.8-0.3,3.5-0.2,3.8,1.1
			c0.4,1.6-1.2,4-6.9,6.8c-4.9,2.4-12.9,4.5-19.6,4.6c-1.5,1.5-2.7,3-3.5,4.5c-2.1,3.5-1.1,6.3,2.2,6.4c4.6,0,10.9-4.2,15-7.8
			c1-0.9,1.9-1.5,2.5-1.8c1.1-0.7,2.2-1.2,3.2-1.4c1.9-0.5,3.9-0.5,5.2,0.3c-0.1,0.1-0.3,0.2-0.4,0.3c-2.6,2.1-5.3,5.1-5.9,6.3
			c-0.2,0.4-0.3,0.8-0.1,1c0.6,0.6,3.4-0.8,7.3-4.7c0.6-0.5,1-0.9,1.4-1.2c1.3-1,2.7-1.7,3.8-2c1.8-0.5,3-0.4,3.7-0.1
			c1.2-1.2,3.4-3.2,5.1-4.7c0.8,0,1.4,0,2.2,0c-0.1,0.1-0.3,0.2-0.4,0.3c-1.2,1.1-3.7,3.3-5.7,5.2c-2.5,2.4-4.7,4.8-5.5,6.2
			c-0.3,0.5-0.4,0.9-0.2,1.1c0.6,0.5,3.1-0.8,6.8-4.3c1.5-1.6,3.3-3.3,3.9-3.8c0.8,0,1.4,0,2.2,0c-0.2,0.1-0.5,0.3-0.7,0.5
			c-1.6,1.5-4.3,4-5.4,5.5c-0.8,1.2-0.7,1.8-0.3,2c0.7,0.5,3.2-0.1,5.5-1.4c-0.1-0.9,0.3-2.2,1-3.4c1.2-2.1,3.9-5.1,8.3-7.5
			c1.3-0.7,2.3-1,2.8-0.5c0.5,0.4,0.3,1.4-0.4,2.5c-2.1,3.2-6,6.1-10.1,8.8c-0.2,1.6,2.2,2.9,7.1,0.2c0-1,0.3-2.2,1.1-3.4
			c1.5-2.4,4.5-5.4,8.3-7.5c1.3-0.7,2.2-1,2.8-0.5c0.5,0.5,0.4,1.4-0.4,2.5c-2,3-5.1,5.4-10.2,8.9c-0.3,1.4,0.7,2.3,3.3,1
			c1.4-0.7,3.2-2,5.7-4.2c0.2-0.2,0.4-0.3,0.6-0.5c0.2-0.1,0.3-0.3,0.5-0.4c1.6-1.1,3-1.8,4.3-2.2c1.9-0.5,3.9-0.5,5.2,0.3
			c-0.1,0.1-0.3,0.2-0.4,0.3c-2.6,2.1-5.2,5-5.9,6.2c-0.2,0.4-0.3,0.8-0.1,1c0.4,0.4,2.8-0.3,7.1-4.5c0.7-0.6,1.1-1,1.6-1.4
			c1.4-1.1,3-1.9,4.5-2.4c1.6-0.5,3.3-0.4,3.5,0.8c0.2,1.5-1.5,2.8-3.1,3.3l-0.1-0.6c1.2-0.8,2.3-2.2,1.8-2.9
			c-0.3-0.4-1.1-0.4-2.4,0.2c-1.4,0.6-3.6,2.6-4.8,4.4c-0.8,1.2-0.9,2.5-0.3,3c0.6,0.6,1.5,0.6,2.7,0.4
			C112,97.6,114.3,96.4,115.6,95.1z M35.5,89.1c7-0.2,13-2.3,19.4-5.4c4-1.9,5.8-3.9,5.6-5c-0.2-0.9-1.6-0.9-3-0.7
			c-6.7,1-16.2,5.9-20.7,9.9C36.3,88.3,35.9,88.7,35.5,89.1z M86.9,95.1c4.2-2.8,8.1-6.5,9.6-8.9c0.7-1,0.1-1.5-0.8-0.9
			C92.4,87.3,87.8,92.1,86.9,95.1z"/>
	</g>
	<g>
		<path d="M73.4,71.4c7.5-1.2,22.5-4.3,29.1-5.9c4.7-1.2,5-3,5.4-5l2.5-13.6l5.8-8.3H30.7l5.8,8.3l2.5,13.6c0.4,2.1,0.7,3.9,5.4,5
			C50.9,67.1,65.9,70.2,73.4,71.4z M111.6,40.1l-4.5,6.6c-1.1,6.9-1.9,11.5-2.1,12.8c-0.5,2.7-0.8,3.9-3.3,4.6
			c-4.1,1.1-14.7,3.5-28.2,5.8c-13.5-2.2-24.1-4.7-28.2-5.8c-2.6-0.7-2.9-1.9-3.3-4.6c-0.2-1.3-1-6-2.1-12.8l-4.5-6.6H111.6z
			 M73.9,42.5h11.8v5H73.9V42.5z M73.9,49.9h11.8v1.8H73.9V49.9z M61.2,57.5v-1.8H73v1.8H61.2z M61.2,66.4V60H73v8.6L61.2,66.4z
			 M73,42.5v3.4h-0.9v-2.5H46.7l1.5,2.5h-1l-1-1.8L39,43.4l-0.6-0.9H73z M50.4,63.1l-6.1-0.7c-0.3-0.2-0.5-0.4-0.6-0.8h16.6v2.1
			l-9.2,0C50.8,63.5,50.6,63.3,50.4,63.1z M92.1,65c2.6-0.7,3.7-1.2,4.3-1.9l5.8-0.6c0.4-0.2,0.7-0.5,0.9-0.9H73.9v6.8
			C79.2,67.6,89.2,65.8,92.1,65z M78.7,66.8c-1.2,0.2-2.5,0.4-3.9,0.6v-4.9h21C94.8,63.7,91.9,64.4,78.7,66.8z M104.4,55l-6.3,0.7
			l-0.2,1.9H97l0.3-2.5H74.8v2.5h-0.9v-3.4h30.6L104.4,55z M103.9,58.3l-0.1,0.8l-6.2,0.7l-0.2,1l-23.4,0v-2.5L103.9,58.3z
			 M105.4,49.1l-6.6,0.7l-0.4,3.6l-11.8,0v-5.1h18.9L105.4,49.1z M48,49.1l-0.1-0.9l-6.7-0.7l-0.1-0.8H73v2.4H48z M41.6,49.9H73v3.4
			h-0.9v-2.6H49.1c0.1,0.8,0.2,1.7,0.3,2.6h-0.9c-0.1-0.6-0.1-1.3-0.2-1.9l-6.6-0.8C41.7,50.5,41.6,50.2,41.6,49.9z M100,45.4
			l-0.3,0.5H86.6v-2l20.9,0l-0.5,0.8L100,45.4z M49.2,59.2c-0.2-1-0.3-2.2-0.5-3.5L42.4,55c0-0.3-0.1-0.5-0.1-0.8h18v5.1L49.2,59.2z
			"/>
	</g>
</g>
</svg>
