<?xml version="1.0" encoding="utf-8"?>
<!-- Generator: Adobe Illustrator 18.0.0, SVG Export Plug-In . SVG Version: 6.00 Build 0)  -->
<!DOCTYPE svg PUBLIC "-//W3C//DTD SVG 1.1//EN" "http://www.w3.org/Graphics/SVG/1.1/DTD/svg11.dtd">
<svg version="1.1" id="Layer_1" xmlns="http://www.w3.org/2000/svg" xmlns:xlink="http://www.w3.org/1999/xlink" x="0px" y="0px"
	 viewBox="0 0 140 140" enable-background="new 0 0 140 140" xml:space="preserve">
<g>
	<path fill-rule="evenodd" clip-rule="evenodd" d="M22.9,58.2l-1.6-1.6c-0.2-0.2-0.4-0.2-0.6,0l-1.6,1.6c-0.2,0.2-0.5,0.3-0.8,0.3
		h-4.6c-0.1,0-0.2,0-0.2,0.1l-1.5,1.6c-0.1,0.2-0.1,0.4,0,0.5l0.9,0.9c0.7,0.7,0.3,1.5-0.6,1.8c-3,1.1-4.5,4.2-3.2,7.9
		c0.4,1.1,1,2,1.7,2.9c0.4,0.5,0.4,1.1,0,1.5l-0.9,0.9c-0.2,0.2-0.2,0.4,0,0.5l1.5,1.5c0.2,0.2,0.4,0.2,0.6,0l1.1-1.1
		c0.3-0.3,0.9-0.4,1.3-0.2c1.9,1.3,4.2,2.6,6.7,4l0,0l0,0c2.5-1.4,4.8-2.6,6.7-4c0.4-0.3,0.9-0.2,1.3,0.2l1.1,1.1
		c0.2,0.2,0.4,0.2,0.6,0l1.5-1.5c0.2-0.2,0.2-0.4,0-0.5l-0.9-0.9c-0.4-0.4-0.4-1,0-1.5c0.8-0.9,1.3-1.9,1.7-2.9
		c1.3-3.7-0.3-6.8-3.2-7.9c-1-0.4-1.4-1.1-0.6-1.8l0.9-0.9c0.1-0.2,0.1-0.4,0-0.5l-1.5-1.6c-0.1-0.1-0.1-0.1-0.2-0.1h-4.6
		C23.4,58.5,23.1,58.4,22.9,58.2L22.9,58.2z M21.1,65.6L19.6,67l-5.1,5c-0.1,0.1-0.1,0.3,0,0.5l1.7,1.5c0.1,0.1,0.3,0.1,0.4,0
		c0.2-0.2,6-5.9,6.9-6.8c0.4-0.4,1.2-1.3,3-1.4c1.4-0.1,3,0.1,3.8,1.5c0.5,1.1,0.6,2.1,0.1,3.2c-0.8,2.1-2.6,3.7-4.4,4.9
		c-1.7,1.1-3.2,2-5,3c-2-1.1-3.7-2.1-5.6-3.5c-1-0.7-1.7-1.3-2.5-2.2c-1.2-1.4-2.4-4-1.1-5.6c1.2-1.6,3.8-1.8,5.1-0.9l1.1,0.7
		c0.1,0.1,0.3,0.1,0.4,0l1.6-1.6c0.1-0.1,0.1-0.3,0-0.4l-2.5-2.5c-0.4-0.4-0.1-1,0.4-1h6.2c0.5,0,0.8,0.5,0.5,0.9L21.1,65.6
		L21.1,65.6z M25.9,74l1.7-1.4c0.1-0.1,0.1-0.3,0-0.5L24,68.5c-0.1-0.1-0.3-0.1-0.5,0L22,70c-0.1,0.1-0.1,0.3,0,0.4l3.5,3.5
		C25.6,74.1,25.8,74.1,25.9,74L25.9,74z"/>
	<path fill-rule="evenodd" clip-rule="evenodd" d="M101.5,75.3c-0.1,0-0.2,0.4-0.3,0.5c-0.1,0.1-0.3,0.3-0.4,0.4
		c-0.4,0.3-0.9,0.1-0.9,0.7c0,0.1,0,0.1,0,0.2l1.8,0.1h3.8c0.1,0,0.2,0,0.3-0.1c0.1-0.2,0.1-0.2,0.1-0.5c0-0.4-1.4-0.2-1.4-1.1
		l0.8-2.6l5.5,0l0.9,2.5v0.2c0,0.7-1.2,0.4-1.2,1v0c0,0.2,0.2,0.4,0.4,0.4l3.3,0l3.2,0c0.1-0.2,0.1-0.4,0.1-0.7l-0.2-0.1
		c-0.8,0-1-0.8-1.3-1.3l-5.5-13.8c-0.3-0.5-0.5-0.7-1-0.7H108c-0.7,0-1,0.9-1.2,1.5L101.5,75.3L101.5,75.3z M108,65.7L108,65.7
		c0.8,1.9,1.5,3.8,2.2,5.7l-4.2,0l2.1-5.6V65.7L108,65.7z"/>
	<path fill-rule="evenodd" clip-rule="evenodd" d="M93.3,62.4c0-0.1,0-0.1,0-0.2v-0.1c0-0.8,1.2-0.6,1.2-1c0-0.3-0.1-0.5-0.4-0.5h-6
		c-0.7,0-0.6,0.6-0.3,0.7c0.3,0.2,0.6,0.3,0.8,0.6c0.3,0.5,0.6,1.4,0.8,2L94,75.8c0.3,0.6,0.7,1.4,1.3,1.4h1c0.8,0,0.8-0.5,1.1-1.3
		c1.6-4.5,3.5-8.7,5.3-13.2c0,0,0.4-0.8,0.6-1c0.2-0.1,0.9-0.3,0.9-0.5v-0.2c0-0.1-0.2-0.3-0.3-0.3h-5.2c-0.1,0.2-0.2,0.1-0.2,0.4v0
		c0,0.5,1.2,0.4,1.2,0.9v0.1l-3.3,8.8l-0.1,0L93.3,62.4L93.3,62.4z"/>
	<path fill-rule="evenodd" clip-rule="evenodd" d="M122.9,60.2c-1.2,0.1-2.6,0.9-3.3,1.5c-0.7,0.7-1.5,1.9-1.5,3.3v0.4
		c0,1,0.5,2.1,1,2.6c0.3,0.4,0.5,0.6,0.9,0.9c0.2,0.1,0.9,0.6,1.1,0.6c0.1,0.1,2.8,1.3,3.2,1.5c0.6,0.3,1,0.4,1.5,0.9
		c0.4,0.4,0.7,0.9,0.7,1.6v0.2c0,1.3-1.1,2.3-2.4,2.3h-0.4c-1.3,0-2.6-0.9-3.2-1.6c-0.4-0.5-0.6-0.9-1-1.5c-0.2-0.4-0.5-1.3-1.1-1.3
		c-1,0-0.5,1.3-0.4,1.7c0.2,1.1,0.2,3.1,1.5,3.5c1.7,0.6,2.3,0.8,4,0.9c1.5,0,2.8-0.2,4.1-0.9c0.9-0.4,1.8-1.4,2.2-2.3
		c0.6-1.4,0.7-2.9,0.1-4.3c-1.3-3.3-5.3-2.8-7.5-5.1c-0.3-0.3-0.6-0.8-0.6-1.5c0-0.6,0.2-1,0.4-1.3c0.5-0.6,1.3-0.7,1.9-0.7
		c3.1,0,3.7,3.9,4.5,3.9h0.2c0.3,0,0.4-0.2,0.5-0.4c0-0.9-0.1-2.1-0.2-3c-0.1-0.7-0.1-0.7-0.5-1.1C127.4,59.9,124.3,60.1,122.9,60.2
		L122.9,60.2z"/>
	<path fill-rule="evenodd" clip-rule="evenodd" d="M79.7,61.5c0.4,0,0.8,0.3,1,0.6c0.2,0.5,0.2,0.7,0.2,1.4v11.3
		c0,0.5-0.1,1.1-0.4,1.3c-0.2,0.2-0.3,0.2-0.5,0.3c-0.2,0.1-0.5,0.2-0.6,0.2V77c0,0.1,0.2,0.2,0.3,0.2h6.5c0.4,0,0.5-0.2,0.5-0.5
		c0-0.4-1.6-0.2-1.6-1.6V62.6c0-0.3,0.3-0.7,0.5-0.9c0.3-0.2,0.8-0.2,0.8-0.6c0-0.3-0.2-0.4-0.5-0.4l-6.2-0.1
		C79,60.8,79.2,61.4,79.7,61.5L79.7,61.5z"/>
	<path fill-rule="evenodd" clip-rule="evenodd" d="M65.6,74.9v-5.3H72l0,5.2l-0.1,0.8c0,0.2-0.3,0.5-0.6,0.7
		c-0.2,0.1-0.9,0.1-0.9,0.4v0.2c0,0.1,0.1,0.2,0.3,0.3l6.6,0c0.4,0,0.4,0,0.4-0.1c-0.1-0.8-0.3-0.6-1-0.9c-0.3-0.1-0.7-0.7-0.7-1.2
		V62.9c0-1.6,1.5-1.3,1.5-1.7c0-0.3-0.1-0.5-0.5-0.5h-6.3c-0.2,0-0.5,0.1-0.5,0.3v0.3c0.2,0.1,0.1,0.1,0.5,0.2
		c0.2,0,0.4,0.1,0.5,0.2c0.2,0.2,0.5,0.6,0.5,1V68h-6.3v-5.1c0-1.5,1.6-1.2,1.6-1.7c0-0.4-0.2-0.4-0.6-0.4l-6.4,0
		c-0.2,0.1-0.3,0.2-0.3,0.3V61c0,0.5,0.5,0.4,0.9,0.6c0.3,0.2,0.6,0.5,0.6,1l0,11.8c0,0.6,0.1,1-0.3,1.5c-0.3,0.4-0.8,0.4-1.2,0.6
		c-0.2,0.4-0.3,0.7,0.6,0.7h6.2c0.3,0,0.5-0.2,0.4-0.5c0-0.4-0.7-0.4-1-0.5C65.9,76,65.6,75.3,65.6,74.9L65.6,74.9z"/>
	<path fill-rule="evenodd" clip-rule="evenodd" d="M42.7,68.3v1.3c0.2,1.7,0.8,3.4,1,3.8c0.5,0.7,0.7,1.2,1.3,1.8
		c0.4,0.4,1.3,1.1,1.8,1.3c0.9,0.6,2.7,1.1,4.2,1.2h2.2c1,0,2.8-0.5,3.2-0.7c1-0.4,1.5-0.6,1.7-2c0.2-1,0.4-1.7,0.4-2.4
		c0-0.4-0.2-0.5-0.6-0.5h0c-0.5,0-0.8,0.9-1.1,1.3c-0.4,0.5-0.6,0.9-1,1.4c-0.8,0.8-1.9,1.3-3.5,1.3h-0.3c-1,0-2.1-0.6-2.7-1.1
		c-1-0.8-1.5-2-1.9-3.1c-0.3-0.8-0.4-2-0.4-2.8v-0.6c0-1.4,0.3-3.1,0.9-4.4c0.3-0.5,0.5-0.9,0.9-1.3c0.7-0.7,1.7-1.3,3.1-1.3h0.2
		c1.3,0,2.6,0.8,3.3,1.5c0.4,0.4,0.7,0.8,1,1.4c0.2,0.4,0.5,1.4,1,1.4c0.3,0,0.5-0.2,0.6-0.5c0.1-0.9-0.2-2-0.3-2.8
		c-0.2-0.9,0-1-0.7-1.4c-1.3-0.7-3.1-0.9-4.5-1.1c-2.6,0-4.7,0.3-6.8,1.9c-0.3,0.2-0.5,0.4-0.7,0.7c-0.4,0.4-0.9,1-1.2,1.6
		c-0.4,0.7-0.6,1.1-0.8,1.9C43.1,66.4,42.8,67.4,42.7,68.3L42.7,68.3z"/>
</g>
</svg>
