<?xml version="1.0" encoding="utf-8"?>
<!-- Generator: Adobe Illustrator 18.0.0, SVG Export Plug-In . SVG Version: 6.00 Build 0)  -->
<!DOCTYPE svg PUBLIC "-//W3C//DTD SVG 1.1//EN" "http://www.w3.org/Graphics/SVG/1.1/DTD/svg11.dtd">
<svg version="1.1" id="Layer_1" xmlns="http://www.w3.org/2000/svg" xmlns:xlink="http://www.w3.org/1999/xlink" x="0px" y="0px"
	 viewBox="0 0 140 140" enable-background="new 0 0 140 140" xml:space="preserve">
<path fill-rule="evenodd" clip-rule="evenodd" d="M55.6,82.8l-0.1,0.1c-2,2.1-4.4,3.2-6.9,3.2c-5.1,0-8.8-3.8-8.8-9.1
	c0-5.3,3.7-9.1,8.8-9.1c2.5,0,4.8,1.1,6.9,3.2l0.1,0.1l3.3-4l-0.1-0.1c-2.7-3.2-6-4.8-10.1-4.8c-4,0-7.8,1.4-10.4,3.8
	c-2.9,2.7-4.4,6.4-4.4,10.9c0,4.4,1.5,8.2,4.4,10.9c2.7,2.5,6.4,3.8,10.4,3.8c4,0,7.3-1.6,10.1-4.8l0.1-0.1L55.6,82.8L55.6,82.8z"/>
<polygon fill-rule="evenodd" clip-rule="evenodd" points="62.2,91.1 68,91.1 68,62.7 62.2,62.7 62.2,91.1 "/>
<path fill-rule="evenodd" clip-rule="evenodd" d="M90.8,85c-1.5,0.9-3,1.4-4.3,1.4c-1.9,0-2.7-1-2.7-3.2v-15h5.9v-5.3h-5.9v-8.8
	L78.1,57v5.8h-4.9v5.3h4.9v16c0,4.4,2.6,7.3,6.4,7.4c2.6,0.1,4.2-0.7,5.2-1.3l0.1,0l1.4-5.5L90.8,85L90.8,85z"/>
<polygon fill-rule="evenodd" clip-rule="evenodd" points="95.6,91.1 101.4,91.1 101.4,62.7 95.6,62.7 95.6,91.1 "/>
<path fill-rule="evenodd" clip-rule="evenodd" d="M105.1,58.2c-4.8-7.3-13.8-12.4-23.4-12.4c-9.4,0-18.4,5-23.4,12.4H65
	c4.6-4.7,10.5-7.3,16.7-7.3c6.1,0,12.1,2.6,16.7,7.3H105.1L105.1,58.2z"/>
</svg>
