<?xml version="1.0" encoding="utf-8"?>
<!-- Generator: Adobe Illustrator 18.0.0, SVG Export Plug-In . SVG Version: 6.00 Build 0)  -->
<!DOCTYPE svg PUBLIC "-//W3C//DTD SVG 1.1//EN" "http://www.w3.org/Graphics/SVG/1.1/DTD/svg11.dtd">
<svg version="1.1" id="Layer_1" xmlns="http://www.w3.org/2000/svg" xmlns:xlink="http://www.w3.org/1999/xlink" x="0px" y="0px"
	 viewBox="0 0 140 140" enable-background="new 0 0 140 140" xml:space="preserve">
<g>
	<g>
		<path d="M16.1,73.8L3.6,79.1h25.1L16.1,73.8z M27.8,76.9L16.1,59L4.5,76.9l11.6-5.6L27.8,76.9z"/>
	</g>
	<g>
		<path d="M42,63.7h2.1c3.8,0,5.6,1.9,5.6,5.2c0,3.4-1.9,5.2-5.6,5.2H42V63.7 M38.5,76.9h5.6c5.8,0,9.3-3,9.3-8c0-5-3.5-8-9.3-8
			h-5.6V76.9z"/>
	</g>
	<g>
		<polygon points="65.5,70 72.3,70 72.3,67.2 65.5,67.2 65.5,63.7 73.2,63.7 73.2,61 61.9,61 61.9,76.9 73.4,76.9 73.4,74.2 
			65.5,74.2 		"/>
	</g>
	<g>
		<polygon points="93.7,74.2 86.8,74.2 86.8,61 83.3,61 83.3,76.9 93.7,76.9 		"/>
	</g>
	<g>
		<polygon points="113,61 98.7,61 98.7,63.7 104,63.7 104,76.9 107.6,76.9 107.6,63.7 113,63.7 		"/>
	</g>
	<g>
		<path d="M127.4,70.3l-2.2-5.7l-2.2,5.7H127.4z M133.7,76.9H130l-1.6-4h-6.5l-1.6,4h-3.5l6.7-16l0,0h3.6L133.7,76.9z"/>
	</g>
</g>
</svg>
