<?xml version="1.0" encoding="utf-8"?>
<!-- Generator: Adobe Illustrator 18.0.0, SVG Export Plug-In . SVG Version: 6.00 Build 0)  -->
<!DOCTYPE svg PUBLIC "-//W3C//DTD SVG 1.1//EN" "http://www.w3.org/Graphics/SVG/1.1/DTD/svg11.dtd">
<svg version="1.1" id="Layer_1" xmlns="http://www.w3.org/2000/svg" xmlns:xlink="http://www.w3.org/1999/xlink" x="0px" y="0px"
	 viewBox="0 0 140 140" enable-background="new 0 0 140 140" xml:space="preserve">
<g>
	<g>
		<defs>
			<path id="SVGID_1_" d="M68,97.8c-16.5,0-30-13.4-30-30c0-16.5,13.4-30,30-30c16.5,0,30,13.4,30,30C98,84.4,84.5,97.8,68,97.8
				 M68,39.3c-15.8,0-28.6,12.8-28.6,28.6c0,15.8,12.8,28.6,28.6,28.6c15.8,0,28.6-12.8,28.6-28.6C96.6,52.1,83.8,39.3,68,39.3
				 M93.4,76.4c0,0-0.1,0.1-0.2,0c-0.1,0-0.1-0.1-0.1-0.1c0-0.1,1-3,1-6.4c0-3.7-1.5-5.9-3.4-5.9c-1.2,0-2,0.8-2,2.1
				c0,2.2,2.7,2.4,2.7,7.3c0,2-0.4,3.9-1.1,6C87.3,89.7,77.5,94.6,68,94.6c-4.4,0-7.5-0.9-8.5-1.3c0,0-0.1-0.1,0-0.2
				c0-0.1,0.1-0.1,0.1-0.1c0.4,0.2,3.1,1,6.4,1c3.7,0,5.8-1.5,5.8-3.3c0-1.2-0.9-2.1-2.1-2.1c-2.2,0-2.4,2.8-7.2,2.8
				c-2.1,0-3.9-0.4-6.1-1.1c-10.3-3.2-15.2-12.9-15.2-22.5c0-4.7,1.3-8.4,1.3-8.5c0,0,0.1,0,0.2,0c0.1,0,0.1,0.1,0.1,0.1
				c-0.1,0.4-1,3.1-1,6.4c0,3.7,1.5,5.8,3.4,5.8c1.1,0,2-0.8,2-2c0-2.2-2.7-2.5-2.7-7.3c0-2.1,0.4-3.9,1.1-6.1
				C48.7,46,58.5,41.2,68,41.1c4.4,0,8.3,1.3,8.5,1.4c0,0,0.1,0.1,0,0.1c0,0.1-0.1,0.1-0.1,0.1c0,0-2.6-1.1-6.4-1.1
				c-3.6,0-5.8,1.5-5.8,3.4c0,1.1,0.8,2,2.1,2c2.2,0,2.4-2.7,7.2-2.7c2.1,0,3.9,0.4,6.1,1.1c10.4,3.2,15.1,13,15.2,22.4
				C94.8,72.7,93.4,76.3,93.4,76.4 M79.1,69.2c-2.8,0-5,2.1-5,4.6c0,2.1,1.2,3.7,2.9,3.7c0.6,0,1.2-0.3,1.2-1.1c0-1.1-1.4-1.3-1.3-3
				c0.1-1.1,1.1-1.8,2.1-1.8c2,0,2.9,1.9,2.9,3.9c-0.1,3.1-2.3,5.2-5,5.2c-3.5,0-5.7-3.3-5.7-6.9c0-5.3,3.5-7.4,5.3-7.9
				c0,0,4.8,0.8,4.6-1.2c-0.1-0.9-1.4-1.3-2.4-1.3c-1.1,0-2.2,0.4-2.2,0.4c-0.6-0.3-1-0.9-1.2-1.5c3.4-2.6,5.8-5.1,5.8-7.9
				c0-1.5-1-2.8-2.9-2.8c-3.4,0-6,4.3-6,8.2c0,0.7,0,1.3,0.2,1.9c-2.2,1.6-3.8,2.6-6.7,4.3c0-0.4,0.1-1.3,0.3-2.5
				c1-1.1,2.4-2.7,2.4-3.9c0-0.6-0.3-1.1-1-1.1c-1.7,0-2.9,2.5-3.2,4.2c-0.7,0.9-2.2,2.1-3.5,2.1c-1,0-1.3-0.9-1.4-1.2
				c3.2-1.1,7.1-5.4,7.1-9.3c0-0.8-0.3-2.7-2.8-2.7c-3.7,0-6.9,5.6-6.9,9.9c-1.3,0-1.8-1.4-1.8-2.5c0-1.1,0.4-2.2,0.4-2.5
				c0-0.3-0.2-0.7-0.7-0.7c-1.2,0-2,1.7-2,3.6c0.1,2.7,1.8,4.3,4.2,4.5c0.3,1.6,1.7,3.1,3.5,3.1c1.1,0,2.4-0.3,3.3-1.2
				c-0.1,0.6-0.2,1.1-0.2,1.6c-3.7,1.9-6.3,3.2-8.7,5.4c-1.9,1.7-3,4.1-3,5.9c0,2.5,1.6,4.8,4.8,4.8c3.8,0,6.7-3.1,8.1-7.3
				c0.7-2,0.9-4.9,1.1-7.6c3.8-2.2,5.6-3.4,7.6-4.8c0.3,0.4,0.5,0.8,0.8,1c-1.7,0.9-5.9,3.5-5.9,9.5c0,4.3,2.9,9.1,8.6,9.1
				c4.7,0,8-3.9,8-7.6C84.7,72.4,82.8,69.2,79.1,69.2 M56.3,80.9c-1.2,0.1-2.1-0.7-2.1-2.1c0-3.6,4.9-7,8.7-8.8
				C62.2,75,60.6,80.7,56.3,80.9 M59,61.3c0-2.7,2.7-7.9,4.4-7.4C65.3,54.5,61.8,59.8,59,61.3 M74.7,60c0-3.4,2.3-6.7,3.6-6.1
				C79.7,54.7,77.2,57.9,74.7,60"/>
		</defs>
		<use xlink:href="#SVGID_1_"  overflow="visible"/>
		<clipPath id="SVGID_2_">
			<use xlink:href="#SVGID_1_"  overflow="visible"/>
		</clipPath>
		<g clip-path="url(#SVGID_2_)">
			<path d="M68,38.4c16.3,0,29.4,13.2,29.4,29.4c0,16.3-13.2,29.4-29.4,29.4c-16.2,0-29.4-13.2-29.4-29.4
				C38.6,51.6,51.7,38.4,68,38.4z"/>
		</g>
	</g>
</g>
</svg>
