<?xml version="1.0" encoding="utf-8"?>
<!-- Generator: Adobe Illustrator 18.0.0, SVG Export Plug-In . SVG Version: 6.00 Build 0)  -->
<!DOCTYPE svg PUBLIC "-//W3C//DTD SVG 1.1//EN" "http://www.w3.org/Graphics/SVG/1.1/DTD/svg11.dtd">
<svg version="1.1" id="Layer_1" xmlns="http://www.w3.org/2000/svg" xmlns:xlink="http://www.w3.org/1999/xlink" x="0px" y="0px"
	 viewBox="0 0 140 140" enable-background="new 0 0 140 140" xml:space="preserve">
<g>
	<g>
		<path fill-rule="evenodd" clip-rule="evenodd" d="M22,63.6c0-3.1,1.9-5.1,5.5-5.1c3.2,0,23.3,0,23.3,0v4.3c0,0-22.2,0-22.6,0
			c-0.6,0-1.2,0.3-1.2,1.3c0,1.2,0,6.3,0,7.2c0,0.9,0.4,1.5,1.5,1.5c1.2,0,15,0,16,0c0.8,0,1.5-0.3,1.5-1.4c0-1,0-1.7,0-1.7h-9.3
			v-4.1h14.2c0,0,0,3.5,0,6.7c0,3.2-2.3,4.9-6,4.9c-3.6,0-13.8,0-17.4,0c-3.5,0-5.5-1.9-5.5-5.1C22,68.9,22,65.7,22,63.6L22,63.6z"
			/>
	</g>
	<g>
		<polygon fill-rule="evenodd" clip-rule="evenodd" points="71.7,77.2 79.7,63 79.7,77.2 84.7,77.2 84.7,58.5 77,58.5 69.4,71.9 
			61.8,58.5 54.1,58.5 54.1,77.2 59.1,77.2 59.1,63 67,77.2 71.7,77.2 		"/>
	</g>
	<g>
		<path fill-rule="evenodd" clip-rule="evenodd" d="M114.2,77.2c-3.6,0-17.4,0-20.9,0c-3.5,0-5.5-1.9-5.5-5.1c0-3.2,0-6.4,0-8.4
			c0-3.1,1.9-5.1,5.5-5.1c3.2,0,21,0,21,0v4.7c0,0-19.8,0-20.3,0c-0.6,0-1.2,0.3-1.2,1.3c0,1.2,0,5.6,0,6.5c0,0.9,0.4,1.4,1.5,1.4
			c1.2,0,18.9,0,19.9,0V77.2L114.2,77.2z"/>
	</g>
</g>
</svg>
