<?xml version="1.0" encoding="utf-8"?>
<!-- Generator: Adobe Illustrator 18.0.0, SVG Export Plug-In . SVG Version: 6.00 Build 0)  -->
<!DOCTYPE svg PUBLIC "-//W3C//DTD SVG 1.1//EN" "http://www.w3.org/Graphics/SVG/1.1/DTD/svg11.dtd">
<svg version="1.1" id="Layer_1" xmlns="http://www.w3.org/2000/svg" xmlns:xlink="http://www.w3.org/1999/xlink" x="0px" y="0px"
	 viewBox="0 0 140 140" enable-background="new 0 0 140 140" xml:space="preserve">
<path d="M93.9,74.3c-1-0.7-2.8-1.8-2.7-3.3c0-0.5,0.4-1.1,1.1-1.5c1.2-0.7,2.1-1.7,2.5-2.8c0.4-1.1,0.3-2.4-0.1-3.6
	c-0.4-1.1-1.1-2.1-2.1-2.8h2.3l2-1.3h-8.4c-2.9,0-5.5,1.4-6.6,3.9c-0.5,1.2-0.7,2.6-0.4,4c0.7,2.7,3.5,4.5,6.3,4.1
	c0.3-0.1,0.4-0.2,0.2,0.1c-0.7,1.1-0.2,2.7,1,3.5c-0.8-0.1-1.7-0.1-2.6,0c-3.4,0.4-7.2,2.1-7,5.8c0.2,2.8,3.1,4.9,7.6,4.9
	c3.7-0.1,7.2-1.2,8.6-3.8C97.1,78.8,96.2,76,93.9,74.3z M84.6,66.1c-0.8-3.1,0-5.1,1.9-5.7c2.3-0.7,4.7,1.3,5.3,4.7
	c0.4,2.2-0.2,4.3-2.2,4.8C87.6,70.5,85.3,68.9,84.6,66.1z M93.7,80.4c-0.2,1.7-1.8,3.1-4.7,3.2c-3,0.2-7.1-1-6.3-5
	c0.4-2.1,3.2-3.2,5.5-3.3c0.6,0.2,1.2,0.2,1.9,0.2c0.3,0.3,0.7,0.5,1.1,0.7C93.2,77.5,93.8,79,93.7,80.4z"/>
<path d="M98.7,50.3c1.6,0,3.1,0,4.8,0c-0.7,0.4-0.9,0.6-1.2,1.1c-0.2,0.3-0.3,0.9-0.3,1.5c-0.3,6.3-0.1,12.7-0.2,19.1
	c0,1.7,0.7,1.5,3,1.5c-0.3,0.3-0.9,0.9-1.3,1.1c-2,0-4,0-6,0c0.8-0.8,1.2-1.3,1.1-3.3c0-6.6-0.2-13,0.2-19.4c-0.9,0-1.8,0-2.8,0
	C96.9,51.4,97.7,50.7,98.7,50.3L98.7,50.3z"/>
<path d="M61,66.5c-0.2-4.3-3.1-7.9-8.6-7.9c-4.8,0-8.7,3.7-8.7,8.3c0,5.1,4.5,8.6,9.7,8.1C57.7,74.5,61.3,70.7,61,66.5z M54,73.6
	c-2.9,0.7-6-1.7-6.7-5.7c-0.8-4.4,0.5-7.3,3.3-8c3.2-0.9,6.5,2.3,7,7.1C57.9,70.1,56.9,73,54,73.6z"/>
<path d="M79.6,66.5c-0.2-4.3-3.1-7.9-8.5-7.9c-4.7,0-8.6,3.7-8.6,8.3c0,5.1,4.5,8.6,9.6,8.1C76.4,74.5,79.9,70.7,79.6,66.5z
	 M72.7,73.6c-2.9,0.7-5.9-1.7-6.6-5.7c-0.8-4.4,0.5-7.3,3.2-8c3.2-0.9,6.4,2.3,6.9,7.1C76.5,70.1,75.5,73,72.7,73.6z"/>
<path d="M118.2,63.3c0.5-0.2,0.6-0.3,0.4-0.8c-1.1-3.2-5.3-4.9-8.9-3.4c-2.8,1.2-4.9,4.2-4.9,7.5c0,4.5,3.3,8.5,7.7,8.5
	c2,0,3.5-0.3,4.8-1.1c0.3-0.3,1.8-1.5,1.9-1.8c0-0.1-0.2,0.1-0.6,0.3c-1,0.5-2.5,0.7-3.7,0.7c-2.4,0-4.3-1.6-5.5-3.5
	c-0.8-1.2-1.3-2.7-1.4-4.2c-0.2-2.3,0.4-5,3-5.7c1.8-0.4,3.4,0.5,4.1,2.2c0.3,0.8,0.1,1.2-0.6,1.5l-6.4,2.7l2.2,0.1
	C112.8,65.4,115.7,64.4,118.2,63.3L118.2,63.3z"/>
<path d="M38.7,56.3l2.5-2.5c-4.2-3.5-11.5-4-16.2-1.5c-4.2,2.1-7.2,6.3-7.3,10.9c-0.2,4.9,2.7,8.8,5.6,10.7c4.8,3.2,13.1,2.5,18.1,0
	v-0.5l0,0v-5.1l1.2-1.4h-7.3l-2.7,1.5l5.2-0.2c0,1.5,0,3.1,0,4.5c0,0.6,0,0.7-1,1.1c-1.5,0.4-3.2,0.5-4.7,0.3
	c-5.2-0.4-9.2-4.6-10.1-9.7c-0.9-4.9,1.4-9.5,5.3-11.4c1.9-0.9,4.2-1.4,6.7-0.6c1.6,0.5,3,1.4,4.2,2.6l-0.9,1.6L38.7,56.3L38.7,56.3
	z"/>
</svg>
