<?xml version="1.0" encoding="utf-8"?>
<!-- Generator: Adobe Illustrator 18.0.0, SVG Export Plug-In . SVG Version: 6.00 Build 0)  -->
<!DOCTYPE svg PUBLIC "-//W3C//DTD SVG 1.1//EN" "http://www.w3.org/Graphics/SVG/1.1/DTD/svg11.dtd">
<svg version="1.1" id="Layer_1" xmlns="http://www.w3.org/2000/svg" xmlns:xlink="http://www.w3.org/1999/xlink" x="0px" y="0px"
	 viewBox="0 0 140 140" enable-background="new 0 0 140 140" xml:space="preserve">
<path fill-rule="evenodd" clip-rule="evenodd" d="M19.9,60c-0.3-0.9-1.1-1.4-1.6-1.5l0,0c0,0,1.5-0.5,2.5-0.9
	c1.1-0.4,2.7-0.9,2.7-0.9l0,0.1c-0.4,0.4-0.6,1.1-0.3,2.1c0,0,2,8,2.3,9c0.3,1.1,0.7,1.6,1.2,1.7l0,0c-0.3,0.3-0.5,1-0.8,1.6
	c-0.3,0.6-0.9,2.6-3.3,3.5c-2.6,1-5.2,0.4-6.3-1.4c-0.7-1.2-0.6-2.8,0.6-3.5c1-0.6,2.1-0.2,2.5,0.6c0.4,0.8,0.1,1.7-0.2,2
	c-0.1,0.1,0,0.2,0.2,0.3c0.7,0.5,1.5,0.4,2.2,0c1-0.5,1.3-1.3,0.8-3.3C22.1,67.8,20.2,61,19.9,60L19.9,60z"/>
<path fill-rule="evenodd" clip-rule="evenodd" d="M43.1,68.6c-0.7-0.3-1.2-0.8-1.8-2c-0.4-0.7-5.1-9.3-5.6-10.3
	c-0.6-1.1-1.1-1.9-0.4-2.8l0-0.1c0,0-1.6,0.4-2.9,0.7c-1.6,0.4-2.9,0.8-2.9,0.8l0,0.1c0.9,0.3,1.1,1.5,0.9,2.7
	c-0.3,2.5-0.7,8.1-0.9,11.9c-0.1,1.4-0.5,2.6-1,3l0,0.1c0,0,1.3-0.4,2.4-0.7c1.1-0.3,2.4-0.7,2.4-0.7l0,0c-0.6-0.1-1.3-0.7-1.3-2.2
	l0.2-2.4l4.3-1.2l1,2.1c0.7,1.3,0.2,2.2-0.2,2.6l0,0.1c0,0,1.9-0.4,3-0.7C41.2,69,43.1,68.7,43.1,68.6L43.1,68.6L43.1,68.6
	L43.1,68.6z M32.2,64l0.4-6.2l2.6,5.3L32.2,64L32.2,64z"/>
<path fill-rule="evenodd" clip-rule="evenodd" d="M53.9,50.4l5-0.4l0,0.1c-1.3,0.6-1.2,1.8-1,3.5l0.7,10c0.2,1.5,0.5,2.6,1.2,2.9
	l0,0c0,0-1.2,0.1-2.8,0.2c-1.6,0.1-2.8,0.2-2.8,0.2l0-0.1c0.6-0.4,1.1-1.6,1-3.2c0,0-0.4-6.5-0.5-7.1c-0.1-0.6,0-1,0-1
	s-0.1,0.5-0.2,1c-0.2,0.5-3.2,10.9-3.2,10.9l-0.1,0c0,0-4.6-8.5-5-9.2c-0.3-0.5-0.5-1.1-0.5-1.1s0.2,0.5,0.3,1.1
	c0.1,0.7,0.9,6.4,0.9,6.4c0.3,1.5,1.1,2.6,1.7,2.8v0.1l-4.4,0.7l0-0.1c0.6-0.4,0.6-1.6,0.4-3.1l-1.3-10c-0.2-1.5-1-2.7-2.1-3.1v-0.1
	l5-0.9c0,0,4.2,7.6,4.9,8.8C51.5,58.7,53.9,50.4,53.9,50.4L53.9,50.4z"/>
<path fill-rule="evenodd" clip-rule="evenodd" d="M73.1,49.9L73,53.5h-0.1c-0.6-1.4-2-1.6-3.4-1.6l-2.8,0l-0.1,4.4l1.4,0
	c1.9,0,2.5-0.1,3.2-1.3l0.1,0l-0.2,5.2l-0.1,0c-0.6-1.4-2-1.4-3.4-1.4l-1.1,0l-0.1,4.8l3,0.1c1.9,0,2.9-0.5,3.5-1.6l0.1,0l-0.5,4.3
	c-3.5-0.1-7.5-0.1-10.7,0l0-0.1c0.7-0.5,1.1-1.5,1.1-3.1L63,52.9c0-1.5-0.1-2.4-1.1-2.9l0-0.1C65.4,49.7,69.7,49.7,73.1,49.9
	L73.1,49.9z"/>
<path fill-rule="evenodd" clip-rule="evenodd" d="M80.7,67.3c-2.1-0.1-2.3-0.7-3.5-0.9c-0.9-0.2-1.5,0.2-1.7,0.5l-0.1,0l0.2-5.8
	l0.1,0c0.4,1.1,1.6,2.7,3.1,3.5c1.3,0.7,2.6,0.4,3.3-0.4c0.6-0.7,0.7-2.1-0.2-3c-0.9-0.9-2.4-1.6-3.6-2.5c-2.4-1.9-2.3-4.4-1.5-5.8
	c1.1-2,3.3-2.8,5.3-2.6c1.2,0.1,1.8,0.4,2.6,0.7c0.9,0.3,1.6,0.1,1.8,0l0.1,0l-0.4,4.6l-0.1,0c-0.4-1.2-1.9-2.7-3.4-3
	c-1.3-0.2-2.1,0.2-2.4,0.8C79.8,54,80,55,80.9,55.6c1.3,0.9,3,1.6,4,2.6c1.6,1.5,2,4.1,0.7,6.4C84.5,66.5,82.3,67.3,80.7,67.3
	L80.7,67.3z"/>
<path fill-rule="evenodd" clip-rule="evenodd" d="M102.5,62.4c-1.2,4.7-4.6,8-8.8,7.1c-4.5-1-5.9-5.2-4.7-10.1
	c1.2-4.8,4.4-7.8,8.6-7.1C102.6,53.2,103.7,57.7,102.5,62.4L102.5,62.4L102.5,62.4z M97.3,54.7c-2.2-0.5-3.6,2.1-4.3,5.5
	c-0.8,3.6-0.4,6.3,1.6,6.8c1.9,0.4,3.5-1.9,4.3-5.5C99.5,58.1,99.4,55.2,97.3,54.7L97.3,54.7z"/>
<path fill-rule="evenodd" clip-rule="evenodd" d="M113.1,66.3c0.1,0.5,0.1,1.1,0.1,1.1s0-0.3,0.2-1l1.8-5.4c0.5-1.4,0.5-2.4-0.2-3.2
	l0,0l4.5,1.7l0,0c-0.9,0.3-1.6,1-2.1,2.5c-0.3,0.8-4.4,12.9-4.4,12.9l-2.3-0.9l-2.2-11c-0.1-0.4-0.1-1-0.1-1s0,0.3-0.2,1
	c-0.2,0.6-2,6.2-2,6.2c-0.4,1.5-0.4,2.5,0.2,3.2l0,0.1l-4.8-1.4l0,0c1-0.3,1.8-1,2.2-2.4l3-9.5c0.5-1.6,0.3-3-0.5-3.8l0,0l4.4,1.3
	L113.1,66.3L113.1,66.3z"/>
<path fill-rule="evenodd" clip-rule="evenodd" d="M37.7,81.2h-1v-1.6h1c0.6,0,0.9,0.2,0.9,0.8C38.6,80.8,38.2,81.2,37.7,81.2
	L37.7,81.2L37.7,81.2z M40.8,82.9c-0.4,0.2-0.5,0.1-0.5,0.1c-0.2-0.1-0.7-1-0.7-1c-0.4-0.6-0.8-0.6-0.8-0.6c0.8-0.1,1.3-0.5,1.3-1.1
	c0-0.6-0.6-1-1.4-1h-3.9v0.2h0.1c0.3,0,0.6,0.2,0.6,0.5v2.6c0,0.3-0.2,0.5-0.6,0.5h-0.1v0.2h2.8v-0.2h-0.1c-0.3,0-0.6-0.2-0.6-0.5
	v-1.1h0.6c0,0,0.4,0,0.6,0.4c0,0,0.2,0.4,0.5,0.9c0.4,0.6,0.8,0.7,1.3,0.7c0.4,0,0.9-0.2,1.1-0.4L40.8,82.9L40.8,82.9z"/>
<path fill-rule="evenodd" clip-rule="evenodd" d="M76.4,82.6c0,0.3-0.2,0.5-0.6,0.5h-0.1v0.2h2.8v-0.2h-0.1c-0.3,0-0.6-0.2-0.6-0.5
	V80c0-0.3,0.2-0.5,0.6-0.5h0.1v-0.2h-2.8v0.2h0.1c0.3,0,0.6,0.2,0.6,0.5V82.6L76.4,82.6z"/>
<path fill-rule="evenodd" clip-rule="evenodd" d="M97,83.3h-5v-0.2h0.1c0.3,0,0.6-0.2,0.6-0.5V80c0-0.3-0.2-0.5-0.6-0.5h-0.1v-0.2
	l4.8,0v1.3h-0.3c0,0-0.1-1-1-1h-1.4V81H95c0.3,0,0.6-0.3,0.6-0.6v0h0.2V82h-0.2v0c0-0.3-0.4-0.7-0.6-0.7h-0.9v1.3
	c0,0.3,0.1,0.5,0.6,0.5h0.7c1.3,0,1.3-1.2,1.3-1.2H97V83.3L97,83.3L97,83.3z"/>
<path fill-rule="evenodd" clip-rule="evenodd" d="M84.1,79.2v1.4h-0.3c-0.2-0.7-0.8-1-1.5-1.1c-0.7-0.1-1.3,0.2-1.4,0.6
	c-0.1,0.4,0.4,0.6,1.1,0.7c1.2,0.1,2.4,0.3,2.4,1.4c0,1-1.3,1.6-3.2,1.5c-0.7-0.1-1.2-0.2-1.6-0.3v-1.3h0.2c0.3,0.9,0.9,1.2,1.7,1.3
	c0.7,0.1,1.4-0.2,1.4-0.7c0-0.5-0.7-0.6-1.6-0.8c-0.9-0.1-1.7-0.5-1.7-1.2c0-0.9,1.4-1.5,2.8-1.3c0,0,0.8,0.1,1.1,0.2
	c0,0,0.1,0,0.3-0.1l0.1-0.1H84.1L84.1,79.2z"/>
<path fill-rule="evenodd" clip-rule="evenodd" d="M57.2,79.5h0.1v-0.2h-2.8v0.2h0.1c0.3,0,0.6,0.2,0.6,0.5v1H53v-1
	c0-0.3,0.2-0.5,0.6-0.5h0.1v-0.2h-2.8v0.2H51c0.3,0,0.6,0.2,0.6,0.5v2.6c0,0.3-0.2,0.5-0.6,0.5h-0.1v0.2h2.8v-0.2h-0.1
	c-0.3,0-0.6-0.2-0.6-0.5v-1.3h2.2v1.3c0,0.3-0.2,0.5-0.6,0.5h-0.1v0.2h2.8v-0.2h-0.1c-0.3,0-0.6-0.2-0.6-0.5V80
	C56.6,79.7,56.8,79.5,57.2,79.5L57.2,79.5z"/>
<path fill-rule="evenodd" clip-rule="evenodd" d="M65.4,83.3h0.8l1.4-2.8c0.2-0.4,0.3-0.5,0.3-0.5c0.3-0.4,0.5-0.5,0.8-0.5h0.1
	c0.3,0,0.5,0.2,0.5,0.5v2.6c0,0.3-0.2,0.5-0.5,0.5h-0.1v0.2h2.8v-0.2h-0.1c-0.3,0-0.6-0.2-0.6-0.5v-1.3h2.2v1.3
	c0,0.3-0.2,0.5-0.6,0.5h-0.1v0.2H75v-0.2h-0.1c-0.3,0-0.6-0.2-0.6-0.5V80c0-0.3,0.2-0.5,0.6-0.5H75v-0.2h-2.8v0.2h0.1
	c0.3,0,0.6,0.2,0.6,0.5v1h-2.2v-1c0-0.3,0.2-0.5,0.6-0.5h0.1v-0.2h-4.5v0.2l0,0c0.4,0,0.6,0.3,0.5,0.7l-1,2l-1-2.2
	c-0.1-0.3,0.1-0.5,0.5-0.5l0,0v-0.2h-2.6v0.2c0.3,0,0.4,0.1,0.6,0.5l0.3,0.7l-0.8,1.5l-1-2.2c-0.1-0.3,0.1-0.5,0.5-0.5l0,0l0-0.2
	h-2.7l0,0.2c0.3,0,0.4,0.1,0.7,0.5l1.6,3.3h0.8l1.1-2.2L65.4,83.3h0.8H65.4L65.4,83.3z"/>
<path fill-rule="evenodd" clip-rule="evenodd" d="M101.6,79.3v0.2l0,0c0.4,0,0.7,0.3,0.4,0.7l-0.9,1.1l-1-1.3
	c-0.2-0.3,0-0.5,0.4-0.5l0,0l0-0.2h-3l0,0.2c0.3,0,0.5,0.1,0.9,0.5l1.4,1.8v0.8c0,0.3-0.2,0.5-0.6,0.5h-0.1v0.2h2.8v-0.2h-0.1
	c-0.3,0-0.6-0.2-0.6-0.5l0-0.9l1.2-1.6c0.4-0.5,0.8-0.6,0.9-0.6h0.2v-0.3L101.6,79.3L101.6,79.3z"/>
<path fill-rule="evenodd" clip-rule="evenodd" d="M87.5,81.7c0-0.2,0.2-0.3,0.4-0.3c0.2,0,0.2,0.1,0.4,0.3c0,0,0.3,0.5,0.7,1
	c0.5,0.6,1,0.8,1.5,0.8c0.5,0,0.9-0.3,1.2-0.5l-0.1-0.2C91.3,83,91,82.9,91,82.9c-0.3-0.1-0.9-1-0.9-1c-0.7-1.1-1.4-1-1.4-1L90,80
	c0.4-0.3,0.9-0.5,1.2-0.5h0.1v-0.2H89v0.2h0.1c0.4,0,0.5,0.4,0.1,0.6l-1.7,1.1l0-1.3c0-0.3,0.2-0.5,0.6-0.5h0.1v-0.2h-2.8v0.2h0.1
	c0.3,0,0.6,0.2,0.6,0.5v2.6c0,0.3-0.2,0.5-0.6,0.5h-0.1v0.2h2.8v-0.2h-0.1c-0.3,0-0.6-0.2-0.6-0.5L87.5,81.7L87.5,81.7z"/>
<path fill-rule="evenodd" clip-rule="evenodd" d="M42,82.6c0,0.3-0.2,0.5-0.6,0.5h-0.1v0.2H44v-0.2h-0.1c-0.3,0-0.6-0.2-0.6-0.5V80
	c0-0.3,0.2-0.5,0.6-0.5H44v-0.2h-2.8v0.2h0.1c0.3,0,0.6,0.2,0.6,0.5V82.6L42,82.6z"/>
<path fill-rule="evenodd" clip-rule="evenodd" d="M31.8,82.6c0,0.3-0.2,0.5-0.6,0.5h-0.1v0.2h2.8v-0.2h-0.1c-0.3,0-0.6-0.2-0.6-0.5
	V80c0-0.3,0.2-0.5,0.6-0.5h0.1v-0.2h-2.8v0.2h0.1c0.3,0,0.6,0.2,0.6,0.5V82.6L31.8,82.6z"/>
<path fill-rule="evenodd" clip-rule="evenodd" d="M49.6,79.2v1.4h-0.3c-0.2-0.7-0.8-1-1.5-1.1c-0.7-0.1-1.3,0.2-1.4,0.6
	c-0.1,0.4,0.4,0.6,1.1,0.7c1.2,0.1,2.4,0.3,2.4,1.4c0,1-1.3,1.6-3.2,1.5c-0.7-0.1-1.2-0.2-1.6-0.3v-1.3h0.2c0.3,0.9,0.9,1.2,1.7,1.3
	c0.7,0.1,1.4-0.2,1.4-0.7c0-0.5-0.7-0.6-1.6-0.8c-0.9-0.1-1.7-0.5-1.7-1.2c0-0.9,1.4-1.5,2.8-1.3c0,0,0.8,0.1,1.1,0.2
	c0,0,0.1,0,0.3-0.1l0.1-0.1H49.6L49.6,79.2z"/>
</svg>
