<?xml version="1.0" encoding="utf-8"?>
<!-- Generator: Adobe Illustrator 18.0.0, SVG Export Plug-In . SVG Version: 6.00 Build 0)  -->
<!DOCTYPE svg PUBLIC "-//W3C//DTD SVG 1.1//EN" "http://www.w3.org/Graphics/SVG/1.1/DTD/svg11.dtd">
<svg version="1.1" id="Layer_1" xmlns="http://www.w3.org/2000/svg" xmlns:xlink="http://www.w3.org/1999/xlink" x="0px" y="0px"
	 viewBox="0 0 140 140" enable-background="new 0 0 140 140" xml:space="preserve">
<g>
	<g>
		<path d="M68.3,44.6h25.4v48.4H45.3V67.6h-5.6v31.1h59.6V39h-31V44.6z"/>
	</g>
	<g>
		<path d="M44.9,46.2h2.2v2h-2.2V46.2z M39.7,68.8h29.8V39H39.7V68.8z M48.5,54.2L48.5,54.2c0-2.6,2-4.8,4.7-4.8
			c1.7,0,2.8,0.6,3.6,1.6l-1.3,1.4c-0.6-0.7-1.3-1.1-2.4-1.1c-1.5,0-2.6,1.3-2.6,2.9v0c0,1.6,1.1,2.9,2.7,2.9c1,0,1.7-0.5,2.4-1.1
			l1.3,1.2c-0.9,1-1.9,1.7-3.7,1.7C50.5,58.9,48.5,56.8,48.5,54.2L48.5,54.2z M58.1,49.6h2.1v1.5c0.7-0.9,1.6-1.7,3.1-1.7
			c2.2,0,4.2,1.7,4.2,4.7v0c0,3-2.1,4.7-4.2,4.7c-1.5,0-2.4-0.8-3.1-1.6v4.2h-2.1V49.6L58.1,49.6z M65.4,54.1L65.4,54.1
			c0-1.8-1.2-3-2.6-3c-1.4,0-2.7,1.2-2.7,2.9v0c0,1.8,1.2,2.9,2.7,2.9C64.2,57.1,65.4,55.9,65.4,54.1z M47.1,58
			c0,1.3-0.6,3.6-3.7,3.6c-0.5,0-1-0.1-1.4-0.3l0.2-1.8c0.3,0.1,0.7,0.2,1,0.2c1.6,0,1.8-1.2,1.8-2.6v-7.5h2.1V58L47.1,58z"/>
	</g>
</g>
</svg>
