<?xml version="1.0" encoding="utf-8"?>
<!-- Generator: Adobe Illustrator 18.0.0, SVG Export Plug-In . SVG Version: 6.00 Build 0)  -->
<!DOCTYPE svg PUBLIC "-//W3C//DTD SVG 1.1//EN" "http://www.w3.org/Graphics/SVG/1.1/DTD/svg11.dtd">
<svg version="1.1" id="Layer_1" xmlns="http://www.w3.org/2000/svg" xmlns:xlink="http://www.w3.org/1999/xlink" x="0px" y="0px"
	 viewBox="0 0 140 140" enable-background="new 0 0 140 140" xml:space="preserve">
<g>
	<g>
		<path fill-rule="evenodd" clip-rule="evenodd" d="M112.3,55.2c0.2,0.4,0.3,0.8,0.4,1.2c0.4,0,0.9,0,1.3,0
			c-0.3,0.3-0.7,0.6-1.1,0.8c0.1,0.4,0.3,0.8,0.4,1.3c-0.3-0.3-0.7-0.5-1-0.8c-0.4,0.2-0.7,0.5-1.1,0.8c0.1-0.4,0.3-0.8,0.4-1.2
			c-0.3-0.3-0.7-0.6-1.1-0.8c0.4-0.1,0.9,0,1.3,0C112.1,56.1,112.1,55.6,112.3,55.2z"/>
	</g>
	<g>
		<path fill-rule="evenodd" clip-rule="evenodd" d="M114.9,59.7c-2.1,0-3.8,1.5-3.9,3.5c-0.4,4.6,4.9,4.1,6.9,6.4
			c2.2,2.5-0.3,6.5-3.6,6.1c-2.3-0.2-3.6-2.3-3.8-4.7c-0.3,0-0.7-0.1-0.9,0c0.3,3,2,5.6,5.2,5.6c2.9,0,5.1-2.5,4.8-5.4
			c-0.2-2.1-2.1-3.4-3.8-4.1c-1.3-0.6-2.8-0.9-3.5-2c-1.1-1.7-0.1-3.9,1.4-4.5c1.9-0.8,4.3,0.6,4.4,2.8c0.3,0,0.6,0,0.9,0
			C118.7,61.3,117.2,59.8,114.9,59.7z"/>
	</g>
	<g>
		<g>
			<path fill-rule="evenodd" clip-rule="evenodd" d="M71.7,59.8c-3.4,0.2-5.6,2-6.9,4.4c-1.6,2.8-1.1,6.5,0.5,8.8
				c1.5,2.2,4.1,3.9,7.6,3.6c3.4-0.3,5.4-2.1,6.8-4.4c0,1.5,0,3,0,4.5c0.3,0,0.7,0,1,0c0-5.5,0-11,0-16.4c-0.2-0.1-0.7-0.1-1,0
				c0,1.3,0,2.7,0,4C78.1,61.7,75.8,59.5,71.7,59.8z M71.4,60.7c3.8-0.4,6.3,1.9,7.4,4c0.8,1.4,1,3.1,0.7,4.8
				c-0.7,4.3-5.5,7.6-10.3,5.5c-2.3-1-4.5-3.3-4.5-6.8c0-3.2,1.8-5.4,3.9-6.6C69.4,61.1,70.4,60.8,71.4,60.7z"/>
		</g>
	</g>
	<g>
		<path fill-rule="evenodd" clip-rule="evenodd" d="M89.2,59.7c-3.4,0-6,2.3-7.2,4.6c-0.7,1.4-1.1,3-0.9,4.8
			c0.5,4.6,4.6,8.2,9.7,7.4c3.2-0.5,5.2-2.4,6.4-5.1c-0.2,0.1-0.7,0-1,0c-1.3,2.3-2.9,3.8-5.9,4.1c-3,0.4-5.4-1.1-6.9-3
			c-1.4-2-2-5.2-0.6-7.8c1.1-2.1,3.2-3.9,6-4.1c4-0.3,5.9,1.8,7.4,4.2c0.3,0,0.7,0.1,1,0C95.9,61.9,93.4,59.7,89.2,59.7z"/>
	</g>
	<g>
		<path fill-rule="evenodd" clip-rule="evenodd" d="M44.5,59.8c-2.2,0.2-3.6,1.6-4.7,2.9c0-0.9,0-1.7,0-2.6c-0.3,0-0.6,0-0.9,0
			c0,5.5,0,11,0,16.5c0.3,0,0.6,0,0.9,0c0.2-3.6-0.3-7.8,0-11.1c0.1-1,0.5-2,1-2.7c0.9-1.2,2.6-2.3,4.9-2.1c2.6,0.2,4.6,2.3,4.8,4.9
			c0.2,3.4-0.2,7.4,0,11c0.3,0,0.6,0,0.9,0c0-1.9,0-3.8,0-5.6s-0.2-3.8,0-5.6c0.1-1.3,0.8-2.4,1.6-3.1c1-1,2.4-1.7,4.4-1.5
			c2.4,0.2,4.5,2.3,4.7,4.7c0.2,1.9,0,3.8,0,5.6c0,1.8,0,3.7,0,5.6c0.3,0,0.6,0,0.9,0c0-1.8,0-3.7,0-5.6c0-2,0.1-3.9,0-5.6
			c-0.3-3-2.6-5.4-5.6-5.6c-3.5-0.3-5.3,1.7-6.4,3.9C49.9,61.4,47.9,59.5,44.5,59.8z"/>
	</g>
	<g>
		<path fill-rule="evenodd" clip-rule="evenodd" d="M96.5,60.2c2.2,5.4,4.3,10.8,6.5,16.2c-0.8,2-1.6,4-2.4,6c0.4,0,0.6,0.1,1,0
			c3-7.4,6-14.8,9-22.3c-0.4,0-0.7,0-1.1,0c-2,5-4,10-6.1,14.9c-2.1-4.9-4-10-6-14.9C97.2,60.2,96.8,60.1,96.5,60.2z"/>
	</g>
	<g>
		<path fill-rule="evenodd" clip-rule="evenodd" d="M21.3,76.6c1.8-1.4,3.6-2.6,5.4-4c1.6,1.1,3.3,2.4,4.8,3.5
			c0.2,0.2,0.5,0.4,0.6,0.4c-0.7-2.1-1.4-4.2-2.1-6.4c1.7-1.2,3.5-2.5,5.1-3.8c0.1,0,0.3-0.1,0.2-0.2c-2.2,0-4.4,0-6.7,0
			c-0.7-2.1-1.4-4.3-2.1-6.4c-0.7,2.1-1.3,4.3-2.1,6.4c-2.2,0-4.6-0.1-6.7,0c1.9,1.3,3.7,2.6,5.5,4C22.7,72.3,21.9,74.5,21.3,76.6z"
			/>
	</g>
</g>
</svg>
