<?xml version="1.0" encoding="utf-8"?>
<!-- Generator: Adobe Illustrator 18.0.0, SVG Export Plug-In . SVG Version: 6.00 Build 0)  -->
<!DOCTYPE svg PUBLIC "-//W3C//DTD SVG 1.1//EN" "http://www.w3.org/Graphics/SVG/1.1/DTD/svg11.dtd">
<svg version="1.1" id="Layer_1" xmlns="http://www.w3.org/2000/svg" xmlns:xlink="http://www.w3.org/1999/xlink" x="0px" y="0px"
	 viewBox="0 0 140 140" enable-background="new 0 0 140 140" xml:space="preserve">
<g>
	<g>
		<polygon fill-rule="evenodd" clip-rule="evenodd" points="17.8,57.9 24.8,57.9 28.7,71.4 32.8,57.9 39.5,57.9 39.5,79.5 35,79.5 
			35,64.5 30.6,79.5 26.5,79.5 22.4,64.4 22.4,79.5 17.8,79.5 17.8,57.9 17.8,57.9 		"/>
	</g>
	<g>
		<polygon fill-rule="evenodd" clip-rule="evenodd" points="60.5,57.9 64.9,57.9 64.9,79.5 60.5,79.5 60.5,57.9 60.5,57.9 		"/>
	</g>
	<g>
		<path fill-rule="evenodd" clip-rule="evenodd" d="M61.7,71.8c0-4.6,3.5-8.3,7.8-8.3c4.3,0,7.8,3.7,7.8,8.3c0,4.6-3.5,8.3-7.8,8.3
			C65.2,80.1,61.7,76.4,61.7,71.8L61.7,71.8L61.7,71.8L61.7,71.8z M69,75.6c2,0,3.7-1.6,3.7-3.7c0-2-1.6-3.7-3.7-3.7
			c-2,0-3.7,1.6-3.7,3.7C65.3,73.9,66.9,75.6,69,75.6L69,75.6L69,75.6L69,75.6z"/>
	</g>
	<g>
		<polygon fill-rule="evenodd" clip-rule="evenodd" points="86.3,57.9 90.8,57.9 90.8,79.5 86.3,79.5 86.3,57.9 86.3,57.9 		"/>
	</g>
	<g>
		<polygon fill-rule="evenodd" clip-rule="evenodd" points="79.5,63.5 83.9,63.5 83.9,79.5 79.5,79.5 79.5,63.5 79.5,63.5 		"/>
	</g>
	<g>
		<polygon fill-rule="evenodd" clip-rule="evenodd" points="84,62.3 84,57.8 79.4,57.8 79.4,62.3 84,62.3 84,62.3 		"/>
	</g>
	<g>
		<path d="M49.9,80.6c-4.9,0-8.8-3.9-8.8-8.8c0-4.9,3.9-8.8,8.8-8.8c4.9,0,8.8,3.9,8.8,8.8C58.7,76.6,54.8,80.6,49.9,80.6z M49.9,64
			c-4.3,0-7.8,3.5-7.8,7.8c0,4.3,3.5,7.8,7.8,7.8c4.3,0,7.8-3.5,7.8-7.8C57.7,67.5,54.2,64,49.9,64z M49.9,75.9
			c-2.3,0-4.2-1.9-4.2-4.2c0-2.3,1.9-4.2,4.2-4.2c2.3,0,4.2,1.9,4.2,4.2C54.1,74.1,52.2,75.9,49.9,75.9z M49.9,68.6
			c-1.8,0-3.2,1.4-3.2,3.2c0,1.8,1.4,3.2,3.2,3.2c1.8,0,3.2-1.4,3.2-3.2C53.1,70,51.6,68.6,49.9,68.6z"/>
	</g>
	<g>
		<polygon fill-rule="evenodd" clip-rule="evenodd" points="17.8,57.9 24.8,57.9 28.7,71.4 32.8,57.9 39.5,57.9 39.5,79.5 35,79.5 
			35,64.5 30.6,79.5 26.5,79.5 22.4,64.4 22.4,79.5 17.8,79.5 17.8,57.9 17.8,57.9 		"/>
	</g>
	<g>
		<polygon fill-rule="evenodd" clip-rule="evenodd" points="60.5,57.9 64.9,57.9 64.9,79.5 60.5,79.5 60.5,57.9 60.5,57.9 		"/>
	</g>
	<g>
		<path fill-rule="evenodd" clip-rule="evenodd" d="M61.7,71.8c0-4.6,3.5-8.3,7.8-8.3c4.3,0,7.8,3.7,7.8,8.3c0,4.6-3.5,8.3-7.8,8.3
			C65.2,80.1,61.7,76.4,61.7,71.8L61.7,71.8L61.7,71.8L61.7,71.8z M69,75.6c2,0,3.7-1.6,3.7-3.7c0-2-1.6-3.7-3.7-3.7
			c-2,0-3.7,1.6-3.7,3.7C65.3,73.9,66.9,75.6,69,75.6L69,75.6L69,75.6L69,75.6z"/>
	</g>
	<g>
		<polygon fill-rule="evenodd" clip-rule="evenodd" points="86.3,57.9 90.8,57.9 90.8,79.5 86.3,79.5 86.3,57.9 86.3,57.9 		"/>
	</g>
	<g>
		<polygon fill-rule="evenodd" clip-rule="evenodd" points="79.5,63.5 83.9,63.5 83.9,79.5 79.5,79.5 79.5,63.5 79.5,63.5 		"/>
	</g>
	<g>
		<polygon fill-rule="evenodd" clip-rule="evenodd" points="84,62.3 84,57.8 79.4,57.8 79.4,62.3 84,62.3 84,62.3 		"/>
	</g>
	<g>
		<path fill-rule="evenodd" clip-rule="evenodd" d="M120.2,79.5L120.2,79.5H98.5V57.9h21.7V79.5L120.2,79.5z M108.6,59.9L108.6,59.9
			L108.6,59.9c-0.6,1.8-3.1,1.4-3.1,1.4l0,0v2.6h2.7v13.8l3.4,0.1V59.9H108.6L108.6,59.9z"/>
	</g>
</g>
</svg>
