<?xml version="1.0" encoding="utf-8"?>
<!-- Generator: Adobe Illustrator 18.0.0, SVG Export Plug-In . SVG Version: 6.00 Build 0)  -->
<!DOCTYPE svg PUBLIC "-//W3C//DTD SVG 1.1//EN" "http://www.w3.org/Graphics/SVG/1.1/DTD/svg11.dtd">
<svg version="1.1" id="Layer_1" xmlns="http://www.w3.org/2000/svg" xmlns:xlink="http://www.w3.org/1999/xlink" x="0px" y="0px"
	 viewBox="0 0 140 140" enable-background="new 0 0 140 140" xml:space="preserve">
<g>
	<g>
		<g>
			<g>
				<g>
					<path fill-rule="evenodd" clip-rule="evenodd" d="M10.4,68.8l3,6.7l-6.1-4.2c-1.5-1-1.2-2.7-0.4-3.5
						C8.1,66.9,9.8,67.2,10.4,68.8"/>
				</g>
				<g>
					<path fill-rule="evenodd" clip-rule="evenodd" d="M14.5,67.2l-1.1,7.5l-3.1-7.2c-0.7-1.8,0.8-3,1.8-3
						C13.3,64.5,14.7,65.3,14.5,67.2"/>
				</g>
				<g>
					<path fill-rule="evenodd" clip-rule="evenodd" d="M19.1,67.6l-3,7.2l-1-6.5c-0.1-1,0.5-1,0.8-1.2c0-0.1-0.4-0.1-0.4-0.1h-0.6
						c-0.1-1.7,1.3-2.4,2.3-2.3C18.4,64.6,19.7,66,19.1,67.6"/>
				</g>
				<g>
					<path fill-rule="evenodd" clip-rule="evenodd" d="M22.2,71.3l-6.1,4.2l2.9-6.7c0.9-2.1,2.9-1.7,3.6-0.9
						C23.4,68.8,23.6,70.4,22.2,71.3"/>
				</g>
				<g>
					<path fill-rule="evenodd" clip-rule="evenodd" d="M22.9,76.3h-7.1l5.7-4c1.4-0.9,2.9-0.1,3.3,1.1
						C25.2,74.8,24.3,76.3,22.9,76.3"/>
				</g>
				<g>
					<path fill-rule="evenodd" clip-rule="evenodd" d="M4.6,73.3c0.5-1.4,2-1.9,3.4-1.1l5.7,4h-7C5.3,76.3,4.1,75,4.6,73.3"/>
				</g>
				<g>
					<path d="M28.8,65.4h2.4V67c0.7-1,1.6-1.8,3.2-1.8c1.5,0,2.6,0.7,3.2,1.9c0.9-1.1,2-1.9,3.6-1.9c2.3,0,3.7,1.5,3.7,4.1v6.8h-2.4
						v-6c0-1.7-0.8-2.6-2.2-2.6c-1.3,0-2.3,0.9-2.3,2.6v6h-2.4V70c0-1.7-0.8-2.6-2.2-2.6c-1.3,0-2.3,1-2.3,2.7v6h-2.4V65.4z"/>
				</g>
				<g>
					<path d="M28.8,65.6h2.4L31,65.4V67v0.6l0.3-0.5c0.6-0.9,1.5-1.7,3.1-1.7c1.4,0,2.4,0.6,3,1.8l0.1,0.3l0.2-0.2
						c0.9-1.2,2.1-1.8,3.5-1.8c2.3,0,3.5,1.4,3.5,3.9v6.8l0.2-0.2h-2.4l0.2,0.2v-6c0-1.8-0.9-2.8-2.3-2.8c-1.5,0-2.5,1.1-2.5,2.8v6
						l0.2-0.2h-2.4l0.2,0.2V70c0-1.7-0.9-2.8-2.3-2.8c-1.5,0-2.5,1.1-2.5,2.8v6l0.2-0.2h-2.4l0.2,0.2V65.4L28.8,65.6z M28.8,76.2
						h2.4h0.2v-0.2v-6c0-1.5,0.8-2.5,2.1-2.5c1.3,0,2,0.9,2,2.4v6.1v0.2h0.2h2.4h0.2v-0.2v-6c0-1.5,0.8-2.5,2.1-2.5
						c1.6,0,2,1.3,2,2.4v6v0.2h0.2H45h0.2v-0.2v-6.8c0-2.7-1.5-4.3-3.9-4.3c-1.5,0-2.7,0.6-3.7,1.9l0.3,0c-0.6-1.3-1.8-2-3.3-2
						c-1.8,0-2.7,1-3.4,1.9l0.3,0.1v-1.6v-0.2h-0.2h-2.4h-0.2v0.2v10.6v0.2H28.8z"/>
				</g>
				<g>
					<path d="M46,74.7l1.1-1.7c1.2,0.9,2.4,1.3,3.5,1.3c1.1,0,1.7-0.4,1.7-1.2v0c0-0.8-1.1-1.1-2.4-1.5c-1.6-0.4-3.3-1.1-3.3-3.1v0
						c0-2,1.7-3.2,3.8-3.2c1.3,0,2.8,0.5,3.9,1.2l-1,1.7c-1-0.6-2.1-1-3-1c-1,0-1.5,0.4-1.5,1.1v0c0,0.8,1.2,1.1,2.4,1.5
						c1.6,0.5,3.3,1.2,3.3,3.1v0c0,2.2-1.7,3.3-4,3.3C49,76.3,47.4,75.7,46,74.7"/>
				</g>
				<g>
					<path d="M46.2,74.8l1.1-1.7l-0.3,0c1.2,0.9,2.4,1.3,3.6,1.3c1.1,0,1.8-0.5,1.8-1.3v0c0-0.9-1-1.2-2.3-1.6l-0.3-0.1
						c-1.6-0.5-3.2-1.1-3.2-2.9v0c0-1.8,1.5-3.1,3.6-3.1c1.3,0,2.7,0.4,3.8,1.2l-0.1-0.2l-1,1.7l0.3-0.1c-1.1-0.7-2.2-1-3.1-1
						c-1,0-1.7,0.5-1.7,1.3v0c0,0.9,1.1,1.2,2.3,1.6l0.2,0.1c1.5,0.5,3.2,1.1,3.2,2.9v0c0,2.3-1.9,3.2-3.8,3.2
						c-1.5,0-3.1-0.6-4.4-1.6L46.2,74.8z M50.6,76.4c2.6,0,4.1-1.4,4.1-3.5v0c0-2.2-2.2-2.9-3.4-3.3L51,69.5
						C50,69.2,49,68.9,49,68.3v0c0-0.5,0.5-0.9,1.3-0.9c0.8,0,1.9,0.4,2.9,1l0.2,0.1l0.1-0.2l1-1.7l0.1-0.2l-0.1-0.1
						c-1.2-0.8-2.7-1.2-4-1.2c-2.3,0-4,1.4-4,3.4v0c0,2.1,1.8,2.8,3.5,3.3c0,0,0.2,0.1,0.2,0.1c1.1,0.3,2,0.6,2,1.2v0
						c0,0.6-0.5,1-1.5,1c-1.1,0-2.3-0.5-3.4-1.3l-0.2-0.1L47,72.9l-1.1,1.7l-0.1,0.1l0.1,0.1C47.2,75.8,48.9,76.4,50.6,76.4"/>
				</g>
				<g>
					<path d="M55.5,65.4H58v1.6c0.7-1,1.7-1.9,3.3-1.9c2.4,0,3.8,1.6,3.8,4.1v6.8h-2.4v-6c0-1.7-0.8-2.6-2.3-2.6
						c-1.4,0-2.4,1-2.4,2.6v6h-2.4V65.4z"/>
				</g>
				<g>
					<path d="M55.5,65.6H58l-0.2-0.2v1.6v0.6l0.3-0.5c0.8-1.2,1.8-1.8,3.2-1.8c2.3,0,3.6,1.5,3.6,3.9v6.8l0.2-0.2h-2.4l0.2,0.2v-6
						c0-1.7-0.9-2.8-2.5-2.8c-1.6,0-2.6,1.1-2.6,2.8v6l0.2-0.2h-2.4l0.2,0.2V65.4L55.5,65.6z M55.5,76.2H58h0.2v-0.2v-6
						c0-1.5,0.9-2.5,2.2-2.5c1.3,0,2.1,0.9,2.1,2.4v6v0.2h0.2h2.4h0.2v-0.2v-6.8c0-2.6-1.5-4.3-4-4.3c-1.4,0-2.6,0.6-3.5,2l0.3,0.1
						v-1.6v-0.2H58h-2.4h-0.2v0.2v10.6v0.2H55.5z"/>
				</g>
				<g>
					<path d="M69,74.4v1.7h-2.4V61.3H69v5.8c0.8-1.1,1.9-2,3.6-2c2.5,0,5,2,5,5.5v0c0,3.5-2.4,5.5-5,5.5
						C70.8,76.3,69.7,75.4,69,74.4 M68.8,73.8l0.3,0.4c0.9,1.2,2,1.8,3.5,1.8c2.4,0,4.8-1.8,4.8-5.3v0c0-3.5-2.4-5.3-4.8-5.3
						c-1.4,0-2.5,0.6-3.5,1.9l-0.3,0.5v-0.6v-5.8l0.2,0.2h-2.4l0.2-0.2v14.7l-0.2-0.2H69l-0.2,0.2v-1.7V73.8z M68.8,74.5l0.3-0.1
						v1.7v0.2H69h-2.4h-0.2v-0.2V61.3v-0.2h0.2H69h0.2v0.2v5.8l-0.3-0.1c1-1.4,2.2-2.1,3.8-2.1c2.5,0,5.1,2,5.1,5.7v0
						c0,3.7-2.6,5.7-5.1,5.7C71.1,76.5,69.8,75.8,68.8,74.5 M75.1,70.8L75.1,70.8c0-2.1-1.4-3.4-3-3.4c-1.7,0-3.1,1.4-3.1,3.4v0
						c0,2.1,1.5,3.4,3.1,3.4C73.7,74.2,75.1,72.9,75.1,70.8"/>
				</g>
				<g>
					<path d="M78.9,70.8L78.9,70.8c0-3.1,2.3-5.6,5.5-5.6c2,0,3.3,0.7,4.3,1.8l-1.5,1.6c-0.7-0.8-1.5-1.3-2.8-1.3
						c-1.8,0-3.1,1.5-3.1,3.4v0c0,1.9,1.3,3.4,3.2,3.4c1.1,0,2-0.6,2.8-1.3l1.5,1.4c-1,1.2-2.3,2-4.4,2
						C81.2,76.3,78.9,73.8,78.9,70.8"/>
				</g>
				<g>
					<path d="M79.1,70.8L79.1,70.8c0-3.1,2.3-5.4,5.3-5.4c1.7,0,3,0.5,4.1,1.8v-0.3L87,68.5h0.3c-0.7-0.7-1.5-1.4-2.9-1.4
						c-1.8,0-3.3,1.6-3.3,3.6v0c0,2.1,1.5,3.6,3.4,3.6c1.1,0,2-0.4,2.9-1.4h-0.3l1.5,1.5l0-0.3c-0.9,1-2,1.9-4.2,1.9
						C81.4,76.1,79.1,73.8,79.1,70.8 M84.4,76.5c2.3,0,3.6-1,4.5-2.1l0.1-0.1l-0.1-0.1l-1.5-1.5l-0.1-0.1l-0.1,0.1
						c-0.9,0.9-1.7,1.3-2.6,1.3c-1.7,0-3-1.4-3-3.2v0c0-1.8,1.3-3.2,2.9-3.2c1.2,0,2,0.6,2.6,1.3l0.1,0.1l0.1-0.1l1.5-1.6l0.1-0.1
						l-0.1-0.1c-1.2-1.3-2.5-1.9-4.4-1.9c-3.2,0-5.7,2.5-5.7,5.8v0C78.7,74,81.2,76.5,84.4,76.5"/>
				</g>
				<g>
					<path d="M93.7,70.9L93.7,70.9c0-3.2,2.4-5.8,5.7-5.8c2.1,0,3.4,0.8,4.4,1.9l-1.6,1.7c-0.8-0.8-1.6-1.4-2.8-1.4
						c-1.8,0-3.2,1.6-3.2,3.5v0c0,2,1.3,3.5,3.3,3.5c1.2,0,2-0.6,2.8-1.4l1.5,1.5c-1.1,1.2-2.4,2.1-4.5,2.1
						C96.1,76.6,93.7,74.1,93.7,70.9"/>
				</g>
				<g>
					<path d="M93.9,70.9L93.9,70.9c0-3.2,2.4-5.6,5.5-5.6c1.8,0,3.1,0.6,4.2,1.8v-0.3l-1.6,1.7l0.3,0c-0.7-0.7-1.6-1.4-3-1.4
						c-1.9,0-3.3,1.6-3.3,3.7v0c0,2.1,1.5,3.7,3.5,3.7c1.1,0,2-0.4,3-1.4l-0.3,0l1.5,1.5l0-0.3c-0.9,1-2.1,2-4.3,2
						C96.3,76.4,93.9,74,93.9,70.9 M99.4,76.8c2.4,0,3.7-1.1,4.6-2.1l0.1-0.1l-0.1-0.1l-1.5-1.5l-0.1-0.1l-0.1,0.1
						c-0.9,0.9-1.7,1.3-2.7,1.3c-1.8,0-3.1-1.4-3.1-3.3v0c0-1.9,1.3-3.3,3-3.3c1.3,0,2.1,0.6,2.7,1.3l0.1,0.1l0.1-0.1l1.6-1.7
						l0.1-0.1l-0.1-0.1c-1.2-1.3-2.6-2-4.5-2c-3.3,0-5.9,2.6-5.9,5.9v0C93.5,74.2,96.1,76.8,99.4,76.8"/>
				</g>
				<g>
					<path d="M104.6,70.9L104.6,70.9c0-3.2,2.5-5.8,5.9-5.8c3.4,0,5.8,2.6,5.8,5.7v0c0,3.1-2.5,5.7-5.9,5.7
						C107.1,76.6,104.6,74.1,104.6,70.9 M110.4,76.4c3.2,0,5.7-2.4,5.7-5.5v0c0-3.1-2.5-5.5-5.6-5.5c-3.2,0-5.7,2.4-5.7,5.5v0
						C104.8,74,107.3,76.4,110.4,76.4 M104.4,70.9L104.4,70.9c0-3.4,2.7-6,6.1-6c3.4,0,6,2.6,6,5.9v0c0,3.3-2.7,5.9-6.1,5.9
						C107.1,76.8,104.4,74.2,104.4,70.9 M113.8,70.9L113.8,70.9c0-2-1.4-3.6-3.4-3.6c-2,0-3.3,1.6-3.3,3.5v0c0,1.9,1.4,3.5,3.3,3.5
						C112.5,74.4,113.8,72.8,113.8,70.9"/>
				</g>
				<g>
					<path d="M117.7,65.4h2.5v1.7c0.7-1,1.7-1.9,3.3-1.9c1.6,0,2.7,0.8,3.3,1.9c0.9-1.2,2.1-1.9,3.7-1.9c2.4,0,3.8,1.5,3.8,4.2v7
						h-2.5v-6.2c0-1.7-0.8-2.7-2.2-2.7c-1.4,0-2.3,1-2.3,2.7v6.2h-2.5v-6.3c0-1.7-0.8-2.7-2.2-2.7c-1.4,0-2.3,1-2.3,2.7v6.2h-2.5
						V65.4z"/>
				</g>
				<g>
					<path d="M117.7,65.6h2.5l-0.2-0.2v1.7v0.6l0.4-0.5c0.6-0.9,1.5-1.8,3.2-1.8c1.4,0,2.5,0.6,3.1,1.8l0.1,0.3l0.2-0.2
						c1-1.2,2.1-1.9,3.6-1.9c2.3,0,3.6,1.5,3.6,4v7l0.2-0.2h-2.5l0.2,0.2v-6.2c0-1.8-0.9-2.9-2.4-2.9c-1.6,0-2.5,1.1-2.5,2.9v6.2
						l0.2-0.2h-2.5l0.2,0.2v-6.3c0-1.8-0.9-2.8-2.4-2.8c-1.5,0-2.5,1.2-2.5,2.9v6.2l0.2-0.2h-2.5l0.2,0.2v-11L117.7,65.6z
						 M117.7,76.6h2.5h0.2v-0.2v-6.2c0-1.6,0.8-2.6,2.2-2.6c1.3,0,2,0.9,2,2.5v6.3v0.2h0.2h2.5h0.2v-0.2v-6.2c0-1.6,0.8-2.5,2.2-2.5
						c1.7,0,2,1.4,2,2.5v6.2v0.2h0.2h2.5h0.2v-0.2v-7c0-2.8-1.5-4.4-4-4.4c-1.6,0-2.8,0.7-3.9,2l0.3,0c-0.7-1.3-1.9-2-3.4-2
						c-1.8,0-2.8,1.1-3.5,2l0.3,0.1v-1.7v-0.2h-0.2h-2.5h-0.2v0.2v11v0.2H117.7z"/>
				</g>
				<g>
					<path d="M93,75.3c0,0.8-0.6,1.5-1.4,1.5c-0.8,0-1.4-0.7-1.4-1.5c0-0.8,0.6-1.5,1.4-1.5C92.4,73.9,93,74.5,93,75.3"/>
				</g>
			</g>
		</g>
	</g>
</g>
</svg>
