<?xml version="1.0" encoding="utf-8"?>
<!-- Generator: Adobe Illustrator 18.0.0, SVG Export Plug-In . SVG Version: 6.00 Build 0)  -->
<!DOCTYPE svg PUBLIC "-//W3C//DTD SVG 1.1//EN" "http://www.w3.org/Graphics/SVG/1.1/DTD/svg11.dtd">
<svg version="1.1" id="Layer_1" xmlns="http://www.w3.org/2000/svg" xmlns:xlink="http://www.w3.org/1999/xlink" x="0px" y="0px"
	 viewBox="0 0 140 140" enable-background="new 0 0 140 140" xml:space="preserve">
<g>
	<g>
		<g>
			<path d="M41.2,83.9c-3.4,0-5.9-2.5-5.9-5.7v0c0-3.1,2.5-5.7,5.9-5.7c3.4,0,5.9,2.5,5.9,5.7v0C47.1,81.3,44.6,83.9,41.2,83.9z
				 M44.6,78.1c0-1.9-1.4-3.5-3.4-3.5c-2,0-3.3,1.5-3.3,3.4v0c0,1.9,1.4,3.5,3.4,3.5C43.2,81.6,44.6,80.1,44.6,78.1L44.6,78.1z"/>
		</g>
		<g>
			<path d="M55.7,83.7h-5.3V72.6h5.1c2.3,0,3.7,1.1,3.7,2.9v0c0,1.2-0.7,1.9-1.5,2.4c1.3,0.5,2.1,1.2,2.1,2.7v0
				C59.9,82.7,58.2,83.7,55.7,83.7z M56.8,75.9c0-0.7-0.6-1.1-1.6-1.1h-2.4v2.3h2.2C56.1,77.1,56.8,76.7,56.8,75.9L56.8,75.9z
				 M57.4,80.3c0-0.7-0.6-1.2-1.8-1.2h-2.8v2.4h2.9C56.8,81.5,57.4,81.1,57.4,80.3L57.4,80.3z"/>
		</g>
		<g>
			<path d="M71.3,83.7l-1-2.5h-4.7l-1,2.5h-2.5l4.7-11.1h2.2l4.7,11.1H71.3z M67.9,75.4L66.4,79h2.9L67.9,75.4z"/>
		</g>
		<g>
			<path d="M85.3,83.7v-7.2l-3.1,4.7h-0.1l-3.1-4.7v7.2h-2.4V72.6h2.6l2.9,4.7l2.9-4.7h2.6v11.1H85.3z"/>
		</g>
		<g>
			<path d="M99.8,83.7l-1-2.5h-4.7l-1,2.5h-2.5l4.7-11.1h2.2l4.7,11.1H99.8z M96.5,75.4L95,79h2.9L96.5,75.4z"/>
		</g>
	</g>
	<g>
		<g>
			<path d="M43.9,106.5l-1.2-2.6h-5.4l-1.2,2.6h-0.7l4.3-9.3h0.7l4.3,9.3H43.9z M40,98l-2.4,5.3h4.9L40,98z"/>
		</g>
		<g>
			<path d="M55.3,106.5v-8l-3.6,5.3h-0.1L48,98.5v8h-0.7v-9.2H48l3.7,5.5l3.7-5.5H56v9.2H55.3z"/>
		</g>
		<g>
			<path d="M59.4,106.5v-9.2H66v0.6h-5.9v3.6h5.3v0.6h-5.3v3.7h5.9v0.6H59.4z"/>
		</g>
		<g>
			<path d="M75.6,106.5l-2.9-3.8h-3v3.8H69v-9.2h3.9c2,0,3.3,1.1,3.3,2.6v0c0,1.5-1.1,2.4-2.7,2.6l3,3.9H75.6z M75.5,100
				c0-1.2-1-2-2.6-2h-3.1v4.1h3.1C74.3,102.1,75.5,101.3,75.5,100L75.5,100z"/>
		</g>
		<g>
			<path d="M79.3,106.5v-9.2H80v9.2H79.3z"/>
		</g>
		<g>
			<path d="M87.7,106.7c-2.6,0-4.6-2.1-4.6-4.7v0c0-2.6,1.9-4.8,4.6-4.8c1.6,0,2.6,0.6,3.6,1.5l-0.5,0.5c-0.8-0.8-1.7-1.4-3.1-1.4
				c-2.2,0-3.9,1.8-3.9,4.1v0c0,2.3,1.7,4.1,3.9,4.1c1.3,0,2.2-0.5,3.2-1.4l0.5,0.4C90.4,106,89.3,106.7,87.7,106.7z"/>
		</g>
		<g>
			<path d="M101.6,106.5l-1.2-2.6H95l-1.2,2.6h-0.7l4.3-9.3h0.7l4.3,9.3H101.6z M97.7,98l-2.4,5.3h4.9L97.7,98z"/>
		</g>
	</g>
	<g>
		<g>
			<g>
				<rect x="34.6" y="89.8" width="26.4" height="0.4"/>
			</g>
		</g>
		<g>
			<g>
				<rect x="76.8" y="89.8" width="26.4" height="0.4"/>
			</g>
		</g>
		<g>
			<g>
				<path d="M63.6,88.8v0.8h1.8v0.7h-1.8v1.4h-0.8v-3.7h2.8v0.7H63.6z"/>
			</g>
			<g>
				<path d="M68.7,91.9c-1.1,0-2-0.8-2-1.9v0c0-1,0.8-1.9,2-1.9c1.1,0,2,0.8,2,1.9v0C70.7,91,69.8,91.9,68.7,91.9z M69.8,89.9
					c0-0.6-0.5-1.2-1.1-1.2s-1.1,0.5-1.1,1.1v0c0,0.6,0.5,1.2,1.1,1.2S69.8,90.6,69.8,89.9L69.8,89.9z"/>
			</g>
			<g>
				<path d="M74.3,91.8l-0.8-1.2h-0.6v1.2H72v-3.7h1.7c0.9,0,1.4,0.5,1.4,1.2v0c0,0.6-0.3,1-0.8,1.1l0.9,1.3H74.3z M74.3,89.4
					c0-0.3-0.2-0.5-0.6-0.5h-0.8v1.1h0.8C74.1,89.9,74.3,89.7,74.3,89.4L74.3,89.4z"/>
			</g>
		</g>
	</g>
	<g>
		<g>
			<path d="M86,48.4c0,0.9-0.2,2-0.3,2.8c-2-0.8-4.1-1.5-6.3-2c0-0.3,0-0.5,0-0.8c0-5.8-4.7-10.6-10.6-10.6
				c-5.9,0-10.6,4.8-10.6,10.6c0,0.4,0,0.8,0.1,1.3c-2.8,0.7-4.9,1.6-6.2,2.2c-0.2-1.2-0.4-2.3-0.4-3.4c0-9.4,7.7-17.1,17.1-17.1
				C78.3,31.3,86,38.9,86,48.4z"/>
		</g>
		<g>
			<path d="M83.6,57.6c0.4-0.6,0.7-1.3,1-2c-15.6-3.3-27.3,3.3-28.8,4.3c1,1.2,2.2,2.3,3.5,3.2C69.2,55.5,83.6,57.6,83.6,57.6
				C83.6,57.6,83.6,57.6,83.6,57.6z"/>
		</g>
		<g>
			<path d="M85.5,52.8c-15.7-6.4-29.5-0.9-33,0.7c0.4,1.4,0.9,2.7,1.6,4c12.8-7,28.3-3.7,30.9-3C85.2,53.9,85.3,53.4,85.5,52.8z"/>
		</g>
		<g>
			<path d="M68.9,66.1c5.3,0,10-2.4,13.1-6.2c-10.5-0.3-16.9,4.7-17.9,5.5C65.6,65.9,67.2,66.1,68.9,66.1z"/>
		</g>
	</g>
</g>
</svg>
