<?xml version="1.0" encoding="utf-8"?>
<!-- Generator: Adobe Illustrator 18.0.0, SVG Export Plug-In . SVG Version: 6.00 Build 0)  -->
<!DOCTYPE svg PUBLIC "-//W3C//DTD SVG 1.1//EN" "http://www.w3.org/Graphics/SVG/1.1/DTD/svg11.dtd">
<svg version="1.1" id="Layer_1" xmlns="http://www.w3.org/2000/svg" xmlns:xlink="http://www.w3.org/1999/xlink" x="0px" y="0px"
	 viewBox="0 0 140 140" enable-background="new 0 0 140 140" xml:space="preserve">
<g>
	<g>
		<g>
			<g>
				<path fill-rule="evenodd" clip-rule="evenodd" d="M96.5,50.8l-1.4,5.6h-0.6c-0.1-2.1-0.5-2.2-1.3-3.1c-0.8-0.9-1.9-1.4-3.3-1.4
					c-1.5,0-2.9,0.6-4.4,1.7c-1.5,1.1-2.7,2.9-3.7,5.2c-1,2.3-1.5,4.8-1.5,7.4c0,2.2,0.5,3.9,1.4,5.1c0.9,1.2,2,1.7,3.2,1.7
					c0.5,0,1.1-0.2,1.9-0.5l1.6-6c0.3-1,0.4-1.7,0.4-2c0-0.4-0.2-0.7-0.5-1c-0.3-0.3-0.2-0.4-1-0.4l0.2-0.6H95l-0.1,0.6
					c-0.5,0.2-0.3,0.1-0.6,0.3c-0.3,0.2-0.5,0.4-0.7,0.8c-0.1,0.2-0.3,0.8-0.5,1.6l-1.9,6.9c-2.1,0.9-4.4,1.3-6.7,1.3
					c-1.8,0-3.4-0.4-4.6-1.1c-1.3-0.7-2.3-1.9-3.2-3.4c-0.8-1.6-1.2-3.3-1.2-5.3c0-4.3,1.7-7.8,5.2-10.5c2.7-2.1,5.8-3.2,9.2-3.2
					c0.6,0,1.1,0,1.7,0.1c0.4,0.1,1,0.2,2,0.5c0.6,0.2,1,0.2,1.2,0.2c0.4,0,0.8,0,1.2-0.6H96.5z"/>
			</g>
		</g>
		<g>
			<path fill-rule="evenodd" clip-rule="evenodd" d="M64.8,64.4c-0.1-0.4-0.1-0.8-0.1-1.2c0-0.4,0-0.7,0-1c0-1.6,0.5-3,1.5-4.1
				c1-1.1,2.2-1.6,3.6-1.6c0.9,0,1.6,0.3,2.1,0.8c0.5,0.5,0.8,1.1,0.8,1.8c0,0.9-0.3,1.6-0.8,2.3c-0.8,1-2,1.8-3.8,2.5
				c0.6,1.8,0.9,2.9,1.1,3.4c0.2,0.5,0.5,1.1,0.8,1.7c0.5-0.5,0.8-1,1-1.5c0.2-0.5,0.3-0.9,0.3-1.2c0-0.3-0.1-0.5-0.2-0.7
				c-0.2-0.2-0.4-0.3-0.8-0.4l0.1-0.4h4.7l-0.2,0.4c-0.4,0.1-0.8,0.3-1.1,0.5c-0.3,0.3-0.9,0.9-1.7,2c-0.6,0.8-1.2,1.5-1.7,2.1
				c0.7,0.9,1.3,1.5,1.8,1.9c0.3,0.2,0.7,0.3,1.2,0.3c0.3,0,0.5,0,0.7-0.1c0.2-0.1,0.4-0.2,0.7-0.5h0.4c-0.4,0.8-0.9,1.5-1.6,1.9
				c-0.7,0.4-1.4,0.6-2.2,0.6c-0.7,0-1.3-0.1-1.9-0.4c-0.6-0.3-1.1-0.8-1.8-1.4c-0.8,0.6-1.7,1.1-2.6,1.4c-0.9,0.3-1.7,0.5-2.6,0.5
				c-1.3,0-2.3-0.4-3-1.1c-0.8-0.7-1.1-1.5-1.1-2.5c0-0.8,0.2-1.4,0.5-2c0.3-0.6,0.9-1.2,1.8-1.9C61.8,65.9,63.1,65.1,64.8,64.4z
				 M67.9,62.9c0.7-0.5,1.2-1,1.5-1.5c0.4-0.7,0.7-1.4,0.7-2.2c0-0.6-0.1-1.1-0.4-1.4c-0.2-0.2-0.4-0.4-0.8-0.4
				c-0.4,0-0.7,0.1-0.9,0.4c-0.3,0.4-0.5,1.1-0.5,2.1c0,0.4,0,0.9,0.1,1.4C67.7,61.8,67.8,62.4,67.9,62.9z M65,65.3
				c-0.9,0.5-1.6,1.1-2,1.6c-0.4,0.6-0.6,1.2-0.6,2c0,0.9,0.3,1.7,0.9,2.4c0.6,0.6,1.3,1,2,1c0.3,0,0.7-0.1,1-0.2
				c0.4-0.1,0.8-0.3,1.2-0.6c-0.5-0.8-1-1.7-1.5-2.9C65.5,67.4,65.2,66.4,65,65.3z"/>
		</g>
		<g>
			<path fill-rule="evenodd" clip-rule="evenodd" d="M52.5,63.4l-1.9,6.5c-0.3,0.9-0.4,1.6-0.4,2c0,0.5,0.2,0.9,0.5,1.2
				c0.3,0.3,0,0.1,0.9,0.4l-0.2,0.6h-8.5l0.2-0.6c0.5-0.2,0.2-0.1,0.6-0.3c0.4-0.2,0.7-0.5,1-0.9c0.2-0.3,0.5-1.1,0.9-2.4L49.8,55
				c0.3-1,0.4-1.7,0.4-2.1c0-0.4-0.2-0.8-0.6-1.1c-0.4-0.3,0.1,0.1-0.6-0.5l0-0.6h7.9c2.5,0,4.4,0.3,5.5,1c1.7,1,2.6,2.5,2.6,4.6
				c0,2-0.9,3.7-2.6,5.2c-1.7,1.5-4,2.2-6.9,2.2C54.8,63.6,53.7,63.6,52.5,63.4z M52.8,62c0.7,0.1,1.4,0.1,1.9,0.1
				c1.6,0,2.8-0.7,3.7-2.2c0.9-1.5,1.4-3,1.4-4.5c0-1.1-0.3-1.9-0.9-2.5c-0.6-0.6-1.4-0.9-2.4-0.9c-0.2,0-0.5,0-0.8,0L52.8,62z"/>
		</g>
	</g>
	<g>
		<g>
			<path fill-rule="evenodd" clip-rule="evenodd" d="M27.8,83.6l-0.6,2.2c-0.1,0.3-0.1,0.5-0.1,0.7c0,0.2,0.1,0.3,0.2,0.4
				c0.1,0.1,0.4,0.1,0.8,0.1l-0.1,0.2H24l0.1-0.2c0.3,0,0.6,0,0.7-0.1c0.1-0.1,0.2-0.2,0.3-0.3c0.1-0.1,0.2-0.4,0.3-0.8l1.5-5
				c0.1-0.3,0.2-0.6,0.2-0.7c0-0.1-0.1-0.3-0.2-0.4c-0.1-0.1-0.4-0.2-0.7-0.2l0.1-0.2h3.1c0.9,0,1.5,0.1,1.9,0.3
				c0.6,0.3,0.9,0.9,0.9,1.5c0,0.7-0.3,1.2-0.9,1.8c-0.6,0.5-1.4,0.8-2.4,0.8C28.6,83.7,28.2,83.6,27.8,83.6z M27.9,83.1
				c0.3,0,0.5,0,0.6,0c0.5,0,1-0.2,1.3-0.7c0.3-0.5,0.5-1,0.5-1.5c0-0.4-0.1-0.6-0.3-0.8c-0.2-0.2-0.5-0.3-0.8-0.3
				c-0.1,0-0.2,0-0.3,0L27.9,83.1z"/>
		</g>
		<g>
			<path fill-rule="evenodd" clip-rule="evenodd" d="M34.6,81.8l-0.9,3.3c0.7-1.6,1.3-2.6,1.6-3c0.2-0.2,0.4-0.3,0.7-0.3
				c0.2,0,0.3,0.1,0.4,0.2c0.1,0.1,0.2,0.3,0.2,0.5c0,0.4-0.1,0.7-0.3,1c-0.1,0.2-0.2,0.2-0.4,0.2c-0.2,0-0.3-0.1-0.4-0.2
				c-0.1-0.1-0.1-0.2-0.2-0.3c0,0-0.1,0-0.1,0c0,0-0.1,0-0.1,0c-0.1,0-0.2,0.2-0.3,0.3c-0.1,0.2-0.3,0.5-0.5,0.9
				c-0.2,0.4-0.4,0.8-0.5,1.1c-0.1,0.3-0.3,0.9-0.5,1.7h-1.4l1-3.9C33,83,33,82.9,33,82.8c0-0.1,0-0.2-0.1-0.2
				c0-0.1-0.1-0.1-0.2-0.1c-0.1,0-0.2,0-0.4,0l0.1-0.2l1.8-0.4H34.6z"/>
		</g>
		<g>
			<path fill-rule="evenodd" clip-rule="evenodd" d="M40.3,81.8c0.3,0,0.6,0.1,0.9,0.2c0.3,0.1,0.5,0.3,0.6,0.6
				c0.1,0.3,0.2,0.5,0.2,0.8c0,0.6-0.2,1.3-0.5,1.9c-0.4,0.6-0.8,1.1-1.4,1.5c-0.6,0.4-1.2,0.5-1.7,0.5c-0.5,0-0.9-0.2-1.2-0.5
				c-0.3-0.3-0.4-0.7-0.4-1.2c0-0.5,0.1-1,0.3-1.5c0.2-0.5,0.5-0.9,0.8-1.2c0.3-0.4,0.7-0.6,1.2-0.9C39.4,81.9,39.9,81.8,40.3,81.8z
				 M40.1,82.1c-0.2,0-0.4,0.1-0.5,0.2c-0.3,0.2-0.6,0.8-0.9,1.7c-0.3,0.9-0.5,1.7-0.5,2.4c0,0.2,0.1,0.3,0.2,0.4
				c0.1,0.1,0.2,0.2,0.4,0.2c0.2,0,0.3,0,0.4-0.1c0.2-0.1,0.4-0.5,0.6-0.9c0.2-0.5,0.5-1,0.6-1.6c0.2-0.6,0.2-1.1,0.2-1.6
				c0-0.2,0-0.4-0.1-0.5C40.3,82.2,40.2,82.1,40.1,82.1z"/>
		</g>
		<g>
			<path fill-rule="evenodd" clip-rule="evenodd" d="M46.9,85.8l0.2,0.2c-0.4,0.5-0.8,0.8-1.1,1c-0.5,0.3-1,0.4-1.5,0.4
				c-0.4,0-0.7-0.1-0.9-0.2c-0.3-0.2-0.5-0.4-0.6-0.6c-0.1-0.3-0.2-0.6-0.2-0.8c0-0.6,0.2-1.3,0.5-1.9c0.3-0.6,0.8-1.1,1.4-1.5
				c0.6-0.4,1.1-0.5,1.7-0.5c0.4,0,0.8,0.1,1,0.3c0.2,0.2,0.3,0.4,0.3,0.7c0,0.3-0.1,0.5-0.3,0.7c-0.2,0.2-0.4,0.3-0.6,0.3
				c-0.2,0-0.3-0.1-0.5-0.2c-0.1-0.1-0.2-0.3-0.2-0.4c0-0.2,0.1-0.4,0.3-0.6c0.1-0.1,0.2-0.2,0.2-0.3c0-0.1,0-0.1-0.1-0.2
				c-0.1-0.1-0.2-0.1-0.3-0.1c-0.3,0-0.6,0.1-0.9,0.4c-0.4,0.4-0.7,0.8-0.9,1.3c-0.2,0.5-0.3,1-0.3,1.5c0,0.4,0.1,0.7,0.3,0.9
				c0.2,0.2,0.5,0.3,0.7,0.3c0.2,0,0.5-0.1,0.8-0.2C46.3,86.3,46.6,86.1,46.9,85.8z"/>
		</g>
		<g>
			<path fill-rule="evenodd" clip-rule="evenodd" d="M51.1,80.4L50.7,82h0.8l-0.2,0.7h-0.8l-1,3.4c-0.1,0.2-0.1,0.4-0.1,0.5
				c0,0.1,0,0.1,0.1,0.1c0,0,0.1,0.1,0.1,0.1c0.1,0,0.1,0,0.2-0.1c0.2-0.1,0.4-0.4,0.6-0.7l0.2,0.1c-0.3,0.5-0.6,0.8-0.9,1
				c-0.3,0.2-0.6,0.3-1,0.3c-0.3,0-0.5-0.1-0.6-0.2c-0.1-0.1-0.2-0.3-0.2-0.5c0-0.2,0.1-0.5,0.2-0.9l0.9-3.2h-0.8l0.1-0.4
				c0.5-0.2,0.9-0.4,1.3-0.6c0.3-0.2,0.8-0.6,1.2-1.2H51.1z"/>
		</g>
		<g>
			<path fill-rule="evenodd" clip-rule="evenodd" d="M52.9,85c0,0.3-0.1,0.5-0.1,0.6c0,0.3,0.1,0.5,0.3,0.7c0.2,0.2,0.4,0.3,0.7,0.3
				c0.3,0,0.5-0.1,0.8-0.2c0.3-0.1,0.6-0.4,1-0.7l0.2,0.2c-0.4,0.5-0.9,0.9-1.3,1.2c-0.4,0.2-0.9,0.3-1.4,0.3
				c-0.7,0-1.1-0.2-1.4-0.5c-0.2-0.3-0.4-0.7-0.4-1.1c0-0.6,0.2-1.3,0.6-1.9c0.4-0.6,0.9-1.2,1.5-1.5c0.6-0.4,1.3-0.6,1.9-0.6
				c0.3,0,0.6,0.1,0.7,0.2c0.2,0.2,0.3,0.4,0.3,0.6c0,0.3-0.1,0.6-0.2,0.8c-0.2,0.4-0.5,0.7-0.9,0.9c-0.3,0.2-0.7,0.4-1.2,0.5
				C53.8,84.9,53.4,85,52.9,85z M53,84.7c0.3-0.1,0.6-0.1,0.8-0.2c0.2-0.1,0.4-0.2,0.6-0.4c0.2-0.2,0.3-0.4,0.5-0.7
				c0.1-0.3,0.2-0.6,0.2-0.8c0-0.1,0-0.2-0.1-0.3c-0.1-0.1-0.1-0.1-0.2-0.1c-0.2,0-0.4,0.1-0.6,0.4C53.6,83,53.2,83.8,53,84.7z"/>
		</g>
		<g>
			<path fill-rule="evenodd" clip-rule="evenodd" d="M59.2,81.8l-0.9,3.3c0.7-1.6,1.3-2.6,1.6-3c0.2-0.2,0.4-0.3,0.7-0.3
				c0.2,0,0.3,0.1,0.4,0.2c0.1,0.1,0.2,0.3,0.2,0.5c0,0.4-0.1,0.7-0.3,1c-0.1,0.2-0.2,0.2-0.4,0.2c-0.2,0-0.3-0.1-0.4-0.2
				c-0.1-0.1-0.1-0.2-0.2-0.3c0,0-0.1,0-0.1,0c0,0-0.1,0-0.1,0c-0.1,0-0.2,0.2-0.3,0.3c-0.1,0.2-0.3,0.5-0.5,0.9
				c-0.2,0.4-0.4,0.8-0.5,1.1c-0.1,0.3-0.3,0.9-0.5,1.7h-1.4l1-3.9c0.1-0.3,0.1-0.5,0.1-0.6c0-0.1,0-0.2-0.1-0.2
				c0-0.1-0.1-0.1-0.2-0.1c-0.1,0-0.2,0-0.4,0l0.1-0.2l1.8-0.4H59.2z"/>
		</g>
		<g>
			<path fill-rule="evenodd" clip-rule="evenodd" d="M67.5,82.8c0-0.2,0-0.4-0.1-0.6c0-0.2,0-0.3,0-0.5c0-0.8,0.2-1.4,0.7-1.9
				c0.5-0.5,1.1-0.8,1.7-0.8c0.4,0,0.8,0.1,1,0.4c0.3,0.2,0.4,0.5,0.4,0.9c0,0.4-0.1,0.8-0.4,1.1c-0.4,0.5-1,0.9-1.8,1.2
				c0.3,0.8,0.4,1.4,0.5,1.6c0.1,0.2,0.2,0.5,0.4,0.8c0.2-0.2,0.4-0.5,0.5-0.7c0.1-0.2,0.1-0.4,0.1-0.6c0-0.1,0-0.2-0.1-0.3
				c-0.1-0.1-0.2-0.2-0.4-0.2l0.1-0.2h2.2l-0.1,0.2c-0.2,0.1-0.4,0.1-0.5,0.3c-0.1,0.1-0.4,0.4-0.8,1c-0.3,0.4-0.6,0.7-0.8,1
				c0.3,0.4,0.6,0.7,0.9,0.9c0.2,0.1,0.4,0.2,0.6,0.2c0.1,0,0.2,0,0.3-0.1c0.1,0,0.2-0.1,0.3-0.2h0.2c-0.2,0.4-0.4,0.7-0.7,0.9
				c-0.3,0.2-0.7,0.3-1,0.3c-0.3,0-0.6-0.1-0.9-0.2c-0.3-0.1-0.5-0.4-0.8-0.7c-0.4,0.3-0.8,0.5-1.2,0.6c-0.4,0.1-0.8,0.2-1.2,0.2
				c-0.6,0-1.1-0.2-1.4-0.5c-0.4-0.3-0.5-0.7-0.5-1.2c0-0.4,0.1-0.7,0.2-1c0.2-0.3,0.4-0.6,0.9-0.9C66.1,83.5,66.7,83.2,67.5,82.8z
				 M69,82.1c0.3-0.2,0.6-0.5,0.7-0.7c0.2-0.3,0.3-0.7,0.3-1.1c0-0.3-0.1-0.5-0.2-0.6c-0.1-0.1-0.2-0.2-0.4-0.2
				c-0.2,0-0.3,0.1-0.4,0.2c-0.1,0.2-0.2,0.5-0.2,1c0,0.2,0,0.4,0,0.6C68.9,81.6,68.9,81.9,69,82.1z M67.6,83.3
				c-0.4,0.2-0.8,0.5-1,0.8c-0.2,0.3-0.3,0.6-0.3,0.9c0,0.4,0.1,0.8,0.4,1.1c0.3,0.3,0.6,0.5,0.9,0.5c0.1,0,0.3,0,0.5-0.1
				c0.2-0.1,0.4-0.2,0.6-0.3c-0.2-0.4-0.5-0.8-0.7-1.4C67.8,84.3,67.7,83.8,67.6,83.3z"/>
		</g>
		<g>
			<path fill-rule="evenodd" clip-rule="evenodd" d="M85.3,79.1l-0.6,2.5h-0.2c0-0.7-0.2-1.3-0.5-1.6c-0.3-0.3-0.7-0.5-1.3-0.5
				c-0.6,0-1.1,0.2-1.7,0.6c-0.6,0.4-1,1-1.4,1.8c-0.4,0.8-0.6,1.7-0.6,2.6c0,0.8,0.2,1.4,0.5,1.8c0.4,0.4,0.8,0.6,1.2,0.6
				c0.2,0,0.4-0.1,0.7-0.2l0.6-2.1c0.1-0.4,0.2-0.6,0.2-0.7c0-0.1-0.1-0.3-0.2-0.4c-0.1-0.1-0.3-0.2-0.6-0.2l0.1-0.2h3.4l-0.1,0.2
				c-0.2,0-0.4,0.1-0.5,0.1c-0.1,0.1-0.2,0.2-0.3,0.3c0,0.1-0.1,0.3-0.2,0.6l-0.7,2.4c-0.8,0.3-1.7,0.5-2.6,0.5
				c-0.7,0-1.3-0.1-1.8-0.4c-0.5-0.3-0.9-0.7-1.2-1.2c-0.3-0.6-0.5-1.2-0.5-1.9c0-1.5,0.7-2.7,2-3.7c1-0.8,2.2-1.1,3.5-1.1
				c0.2,0,0.4,0,0.6,0c0.1,0,0.4,0.1,0.8,0.2c0.2,0.1,0.4,0.1,0.5,0.1c0.2,0,0.3-0.1,0.5-0.3H85.3z"/>
		</g>
		<g>
			<path fill-rule="evenodd" clip-rule="evenodd" d="M90.7,81.9l-1.1,3.9l-0.1,0.5c0,0.1,0,0.1,0,0.1c0,0,0,0.1,0,0.1
				c0,0,0.1,0.1,0.1,0.1c0.1,0,0.2-0.1,0.3-0.2c0.1-0.1,0.2-0.2,0.4-0.5l0.2,0.1c-0.3,0.5-0.6,0.9-0.9,1.1c-0.3,0.2-0.6,0.3-1,0.3
				c-0.2,0-0.4-0.1-0.5-0.2C88,87.1,88,86.9,88,86.8c0-0.2,0.1-0.4,0.2-0.8l0.1-0.5c-0.5,0.8-0.9,1.3-1.3,1.7
				c-0.2,0.2-0.5,0.3-0.8,0.3c-0.4,0-0.6-0.1-0.8-0.4c-0.2-0.3-0.2-0.6-0.2-1c0-0.6,0.2-1.2,0.5-1.9c0.3-0.7,0.8-1.3,1.3-1.7
				c0.4-0.4,0.9-0.5,1.3-0.5c0.2,0,0.4,0.1,0.5,0.2c0.1,0.1,0.2,0.4,0.3,0.7l0.2-0.7L90.7,81.9z M88.9,83c0-0.3,0-0.5-0.1-0.7
				c-0.1-0.1-0.2-0.1-0.3-0.1s-0.2,0.1-0.4,0.2c-0.3,0.2-0.5,0.7-0.8,1.5c-0.3,0.7-0.5,1.4-0.5,1.9c0,0.2,0,0.4,0.1,0.5
				c0.1,0.1,0.1,0.1,0.2,0.1c0.2,0,0.4-0.1,0.5-0.3c0.3-0.3,0.5-0.6,0.7-1.1C88.7,84.2,88.9,83.6,88.9,83z"/>
		</g>
		<g>
			<path fill-rule="evenodd" clip-rule="evenodd" d="M94.2,81.8l-0.7,2.5c0.5-0.8,0.9-1.3,1.1-1.6c0.3-0.4,0.6-0.7,0.8-0.8
				c0.2-0.1,0.4-0.2,0.7-0.2c0.3,0,0.4,0.1,0.6,0.2c0.1,0.2,0.2,0.3,0.2,0.5c0,0.2-0.1,0.5-0.2,0.8l-0.3,0.9
				c0.5-0.8,0.9-1.3,1.1-1.6c0.3-0.4,0.6-0.7,0.9-0.8c0.2-0.1,0.4-0.2,0.6-0.2c0.2,0,0.4,0.1,0.5,0.2c0.1,0.1,0.2,0.3,0.2,0.5
				c0,0.2-0.1,0.6-0.2,1l-0.6,2.2c-0.1,0.3-0.1,0.5-0.1,0.6c0,0,0,0.1,0,0.1c0,0,0.1,0,0.1,0c0,0,0.1,0,0.1,0
				c0.1-0.1,0.3-0.3,0.4-0.5c0,0,0.1-0.1,0.2-0.2l0.2,0.1c-0.3,0.5-0.6,0.9-0.9,1.1c-0.3,0.2-0.6,0.4-0.9,0.4
				c-0.2,0-0.4-0.1-0.6-0.2c-0.1-0.1-0.2-0.3-0.2-0.5c0-0.2,0-0.4,0.1-0.8l0.7-2.3C98,83.3,98,83.1,98,83c0,0,0-0.1,0-0.1
				c0,0-0.1,0-0.1,0c-0.1,0-0.1,0-0.2,0c-0.1,0-0.2,0.1-0.3,0.3c-0.2,0.2-0.4,0.5-0.7,0.9c-0.3,0.4-0.5,0.8-0.6,1
				c-0.1,0.2-0.2,0.5-0.3,0.9l-0.4,1.2H94l1.1-3.8c0.1-0.2,0.1-0.3,0.1-0.4c0,0,0-0.1,0-0.1c0,0,0,0-0.1,0c-0.1,0-0.4,0.2-0.7,0.6
				c-0.5,0.6-0.9,1.3-1.3,2.1l-0.5,1.7h-1.5l1.1-3.8c0.1-0.4,0.2-0.6,0.2-0.8c0-0.1,0-0.1,0-0.2c0,0-0.1-0.1-0.2-0.1
				c-0.1,0-0.2,0-0.4,0l0.1-0.2l2-0.3H94.2z"/>
		</g>
		<g>
			<path fill-rule="evenodd" clip-rule="evenodd" d="M104.1,79.1l-1,3.5c0.3-0.3,0.6-0.6,0.8-0.7c0.2-0.1,0.4-0.2,0.7-0.2
				c0.5,0,0.8,0.2,1,0.5c0.2,0.3,0.4,0.7,0.4,1.2c0,1.1-0.4,2-1.1,2.8c-0.7,0.7-1.5,1.1-2.3,1.1c-0.6,0-1.3-0.2-2-0.6l1.8-6.2
				c0.1-0.3,0.1-0.5,0.1-0.6c0-0.1,0-0.2-0.1-0.2c-0.1-0.1-0.3-0.1-0.5-0.1l0.1-0.2l2-0.3H104.1z M101.8,86.9
				c0.2,0.1,0.3,0.2,0.5,0.2c0.2,0,0.4,0,0.5-0.1c0.2-0.1,0.5-0.4,0.7-0.7c0.2-0.3,0.5-0.8,0.6-1.3c0.2-0.5,0.2-1,0.2-1.5
				c0-0.3-0.1-0.5-0.2-0.6c-0.1-0.1-0.3-0.2-0.4-0.2c-0.3,0-0.5,0.1-0.7,0.4c-0.1,0.2-0.3,0.5-0.4,1.1L101.8,86.9z"/>
		</g>
		<g>
			<path fill-rule="evenodd" clip-rule="evenodd" d="M110.1,79.1l-1.9,6.6c-0.1,0.4-0.2,0.6-0.2,0.7c0,0.1,0,0.1,0,0.1
				c0,0,0.1,0.1,0.1,0.1c0.1,0,0.1,0,0.2-0.1c0.2-0.2,0.4-0.4,0.6-0.8l0.2,0.1c-0.4,0.6-0.7,1-1.1,1.3c-0.2,0.2-0.5,0.3-0.8,0.3
				c-0.3,0-0.5-0.1-0.6-0.2c-0.2-0.1-0.2-0.3-0.2-0.5c0-0.1,0-0.4,0.1-0.7l1.6-5.4c0.1-0.3,0.1-0.5,0.1-0.6c0-0.1,0-0.2-0.1-0.2
				c-0.1-0.1-0.3-0.1-0.5-0.1l0.1-0.2l2-0.3H110.1z"/>
		</g>
		<g>
			<path fill-rule="evenodd" clip-rule="evenodd" d="M111.5,85c0,0.3-0.1,0.5-0.1,0.6c0,0.3,0.1,0.5,0.3,0.7
				c0.2,0.2,0.4,0.3,0.7,0.3c0.3,0,0.5-0.1,0.8-0.2c0.3-0.1,0.6-0.4,1-0.7l0.2,0.2c-0.4,0.5-0.9,0.9-1.3,1.2
				c-0.4,0.2-0.9,0.3-1.4,0.3c-0.7,0-1.1-0.2-1.4-0.5c-0.2-0.3-0.4-0.7-0.4-1.1c0-0.6,0.2-1.3,0.6-1.9c0.4-0.6,0.9-1.2,1.5-1.5
				c0.6-0.4,1.3-0.6,1.9-0.6c0.3,0,0.6,0.1,0.7,0.2c0.2,0.2,0.3,0.4,0.3,0.6c0,0.3-0.1,0.6-0.2,0.8c-0.2,0.4-0.5,0.7-0.9,0.9
				c-0.3,0.2-0.7,0.4-1.2,0.5C112.4,84.9,112,85,111.5,85z M111.6,84.7c0.3-0.1,0.6-0.1,0.8-0.2c0.2-0.1,0.4-0.2,0.6-0.4
				c0.2-0.2,0.3-0.4,0.5-0.7c0.1-0.3,0.2-0.6,0.2-0.8c0-0.1,0-0.2-0.1-0.3c-0.1-0.1-0.1-0.1-0.2-0.1c-0.2,0-0.4,0.1-0.6,0.4
				C112.2,83,111.8,83.8,111.6,84.7z"/>
		</g>
	</g>
</g>
</svg>
