<?xml version="1.0" encoding="utf-8"?>
<!-- Generator: Adobe Illustrator 18.0.0, SVG Export Plug-In . SVG Version: 6.00 Build 0)  -->
<!DOCTYPE svg PUBLIC "-//W3C//DTD SVG 1.1//EN" "http://www.w3.org/Graphics/SVG/1.1/DTD/svg11.dtd">
<svg version="1.1" id="Layer_1" xmlns="http://www.w3.org/2000/svg" xmlns:xlink="http://www.w3.org/1999/xlink" x="0px" y="0px"
	 viewBox="0 0 140 140" enable-background="new 0 0 140 140" xml:space="preserve">
<g>
	<g>
		<g>
			<g>
				<path d="M58,52.7c0.1,0,0.3,0,0.4-0.1L63,68.2l0,0c0.5,1.7,3,3,6,3s5.5-1.3,6.1-3l0,0l4.5-15.5c0.1,0,0.2,0,0.3,0
					c0.9,0,1.6-0.7,1.6-1.6c0-0.9-0.7-1.6-1.6-1.6c-0.9,0-1.6,0.7-1.6,1.6c0,0.6,0.4,1.2,0.9,1.4L74,63.9l0.8-15.2c0,0,0,0,0,0
					c0.9,0,1.6-0.7,1.6-1.6c0-0.9-0.7-1.6-1.6-1.6c-0.9,0-1.6,0.7-1.6,1.6c0,0.7,0.5,1.3,1.2,1.5l-3.5,14.9l-1.7-16.4
					c0.8-0.1,1.4-0.8,1.4-1.6c0-0.9-0.7-1.6-1.6-1.6c-0.9,0-1.6,0.7-1.6,1.6c0,0.8,0.6,1.5,1.4,1.6l-1.7,16.4l-3.5-14.9
					c0.7-0.2,1.2-0.8,1.2-1.5c0-0.9-0.7-1.6-1.6-1.6c-0.9,0-1.6,0.7-1.6,1.6c0,0.9,0.7,1.6,1.6,1.6c0,0,0,0,0,0L64,63.9l-5.3-11.3
					c0.5-0.3,0.9-0.8,0.9-1.4c0-0.9-0.7-1.6-1.6-1.6c-0.9,0-1.6,0.7-1.6,1.6C56.4,52,57.1,52.7,58,52.7z M69,66.9c2.8,0,5,0.7,5,1.6
					c0,0.9-2.2,1.6-5,1.6c-2.8,0-5-0.7-5-1.6C64,67.6,66.2,66.9,69,66.9z"/>
			</g>
			<g>
				<g>
					<path d="M51.3,77.7c-4.6,0-8.3,3.7-8.3,8.2c0,4.5,3.7,8.2,8.3,8.2c4.6,0,8.3-3.7,8.3-8.2C59.6,81.4,55.9,77.7,51.3,77.7z
						 M54.8,90.6c-0.3,0.4-0.6,0.7-1,1c-0.6,0.5-1.3,0.8-2.1,0.8c-0.1,0-0.3,0-0.4,0c-0.1,0-0.3,0-0.4,0c-0.7,0-1.4-0.3-2.1-0.8
						c-0.4-0.3-0.7-0.6-1-1c-0.9-1.2-1.4-2.9-1.4-4.7c0-1.7,0.5-3.3,1.2-4.5c0.4-0.8,1.1-1.4,1.9-1.7c0,0,0,0,0,0c0,0,0.1,0,0.1,0
						c0.1,0,0.2-0.1,0.3-0.1c0.4-0.1,0.8-0.2,1.2-0.2c0.4,0,0.8,0.1,1.2,0.2c0.1,0,0.2,0.1,0.3,0.1c0,0,0.1,0,0.1,0c0,0,0,0,0,0
						c0.8,0.4,1.5,1,1.9,1.7c0.8,1.2,1.2,2.8,1.2,4.5C56.2,87.7,55.6,89.4,54.8,90.6z"/>
				</g>
				<g>
					<path d="M76.1,87.6h-1.2v2.3c0,1.4-1.2,2.5-2.6,2.5c0,0,0,0,0,0v0h-3.5h-1.3v-13h2.2v-1.2h-2.2l0,0h-0.2h-5.6v1.2h2.2v13h-2.2
						v1.2h13.2h1H76h0.1v0h0v-3.8h0V87.6z"/>
				</g>
				<g>
					<path d="M93.6,78.3L93.6,78.3L93.6,78.3H90H78.5v1.2h2.2v13h-2.2v1.2l0,0H90h2.6h1h0.1h0h0.1v-3.8v-1.7h-1.2v1.8l0,0
						c0,1.4-1.2,2.5-2.6,2.5c0,0,0,0,0,0v0h-4.1v0h-1.5h0v-6.2V86h1.2c0,0,0,0,0,0h0.6l0,0c1,0,1.9,0.9,1.9,1.9c0,0,0,0,0,0h0v0.6
						l0,0v0.2H89v-0.2V86v0V85v0v-2.6v-0.1H88v0.7l0,0c0,0,0,0,0,0c0,1-0.8,1.8-1.9,1.8l0,0h-0.7h-0.7h-0.4v-5.5h0h3.3
						c0,0,0,0,0.1,0H90c1.4,0,2.5,1.1,2.5,2.5l0,0v1.6h1.2V82L93.6,78.3L93.6,78.3L93.6,78.3z"/>
				</g>
				<g>
					<path d="M113.5,92.5c-1.1,0-1.4-0.4-2.2-1.4l-5.1-6.3l3.3-4v0c0.9-1,1.1-1.4,2.3-1.4h0.7h0.2v-1.1h-0.2h-3.3h-0.2h-2.4h-0.2
						v1.1h0.2h1.2l0,0l0,0c0.3,0,0.5,0.2,0.5,0.5c0,0.1,0,0.2-0.1,0.3l-3,3.5l-2.3-2.9l-0.5-0.6c-0.1-0.1-0.1-0.2-0.1-0.3
						c0-0.3,0.2-0.5,0.5-0.5h1.3v-1.1h-2.4h-3.4h-1.9v1.1h0.4c1,0,1.3,0.4,2,1.3l4.5,5.6l-4,4.8v0c-0.9,1-1.1,1.4-2.3,1.4h-0.7h-0.2
						v1.1h0.2h3.8h0.2h2.1h0.2v-1.1h-0.2h-1.4v0c0,0,0,0,0,0c-0.3,0-0.5-0.2-0.5-0.5c0-0.1,0-0.2,0.1-0.3l3.6-4.3l3,3.7l0.5,0.6
						c0.1,0.1,0.1,0.2,0.1,0.3c0,0.3-0.2,0.5-0.5,0.5v0v0h-1.4v1.1h0v0h8.3v-1.1H113.5z"/>
				</g>
			</g>
		</g>
	</g>
	<g>
		<path d="M40.4,92.4l-1-2.9c-0.5-1.3-0.8-1.9-1.5-2.6c-0.5-0.4-1.2-0.6-1.7-0.8c1.9-0.3,3.3-1.9,3.3-3.9c0-2.2-1.8-3.9-3.9-3.9
			c0,0,0,0-0.1,0v0h-5.9h-3.6h-2.2v1.1h2.2v13h-2.2v1.2h5.7l0,0h2.2v-1.2h-2.2v-6.2h1.7c0.1,0,0.1,0,0.2,0h0.3c0.5,0,1,0.1,1.4,0.2
			c0.4,0.1,0.8,0.2,1.1,0.4c0.4,0.2,0.8,0.6,1.1,1.2c0.1,0.2,0.2,0.3,0.3,0.5c0.6,1.2,1,2.9,1.5,5.1h2.6l0,0h2.4v-1.2H40.4z
			 M33.3,85h-3.7v-5.6h3.7c1.6,0.1,2.9,1.2,2.9,2.8C36.1,83.8,34.9,84.9,33.3,85z"/>
	</g>
</g>
</svg>
