<?xml version="1.0" encoding="utf-8"?>
<!-- Generator: Adobe Illustrator 18.0.0, SVG Export Plug-In . SVG Version: 6.00 Build 0)  -->
<!DOCTYPE svg PUBLIC "-//W3C//DTD SVG 1.1//EN" "http://www.w3.org/Graphics/SVG/1.1/DTD/svg11.dtd">
<svg version="1.1" id="Layer_1" xmlns="http://www.w3.org/2000/svg" xmlns:xlink="http://www.w3.org/1999/xlink" x="0px" y="0px"
	 viewBox="0 0 140 140" enable-background="new 0 0 140 140" xml:space="preserve">
<g>
	<g>
		<g>
			<path d="M38,81l0.4-0.5c0.3,0.3,0.6,0.4,1,0.4c0.3,0,0.5-0.1,0.5-0.3v0c0-0.2-0.1-0.3-0.7-0.4c-0.7-0.2-1.1-0.4-1.1-1v0
				c0-0.6,0.5-1,1.2-1c0.5,0,0.9,0.2,1.3,0.4L40.1,79c-0.3-0.2-0.6-0.3-0.9-0.3s-0.4,0.1-0.4,0.3v0c0,0.2,0.1,0.3,0.7,0.4
				c0.7,0.2,1.1,0.4,1.1,1v0c0,0.7-0.5,1-1.2,1C38.9,81.5,38.4,81.3,38,81z"/>
		</g>
		<g>
			<path d="M43.6,78.1h0.7l1.4,3.4h-0.8l-0.3-0.8h-1.4l-0.3,0.8h-0.8L43.6,78.1z M44.4,80L43.9,79L43.5,80H44.4z"/>
		</g>
		<g>
			<path d="M47.8,78.8h-1v-0.7h2.8v0.7h-1v2.7h-0.7V78.8z"/>
		</g>
		<g>
			<path d="M51.4,78.1H54v0.7h-1.8v0.7h1.6v0.7h-1.6v0.7H54v0.7h-2.6V78.1z"/>
		</g>
		<g>
			<path d="M55.9,78.1h0.7v2.7h1.7v0.7h-2.4V78.1z"/>
		</g>
		<g>
			<path d="M60.1,78.1h0.7v2.7h1.7v0.7h-2.4V78.1z"/>
		</g>
		<g>
			<path d="M64.4,78.1h0.7v3.4h-0.7V78.1z"/>
		</g>
		<g>
			<path d="M68,78.8h-1v-0.7h2.8v0.7h-1v2.7H68V78.8z"/>
		</g>
		<g>
			<path d="M71.6,78.1h2.5v0.7h-1.8v0.7h1.6v0.7h-1.6v0.7h1.8v0.7h-2.6V78.1z"/>
		</g>
		<g>
			<path d="M78.7,78.1h1.5c0.4,0,0.8,0.1,1,0.3c0.2,0.2,0.3,0.5,0.3,0.8v0c0,0.5-0.3,0.9-0.7,1l0.8,1.2h-0.9l-0.7-1.1h0h-0.6v1.1
				h-0.7V78.1z M80.2,79.7c0.4,0,0.6-0.2,0.6-0.5v0c0-0.3-0.2-0.5-0.6-0.5h-0.7v1H80.2z"/>
		</g>
		<g>
			<path d="M84.6,78.1h0.7l1.4,3.4H86l-0.3-0.8h-1.4l-0.3,0.8h-0.8L84.6,78.1z M85.4,80L85,79L84.5,80H85.4z"/>
		</g>
		<g>
			<path d="M88.5,78.1h1.3c1.1,0,1.8,0.7,1.8,1.7v0c0,0.9-0.7,1.7-1.8,1.7h-1.3V78.1z M89.8,80.8c0.6,0,1-0.4,1-1v0c0-0.6-0.4-1-1-1
				h-0.6v2H89.8z"/>
		</g>
		<g>
			<path d="M93.6,78.1h0.7v3.4h-0.7V78.1z"/>
		</g>
		<g>
			<path d="M96.2,79.8L96.2,79.8c0-1,0.8-1.8,1.8-1.8c1,0,1.8,0.8,1.8,1.7v0c0,1-0.8,1.7-1.8,1.7C97,81.5,96.2,80.7,96.2,79.8z
				 M99,79.8L99,79.8c0-0.6-0.4-1.1-1-1.1c-0.6,0-1,0.5-1,1v0c0,0.6,0.4,1.1,1,1.1C98.6,80.8,99,80.4,99,79.8z"/>
		</g>
	</g>
	<g>
		<g>
			<g>
				<path d="M122.3,58.1L122.3,58.1c1.9,2.8,2.9,6,2.9,9.4c0,3.4-1,6.6-2.9,9.4c-0.3,0.5-0.2,1.1,0.3,1.5c0.5,0.3,1.1,0.2,1.5-0.3
					c2.2-3.1,3.3-6.8,3.3-10.6c0-3.8-1.1-7.5-3.3-10.6c-0.3-0.5-1-0.6-1.5-0.3C122.1,57,121.9,57.6,122.3,58.1"/>
			</g>
			<g>
				<path d="M118.9,75.5L118.9,75.5c0.5,0.4,1.1,0.3,1.5-0.2c1.7-2.2,2.6-4.9,2.6-7.7c0-2.8-0.9-5.5-2.6-7.8c-0.4-0.5-1-0.6-1.5-0.2
					c-0.5,0.4-0.6,1-0.2,1.5l0,0c1.4,1.9,2.2,4.1,2.2,6.5c0,2.3-0.7,4.6-2.1,6.5C118.3,74.5,118.4,75.1,118.9,75.5"/>
			</g>
			<g>
				<path d="M115.1,72.9L115.1,72.9c0.5,0.4,1.1,0.3,1.5-0.2c1.2-1.5,1.8-3.3,1.8-5.2c0-1.9-0.6-3.7-1.8-5.1c-0.4-0.5-1-0.5-1.5-0.2
					c-0.5,0.4-0.5,1-0.2,1.5l0,0c0.9,1.1,1.3,2.4,1.3,3.8c0,1.4-0.5,2.8-1.4,3.9l0,0C114.6,71.8,114.6,72.5,115.1,72.9"/>
			</g>
		</g>
		<g>
			<g>
				<path d="M15.5,76.9c-1.9-2.8-2.9-6-2.9-9.4c0-3.4,1-6.6,2.9-9.4c0.3-0.5,0.2-1.2-0.3-1.5c-0.5-0.3-1.1-0.2-1.5,0.3
					c-2.1,3.1-3.3,6.8-3.3,10.6c0,3.8,1.1,7.5,3.3,10.6l0,0c0.3,0.5,1,0.6,1.5,0.3C15.7,78.1,15.8,77.4,15.5,76.9
					C15.5,76.9,15.8,77.4,15.5,76.9C15.5,76.9,15.8,77.4,15.5,76.9L15.5,76.9z"/>
			</g>
			<g>
				<path d="M19.1,61.1c0.4-0.5,0.3-1.1-0.2-1.5c-0.5-0.4-1.1-0.3-1.5,0.2l0,0c-1.7,2.3-2.6,4.9-2.6,7.8c0,2.8,0.9,5.5,2.6,7.7
					c0.4,0.5,1,0.6,1.5,0.2c0.5-0.4,0.6-1,0.2-1.5c-1.4-1.9-2.1-4.1-2.1-6.5C16.9,65.2,17.7,62.9,19.1,61.1L19.1,61.1L19.1,61.1
					L19.1,61.1L19.1,61.1z"/>
			</g>
			<g>
				<path d="M19.3,67.5c0,1.9,0.7,3.8,1.8,5.2c0.4,0.5,1,0.5,1.5,0.2c0.5-0.4,0.5-1,0.2-1.5c-0.9-1.1-1.4-2.5-1.4-3.9
					c0-1.4,0.5-2.7,1.3-3.8l0,0c0.4-0.5,0.3-1.1-0.2-1.5c-0.5-0.4-1.1-0.3-1.5,0.2C19.9,63.8,19.3,65.6,19.3,67.5
					C19.3,67.5,19.3,65.6,19.3,67.5C19.3,67.5,19.3,65.6,19.3,67.5L19.3,67.5z"/>
			</g>
		</g>
	</g>
	<g>
		<g>
			<path d="M29.6,69.9c0,0.5,0.2,0.9,0.5,1.1c0.3,0.2,0.7,0.4,1.2,0.4c0.8,0,1.6-0.2,1.6-1.1c0-2-7.6-0.4-7.6-5.2
				c0-3.2,3.3-4.1,5.8-4.1c2.7,0,5.8,0.6,6.1,3.9h-4.4c0-0.4-0.2-0.7-0.5-0.9c-0.3-0.2-0.6-0.3-1-0.3c-0.8,0-1.4,0.3-1.4,0.9
				c0,1.7,7.8,0.6,7.8,5.2c0,2.6-2.1,4.3-6.6,4.3c-2.8,0-5.9-0.9-6.2-4.2H29.6z"/>
		</g>
		<g>
			<path d="M38.6,61h4v1.9h-4V61z M38.6,73.8v-10h4v10H38.6z"/>
		</g>
		<g>
			<path d="M43.6,63.7h3.6v2h0c0.6-1.6,1.5-2.3,3.1-2.3c0.2,0,0.3,0,0.5,0.1v4c-0.3,0-0.6-0.1-0.8-0.1c-1.6,0-2.4,0.8-2.4,2.9v3.5
				h-4V63.7z"/>
		</g>
		<g>
			<path d="M51.7,61h4v1.9h-4V61z M51.7,73.8v-10h4v10H51.7z"/>
		</g>
		<g>
			<path d="M67.6,73.8h-3.7v-1.5c-1,1.4-2,1.8-3.6,1.8c-2.2,0-3.6-1.3-3.6-4.2v-6.1h4v5.4c0,1.4,0.5,1.8,1.4,1.8
				c1.1,0,1.5-0.9,1.5-2.4v-4.8h4V73.8z"/>
		</g>
		<g>
			<path d="M71.8,70.6c0,0.4,0.2,0.7,0.4,0.9c0.2,0.2,0.6,0.3,1,0.3c0.6,0,1.3-0.2,1.3-0.9c0-1.6-6.1-0.3-6.1-4.2
				c0-2.6,2.7-3.3,4.7-3.3c2.2,0,4.7,0.5,5,3.2h-3.6c0-0.3-0.2-0.6-0.4-0.7c-0.2-0.2-0.5-0.2-0.8-0.2c-0.7,0-1.1,0.2-1.1,0.7
				c0,1.4,6.3,0.5,6.3,4.2c0,2.1-1.7,3.5-5.4,3.5c-2.3,0-4.8-0.7-5-3.4H71.8z"/>
		</g>
		<g>
			<path d="M82.3,67.2l-4.1-5.9h5.4l1.6,3.1l1.6-3.1h5.4L88,67.2l4.3,6.5h-5.5L85,70.2l-1.8,3.5h-5.4L82.3,67.2z"/>
		</g>
		<g>
			<path d="M92.6,61.4h4.5v1.8c0.6-0.9,1.7-2.2,3.5-2.2c2,0,3.3,0.9,3.9,2.3c1.1-1.5,2-2.3,3.8-2.3c3.1,0,4.6,2,4.6,5.4v7.3h-4.9
				v-6.3c0-1.8-0.1-2.5-1.4-2.5c-1.4,0-1.4,1.2-1.4,2.7v6.1h-4.9v-6.3c0-1.8-0.1-2.5-1.4-2.5c-1.3,0-1.4,1.2-1.4,2.7v6.1h-4.9V61.4z
				"/>
		</g>
	</g>
</g>
</svg>
