<?xml version="1.0" encoding="utf-8"?>
<!-- Generator: Adobe Illustrator 18.0.0, SVG Export Plug-In . SVG Version: 6.00 Build 0)  -->
<!DOCTYPE svg PUBLIC "-//W3C//DTD SVG 1.1//EN" "http://www.w3.org/Graphics/SVG/1.1/DTD/svg11.dtd">
<svg version="1.1" id="Layer_1" xmlns="http://www.w3.org/2000/svg" xmlns:xlink="http://www.w3.org/1999/xlink" x="0px" y="0px"
	 viewBox="0 0 140 140" enable-background="new 0 0 140 140" xml:space="preserve">
<g>
	<g>
		<path d="M21.8,69.3c0-5-8.7-4.5-8.7-7.5c0-1.4,1.2-2.1,2.7-2.1c2.7,0,4,0.4,4.8,3c0.1,0.2,0.1,0.3,0.3,0.3c0.2,0,0.2-0.3,0.2-0.4
			L21,59.2c0-0.2-0.1-0.3-0.3-0.3c0,0-2.9-0.4-4.7-0.4c-3.5,0-4.8,1.7-4.8,4.1c0,5,8.6,3.9,8.6,7.6c0,1.5-1.7,2.2-2.9,2.2
			c-2.8,0-4.4-0.7-5.4-3.5c0-0.2-0.2-0.4-0.4-0.4c-0.2,0-0.3,0.2-0.2,0.4c0.1,0.5,0.1,1.2,0.2,1.8c0.1,0.6,0.1,1.3,0.1,1.8
			c0,0.2,0.2,0.4,0.4,0.4c0.9,0.2,3,0.7,4.9,0.7C19.3,73.7,21.8,72.8,21.8,69.3 M32.8,72.5L32.6,72c-0.1-0.1-0.2-0.1-0.3,0
			c-0.4,0.2-1.3,0.5-2,0.5c-1.8,0-2.1-1.2-2.1-2.8v-9.2l4,0.1c0.2,0,0.3-0.1,0.3-0.3v-1.2c0-0.2-0.1-0.3-0.3-0.3h-3.9v-4.6
			c0-0.3-0.2-0.4-0.3-0.4c-0.2,0-0.3,0.1-0.3,0.3L25.9,58c-0.2,0.5-0.6,0.8-0.9,0.8h-2c-0.2,0-0.3,0.1-0.3,0.3v1
			c0,0.2,0.2,0.3,0.3,0.3h2.7v9.9c0,2.3,1.4,3.1,4.2,3.1c1,0,2.2-0.3,2.8-0.8C32.8,72.7,32.9,72.6,32.8,72.5 M47.9,73
			c0-0.2-0.2-0.3-0.6-0.4l-1-0.2c-0.6-0.1-1.1-0.7-1.1-1.6v-7.3c0-4-2.1-5.1-5.6-5.1c-1.5,0-2.9,0.3-4.3,0.4c-0.2,0-0.3,0.1-0.3,0.3
			l0,4.1c0,0.1,0.1,0.2,0.2,0.2c0.1,0,0.2-0.1,0.2-0.2c0.6-2.5,1.5-3.6,4.1-3.6c1.2,0,3.1,0.6,3.1,2.2v1.3c0,1-0.8,1.4-1.8,1.8
			c-1.6,0.5-3.5,0.7-4.8,1.3c-1.7,0.8-2.4,2.2-2.4,3.5c0,2.5,1.9,3.7,4.2,3.7c1.7,0,3.1-0.4,4.3-1.3c0.1-0.1,0.2-0.2,0.4-0.2
			c0.1,0,0.2,0.1,0.3,0.2l0.3,0.5c0.1,0.2,0.3,0.4,0.6,0.4h3.4C47.7,73.3,47.9,73.2,47.9,73 M42.7,69.7c0,1.5-1.8,2.6-3.9,2.6
			c-1.9,0-2.7-1.2-2.7-3c0-1,0.6-1.7,1.7-2l4.5-1.3c0.2-0.1,0.4,0,0.4,0.3V69.7z M59.4,59.2c0-0.3-0.3-0.4-0.6-0.5
			c-0.3-0.1-0.8-0.2-1.2-0.2c-1.9,0-3.4,0.8-4.5,2.4C53.1,61,53.1,61,53,61c-0.1,0-0.2-0.1-0.2-0.2l-0.5-1.6
			c-0.1-0.2-0.2-0.4-0.6-0.4h-3.5c-0.3,0-0.6,0.1-0.6,0.3c0,0.2,0.2,0.3,0.6,0.4l1.1,0.2c0.6,0.1,1.1,0.7,1.1,1.5v9.7
			c0,0.9-0.5,1.4-1.1,1.6l-0.7,0.2c-0.3,0.1-0.6,0.2-0.6,0.4c0,0.2,0.2,0.2,0.6,0.2h6.2c0.3,0,0.6-0.1,0.6-0.3
			c0-0.2-0.2-0.3-0.6-0.4l-0.7-0.2c-0.6-0.2-1.1-0.7-1.1-1.6v-7.3c0-0.5,0.2-1.1,0.4-1.5c0.6-0.9,1.6-1.7,2.8-1.7
			c1.1,0,1.7,0.2,2,1.1c0.1,0.3,0.2,1,0.5,1c0.2,0,0.3-0.2,0.3-0.6L59.4,59.2z M82.3,59.1c0-0.2-0.3-0.2-0.6-0.2h-4
			c-0.3,0-0.5,0.1-0.5,0.2c0,0.1,0.1,0.2,0.3,0.3l0.9,0.4c0.4,0.2,0.5,0.7,0.3,1.2l-2.4,9.2c0,0.2-0.3,0.2-0.4,0l-3.6-10.7
			c0-0.1-0.3-0.2-0.7-0.2c-0.3,0-0.6,0.1-0.7,0.2l-3.8,10.5c-0.1,0.2-0.4,0.2-0.4,0l-2.2-8.9c-0.1-0.4,0-1,0.4-1.2l0.7-0.4
			c0.1-0.1,0.2-0.2,0.2-0.3c0-0.1-0.2-0.2-0.5-0.2h-4.9c-0.3,0-0.6,0.1-0.6,0.3c0,0.2,0.2,0.3,0.5,0.4l0.7,0.2
			c0.4,0.1,0.6,0.3,0.8,0.7l3.8,12.9c0.1,0.2,0.5,0.3,1,0.3c0.4,0,0.9-0.1,1-0.3l3.5-9.4c0.1-0.2,0.4-0.2,0.5,0l3.2,9.4
			c0.1,0.2,0.5,0.3,1,0.3c0.5,0,0.9-0.1,1-0.3l4.3-12.9c0.2-0.5,0.6-0.8,0.9-0.9C82.1,59.4,82.3,59.3,82.3,59.1 M94.6,66
			c0-4-2.4-7.6-6.7-7.6c-4.2,0-6.7,3.6-6.7,7.6c0,4,2.4,7.6,6.7,7.6C92.3,73.7,94.6,70,94.6,66 M92,66.5c0,2.5-0.7,5.9-3.9,5.9
			c-3.4,0-4.1-4.2-4.1-6.8c0-2.6,0.7-5.7,3.9-5.7C91.3,59.9,92,63.9,92,66.5 M109.6,66c0-4-2.4-7.6-6.7-7.6c-4.2,0-6.7,3.6-6.7,7.6
			c0,4,2.4,7.6,6.7,7.6C107.2,73.7,109.6,70,109.6,66 M106.9,66.5c0,2.5-0.7,5.9-3.9,5.9c-3.4,0-4.1-4.2-4.1-6.8
			c0-2.6,0.7-5.7,3.9-5.7C106.3,59.9,106.9,63.9,106.9,66.5 M126.5,73c0-0.2-0.2-0.3-0.6-0.4l-1.1-0.2c-0.6-0.1-1.1-0.7-1.1-1.6
			V56.3c0-1.4,0.1-2.3,0.1-2.3c0-0.3-0.2-0.4-0.5-0.4h-4.7c-0.3,0-0.6,0.1-0.6,0.3c0,0.2,0.3,0.3,0.6,0.4l1.4,0.2
			c0.7,0.1,1.1,0.7,1.1,1.5v2.8c0,0.2-0.1,0.3-0.3,0.2c-0.9-0.3-2-0.5-3.3-0.5c-3.3,0-6.3,2.9-6.3,7.5c0,5.6,2.8,7.7,5.9,7.7
			c1.2,0,2.6-0.5,3.7-1.7c0.1-0.1,0.2-0.2,0.3-0.2c0.1,0,0.2,0.1,0.2,0.2l0.4,0.9c0.1,0.2,0.3,0.4,0.6,0.4h3.5
			C126.2,73.3,126.5,73.2,126.5,73 M121.3,69.2c0,0.3-0.1,0.5-0.2,0.7c-0.8,1.2-2.2,2-3.2,2c-2,0-3.9-1.4-3.9-5.9
			c0-3.9,1.5-6.2,3.8-6.2c2.7,0,3.5,1.2,3.5,3.6V69.2z"/>
	</g>
	<g>
		<polygon points="57.1,73.6 59.1,73.9 57.9,75.5 58.1,75.7 59.7,74.5 60,76.5 60.3,76.5 60.5,74.5 62.2,75.7 62.3,75.5 61.1,73.9 
			63.1,73.6 63.1,73.4 61.1,73.1 62.3,71.5 62.2,71.3 60.5,72.5 60.3,70.5 60,70.5 59.7,72.5 58.1,71.3 57.9,71.5 59.1,73.1 
			57.1,73.4 		"/>
	</g>
	<g>
		<path d="M104,84.1c0-0.1-0.1-0.1-0.1-0.1c-0.1,0-0.2,0-0.3,0c-0.2,0-0.4-0.1-0.5-0.3l-1.2-1.9c-0.2-0.3-0.3-0.4-0.4-0.5
			c0,0,0-0.1,0-0.1c0.8-0.2,1.4-0.8,1.4-1.7c0-0.8-0.7-1.4-1.7-1.4H98c-0.1,0-0.2,0-0.2,0.1c0,0,0.1,0.1,0.2,0.1l0.4,0.1
			c0.2,0,0.3,0.2,0.3,0.4l0,2.3l0,2.4c0,0.3-0.1,0.4-0.3,0.5c-0.1,0-0.2,0.1-0.2,0.1c0,0,0.1,0.1,0.2,0.1h1.7c0.1,0,0.2,0,0.2-0.1
			c0-0.1-0.1-0.1-0.2-0.1L100,84c-0.2,0-0.3-0.2-0.3-0.5l0-2c0-0.1,0.1-0.2,0.2-0.2h0.9c0.2,0,0.3,0.1,0.3,0.3l1.3,2.4
			c0,0.1,0.1,0.1,0.2,0.1h0.9C103.6,84.3,103.8,84.3,104,84.1C104,84.2,104,84.1,104,84.1 M102,79.7c0,1-0.6,1.3-1.5,1.3h-0.7
			c-0.1,0-0.2-0.1-0.2-0.2l0-2c0-0.1,0.1-0.2,0.3-0.2h1.1C101.6,78.6,102,79.1,102,79.7 M107.4,81.8c0-1.3-0.9-1.9-1.7-1.9
			c-1,0-1.9,0.9-1.9,2.2c0,1.6,0.9,2.2,1.9,2.2c0.7,0,1.3-0.4,1.5-0.9c0,0,0,0,0-0.1l-0.2-0.1c0,0-0.1,0-0.1,0
			c-0.2,0.3-0.7,0.6-1.1,0.6c-0.6,0-1.2-0.4-1.3-1.6c0-0.1,0.1-0.2,0.2-0.2h2.3C107.2,82.1,107.4,82,107.4,81.8 M106.6,81.4
			c0,0.2-0.1,0.3-0.3,0.3c-0.1,0-0.3,0.1-0.5,0.1h-0.3c-0.2,0-0.7,0-0.7,0c-0.1,0-0.2-0.1-0.2-0.2c0.1-0.8,0.5-1.3,1.1-1.3
			C106.1,80.3,106.6,80.7,106.6,81.4 M111.2,83.1c0-1.5-2.5-1.3-2.5-2.2c0-0.4,0.3-0.6,0.8-0.6c0.8,0,1.2,0.1,1.4,0.9
			c0,0.1,0,0.1,0.1,0.1c0.1,0,0.1-0.1,0.1-0.1l0-1c0-0.1,0-0.1-0.1-0.1c0,0-0.8-0.1-1.4-0.1c-1,0-1.4,0.5-1.4,1.2
			c0,1.4,2.5,1.1,2.5,2.2c0,0.4-0.5,0.7-0.9,0.7c-0.8,0-1.3-0.2-1.6-1c0-0.1-0.1-0.1-0.1-0.1c-0.1,0-0.1,0.1-0.1,0.1
			c0,0.1,0,0.4,0.1,0.5c0,0.2,0,0.4,0,0.5c0,0.1,0.1,0.1,0.1,0.1c0.3,0.1,0.9,0.2,1.4,0.2C110.5,84.4,111.2,84.1,111.2,83.1
			 M115.8,82.2c0-1.2-0.7-2.2-1.9-2.2c-1.2,0-1.9,1-1.9,2.2s0.7,2.2,1.9,2.2C115.1,84.4,115.8,83.3,115.8,82.2 M115,82.3
			c0,0.7-0.2,1.7-1.1,1.7c-1,0-1.2-1.2-1.2-2c0-0.8,0.2-1.7,1.1-1.7C114.9,80.4,115,81.5,115,82.3 M119.5,80.2
			c0-0.1-0.1-0.1-0.2-0.2c-0.1,0-0.2-0.1-0.3-0.1c-0.6,0-1,0.2-1.3,0.7c0,0,0,0-0.1,0c0,0-0.1,0-0.1-0.1l-0.2-0.5
			c0-0.1-0.1-0.1-0.2-0.1h-1c-0.1,0-0.2,0-0.2,0.1c0,0.1,0.1,0.1,0.2,0.1l0.3,0.1c0.2,0,0.3,0.2,0.3,0.4v2.8c0,0.3-0.1,0.4-0.3,0.5
			l-0.2,0.1c-0.1,0-0.2,0.1-0.2,0.1c0,0,0.1,0.1,0.2,0.1h1.8c0.1,0,0.2,0,0.2-0.1c0-0.1-0.1-0.1-0.2-0.1L118,84
			c-0.2-0.1-0.3-0.2-0.3-0.5v-2.1c0-0.1,0-0.3,0.1-0.4c0.2-0.3,0.5-0.5,0.8-0.5c0.3,0,0.5,0.1,0.6,0.3c0,0.1,0,0.3,0.1,0.3
			c0.1,0,0.1-0.1,0.1-0.2L119.5,80.2z M122.6,84l-0.1-0.1c0,0-0.1,0-0.1,0c-0.1,0.1-0.4,0.1-0.6,0.1c-0.5,0-0.6-0.4-0.6-0.8v-2.7
			l1.2,0c0.1,0,0.1,0,0.1-0.1v-0.3c0-0.1,0-0.1-0.1-0.1h-1.1v-1.3c0-0.1-0.1-0.1-0.1-0.1c0,0-0.1,0-0.1,0.1l-0.5,1.1
			c-0.1,0.1-0.2,0.2-0.3,0.2h-0.6c-0.1,0-0.1,0-0.1,0.1v0.3c0,0.1,0.1,0.1,0.1,0.1h0.8v2.9c0,0.7,0.4,0.9,1.2,0.9
			C122,84.3,122.4,84.2,122.6,84C122.6,84.1,122.6,84.1,122.6,84 M126.2,83.1c0-1.5-2.5-1.3-2.5-2.2c0-0.4,0.3-0.6,0.8-0.6
			c0.8,0,1.2,0.1,1.4,0.9c0,0.1,0,0.1,0.1,0.1c0.1,0,0.1-0.1,0.1-0.1l0-1c0-0.1,0-0.1-0.1-0.1c0,0-0.8-0.1-1.4-0.1
			c-1,0-1.4,0.5-1.4,1.2c0,1.4,2.5,1.1,2.5,2.2c0,0.4-0.5,0.7-0.9,0.7c-0.8,0-1.3-0.2-1.6-1c0-0.1-0.1-0.1-0.1-0.1
			c-0.1,0-0.1,0.1-0.1,0.1c0,0.1,0,0.4,0.1,0.5c0,0.2,0,0.4,0,0.5c0,0.1,0.1,0.1,0.1,0.1c0.3,0.1,0.9,0.2,1.4,0.2
			C125.5,84.4,126.2,84.1,126.2,83.1"/>
	</g>
	<g>
		<path d="M64.7,84.2c0,0-0.1-0.1-0.2-0.1L64.2,84c-0.2,0-0.3-0.2-0.3-0.5l0-2.3l0-2.3c0-0.2,0.1-0.4,0.3-0.5l0.4-0.1
			c0.1,0,0.2-0.1,0.2-0.1c0,0-0.1-0.1-0.2-0.1h-2.3c-0.1,0-0.2,0-0.2,0.1c0,0.1,0.1,0.1,0.2,0.1l0.4,0.1c0.2,0,0.3,0.2,0.3,0.5
			l0,1.9c0,0,0,0.1-0.1,0.1h-2.7c0,0-0.1,0-0.1-0.1l0-1.9c0-0.2,0.2-0.4,0.3-0.5l0.4-0.1c0.1,0,0.2-0.1,0.2-0.1c0,0-0.1-0.1-0.2-0.1
			h-2.3c-0.1,0-0.2,0-0.2,0.1c0,0.1,0.1,0.1,0.2,0.1l0.4,0.1c0.2,0,0.3,0.2,0.3,0.5l0,2.3l0,2.3c0,0.3-0.1,0.4-0.3,0.5l-0.4,0.1
			c-0.1,0-0.2,0.1-0.2,0.1c0,0,0.1,0.1,0.2,0.1h2.3c0.1,0,0.2,0,0.2-0.1c0,0-0.1-0.1-0.2-0.1L60.5,84c-0.2,0-0.3-0.2-0.3-0.5l0-2.1
			c0,0,0-0.1,0.1-0.1h2.7c0,0,0.1,0,0.1,0.1l0,2.1c0,0.3-0.2,0.4-0.3,0.5l-0.2,0.1c-0.1,0-0.2,0.1-0.2,0.1c0,0,0.1,0.1,0.2,0.1h2.1
			C64.7,84.3,64.7,84.3,64.7,84.2 M68.9,82.2c0-1.2-0.7-2.2-1.9-2.2c-1.2,0-1.9,1-1.9,2.2c0,1.2,0.7,2.2,1.9,2.2
			C68.2,84.4,68.9,83.3,68.9,82.2 M68.1,82.3c0,0.7-0.2,1.7-1.1,1.7c-1,0-1.2-1.2-1.2-2c0-0.8,0.2-1.7,1.1-1.7
			C67.9,80.4,68.1,81.5,68.1,82.3 M72.2,84l0-0.1c0,0-0.1,0-0.1,0C71.9,84,71.7,84,71.5,84c-0.5,0-0.6-0.4-0.6-0.8v-2.7l1.2,0
			c0.1,0,0.1,0,0.1-0.1v-0.3c0-0.1,0-0.1-0.1-0.1h-1.1v-1.3c0-0.1-0.1-0.1-0.1-0.1c0,0-0.1,0-0.1,0.1l-0.5,1.1
			C70.1,80,70,80,69.9,80h-0.6c-0.1,0-0.1,0-0.1,0.1v0.3c0,0.1,0.1,0.1,0.1,0.1h0.8v2.9c0,0.7,0.4,0.9,1.2,0.9
			C71.6,84.3,72,84.2,72.2,84C72.2,84.1,72.2,84.1,72.2,84 M76,81.8c0-1.4-0.9-1.9-1.7-1.9c-1,0-1.9,0.9-1.9,2.2
			c0,1.6,0.9,2.2,1.9,2.2c0.7,0,1.3-0.4,1.5-0.9c0,0,0-0.1,0-0.1l-0.2-0.1c0,0-0.1,0-0.1,0c-0.2,0.3-0.7,0.6-1.1,0.6
			c-0.6,0-1.2-0.4-1.3-1.6c0-0.1,0.1-0.2,0.2-0.2h2.3C75.9,82.1,76,82,76,81.8 M75.3,81.4c0,0.2-0.1,0.3-0.3,0.3c-0.1,0-0.3,0-0.5,0
			h-0.3c-0.2,0-0.7,0-0.7,0c-0.1,0-0.2-0.1-0.2-0.2c0.1-0.8,0.5-1.3,1.1-1.3C74.8,80.3,75.3,80.7,75.3,81.4 M78.6,84.2
			c0,0-0.1-0.1-0.2-0.1L78.2,84c-0.2,0-0.3-0.2-0.3-0.5v-5.1l0-0.7c0-0.1-0.1-0.1-0.1-0.1h-1.3c-0.1,0-0.2,0-0.2,0.1
			c0,0.1,0.1,0.1,0.2,0.1l0.3,0.1c0.2,0,0.3,0.2,0.3,0.4v5.1c0,0.3,0,0.4-0.1,0.5c-0.1,0.1-0.1,0.1-0.1,0.1c0,0,0,0.1,0.1,0.1h1.4
			C78.5,84.3,78.6,84.3,78.6,84.2 M82.3,83.1c0-1.5-2.5-1.3-2.5-2.2c0-0.4,0.3-0.6,0.8-0.6c0.8,0,1.2,0.1,1.4,0.9
			c0,0.1,0,0.1,0.1,0.1c0.1,0,0.1-0.1,0.1-0.1l0-1c0-0.1,0-0.1-0.1-0.1c0,0-0.8-0.1-1.4-0.1c-1,0-1.4,0.5-1.4,1.2
			c0,1.5,2.5,1.1,2.5,2.2c0,0.4-0.5,0.7-0.9,0.7c-0.8,0-1.3-0.2-1.6-1c0-0.1-0.1-0.1-0.1-0.1c-0.1,0-0.1,0.1-0.1,0.1
			c0,0.1,0,0.4,0.1,0.5c0,0.2,0,0.4,0,0.5c0,0.1,0.1,0.1,0.1,0.1c0.3,0.1,0.9,0.2,1.4,0.2C81.6,84.4,82.3,84.1,82.3,83.1 M88.3,84.2
			c0-0.1-0.1-0.1-0.1-0.1l-0.3-0.1c-0.2,0-0.3-0.2-0.3-0.4v-1.9c0-1-0.5-1.3-1.4-1.3c-0.4,0-0.8,0.1-1.1,0.1c-0.1,0-0.1,0-0.1,0.1
			l0,1.1c0,0,0,0.1,0.1,0.1c0,0,0.1,0,0.1,0c0.1-0.7,0.4-0.9,1.1-0.9c0.3,0,0.8,0.2,0.8,0.6v0.3c0,0.3-0.2,0.4-0.5,0.5
			c-0.4,0.1-0.9,0.2-1.2,0.3c-0.4,0.2-0.6,0.6-0.6,0.9c0,0.6,0.5,1,1.1,1c0.4,0,0.8-0.1,1.1-0.3c0,0,0.1,0,0.1,0c0,0,0.1,0,0.1,0.1
			l0.1,0.1c0,0,0.1,0.1,0.2,0.1h0.9C88.2,84.3,88.3,84.3,88.3,84.2 M86.9,83.3c0,0.4-0.5,0.7-1,0.7c-0.5,0-0.7-0.3-0.7-0.8
			c0-0.3,0.2-0.4,0.4-0.5l1.2-0.3c0.1,0,0.1,0,0.1,0.1V83.3z M92.4,84.2c0,0-0.1-0.1-0.1-0.1l-0.2-0.1c-0.2,0-0.3-0.2-0.3-0.4v-1.8
			c0-0.9-0.5-1.4-1.3-1.4c-0.3,0-0.8,0.1-1.1,0.5c0,0-0.1,0-0.1,0l-0.1-0.3c0-0.1-0.1-0.1-0.1-0.1h-1c-0.1,0-0.1,0-0.1,0.1
			c0,0,0.1,0.1,0.1,0.1l0.4,0.1c0.2,0,0.3,0.2,0.3,0.4v2.5c0,0.2-0.1,0.4-0.3,0.4l-0.2,0.1c-0.1,0-0.1,0.1-0.1,0.1
			c0,0,0.1,0.1,0.1,0.1h1.6c0.1,0,0.1,0,0.1-0.1c0,0-0.1-0.1-0.1-0.1l-0.2-0.1c-0.2,0-0.3-0.2-0.3-0.4v-2c0-0.4,0.6-0.7,1-0.7
			c0.5,0,0.8,0.3,0.8,0.8v1.9c0,0.4,0,0.5-0.1,0.5c-0.1,0.1-0.1,0.1-0.1,0.1c0,0,0,0.1,0.1,0.1h1.2C92.4,84.3,92.4,84.3,92.4,84.2
			 M96.4,84.2c0,0-0.1-0.1-0.1-0.1L96,84.1c-0.2,0-0.3-0.2-0.3-0.4v-4.5l0-0.6c0-0.1-0.1-0.1-0.1-0.1h-1.2c-0.1,0-0.1,0-0.1,0.1
			c0,0.1,0.1,0.1,0.1,0.1l0.4,0.1c0.2,0,0.3,0.2,0.3,0.4v1.4c0,0,0,0.1-0.1,0.1c-0.2-0.1-0.5-0.1-0.9-0.1c-0.9,0-1.6,0.8-1.6,1.9
			c0,1.4,0.7,2,1.5,2c0.3,0,0.7-0.1,1-0.4c0,0,0.1,0,0.1,0c0,0,0,0,0.1,0l0.1,0.2c0,0.1,0.1,0.1,0.1,0.1h0.9
			C96.4,84.3,96.4,84.3,96.4,84.2 M95.1,83.2c0,0.1,0,0.1-0.1,0.2c-0.2,0.3-0.6,0.5-0.8,0.5c-0.5,0-1-0.4-1-1.5c0-1,0.4-1.6,1-1.6
			c0.7,0,0.9,0.3,0.9,0.9V83.2z"/>
	</g>
</g>
</svg>
