<?xml version="1.0" encoding="utf-8"?>
<!-- Generator: Adobe Illustrator 18.0.0, SVG Export Plug-In . SVG Version: 6.00 Build 0)  -->
<!DOCTYPE svg PUBLIC "-//W3C//DTD SVG 1.1//EN" "http://www.w3.org/Graphics/SVG/1.1/DTD/svg11.dtd">
<svg version="1.1" id="Layer_1" xmlns="http://www.w3.org/2000/svg" xmlns:xlink="http://www.w3.org/1999/xlink" x="0px" y="0px"
	 viewBox="0 0 140 140" enable-background="new 0 0 140 140" xml:space="preserve">
<g>
	<g>
		<path d="M48.8,60.4v19.2c0,1,0.8,1.7,1.6,1.7H70c0.9,0,1.6-0.7,1.6-1.8l0-19.1H74l0,20.1c0,1.8-1.8,3.8-2.9,3.8H49.5
			c-1.1,0-3.1-1.9-3.1-3.8l0-17.2h-8.6v20.8h-2.4V63.4v-2.9l0,0h12.9L48.8,60.4L48.8,60.4z M110.8,84.2h2.4V60.5h-2.4v0h-0.5
			L96.4,81.3h-1.8L80.2,60.4h-3.1l0,0h0v23.7h2.4V63.9l14.1,20.3h3.8l13.4-20V84.2L110.8,84.2z M117.1,84.1h2.4V60.5h-2.4V84.1
			L117.1,84.1z M20.4,60.5v-3.9h99.1v-2.9H18v6.8h0v2.9H29v20.8h2.4V63.4l0,0v-2.9l0,0v0H29v0H20.4L20.4,60.5z"/>
	</g>
	<g>
		<path d="M48.5,60.4v19.2c0,1.3,1,2.1,1.9,2.1H70c1.1,0,2-0.9,2-2.2l0-19.1l-0.3,0.4H74l-0.4-0.4l0,20.1c0,1.6-1.7,3.5-2.6,3.5
			H49.5c-0.9,0-2.7-1.7-2.7-3.4l0-17.2l0-0.4h-0.4h-8.6h-0.4v0.4v20.8l0.4-0.4h-2.4l0.4,0.4V63.4v-2.9l-0.4,0.3h12.9
			c0,0,0.5,0,0.5,0L48.5,60.4z M48.8,60.1l-0.5,0c0,0-12.9,0-12.9,0H35v0.4v2.9v20.8v0.4h0.4h2.4h0.3v-0.4V63.4l-0.3,0.3h8.6
			l-0.3-0.3l0,17.2c0,2.1,2.2,4.1,3.4,4.1h21.6c1.3,0,3.3-2.2,3.3-4.2l0-20.1v-0.3H74h-2.4h-0.3v0.3v19.1c0,0.8-0.5,1.5-1.3,1.5
			H50.4c-0.6,0-1.2-0.5-1.2-1.4V60.4v-0.4H48.8z"/>
	</g>
	<g>
		<path d="M110.8,84.5h2.4h0.4v-0.4V60.5v-0.4h-0.4h-2.4h-0.4v0.4l0.4-0.4h-0.5h-0.2l-0.1,0.2L96.1,81.1l0.3-0.2h-1.8l0.3,0.2
			L80.5,60.3l-0.1-0.2h-0.2h-3.1h-0.6l0.3,0.5l0.3-0.5h-0.4c0,0,0,0.4,0,0.4v23.7v0.3h0.4h2.4h0.4v-0.3V63.9l-0.6,0.2l14.1,20.3
			l0.1,0.1h0.2h3.8h0.2l0.1-0.2l13.4-20l-0.6-0.2v20.1v0.4H110.8z M111.2,84.2V64.1V63l-0.6,1L97.2,84l0.3-0.2h-3.8l0.3,0.2
			L79.8,63.7l-0.6-0.9v1.1v20.2l0.4-0.4h-2.4l0.3,0.4V60.4l-0.3,0.4h0.6c0,0-0.2-0.5-0.2-0.5l-0.3,0.5h3.1l-0.3-0.2l14.4,20.8
			l0.1,0.2h0.2h1.8h0.2l0.1-0.2l13.9-20.7l-0.3,0.1h0.5h0.3v-0.3l-0.3,0.3h2.4l-0.3-0.3v23.7l0.3-0.3h-2.4L111.2,84.2z"/>
	</g>
	<g>
		<path d="M117.1,84.5h2.4h0.4v-0.3V60.5v-0.4h-0.4h-2.4h-0.3v0.4v23.6v0.3H117.1z M117.4,84.1V60.5l-0.4,0.3h2.4l-0.3-0.3v23.6
			l0.3-0.3h-2.4L117.4,84.1z"/>
	</g>
	<g>
		<path d="M20.7,60.5v-3.9l-0.3,0.4h99.1h0.4v-0.4v-2.9v-0.3h-0.4H18h-0.4v0.3v6.8l0.4-0.4h-0.4v0.4v2.9v0.3H18H29l-0.3-0.3v20.8
			v0.4H29h2.4h0.4v-0.4V63.4v-2.9v-0.4l-0.4,0H29h-0.3v0.4l0.3-0.3h-8.6L20.7,60.5z M20.4,60.8H29h0.4v-0.3L29,60.8h2.4l-0.3-0.4
			v2.9v20.8l0.3-0.4H29l0.4,0.4V63.4V63H29H18l0.4,0.4v-2.9L18,60.8h0.4c0,0,0-0.3,0-0.3v-6.8L18,54l101.5,0l-0.3-0.4v2.9l0.3-0.4
			H20.4H20v0.4v3.9v0.3H20.4z"/>
	</g>
</g>
</svg>
