<?xml version="1.0" encoding="utf-8"?>
<!-- Generator: Adobe Illustrator 15.1.0, SVG Export Plug-In . SVG Version: 6.00 Build 0)  -->
<!DOCTYPE svg PUBLIC "-//W3C//DTD SVG 1.1//EN" "http://www.w3.org/Graphics/SVG/1.1/DTD/svg11.dtd">
<svg version="1.1" id="Layer_1" xmlns="http://www.w3.org/2000/svg" xmlns:xlink="http://www.w3.org/1999/xlink" x="0px" y="0px"
	 width="278.33px" height="47.836px" viewBox="0 0 278.33 47.836" enable-background="new 0 0 278.33 47.836" xml:space="preserve">
<g>
	<path d="M0,0.016h9.912l6.846,19.404h0.084L23.73,0.016h9.87v29.736h-6.552V6.946h-0.084l-7.812,22.806h-4.998L6.636,6.946H6.552
		v22.806H0V0.016z"/>
	<path d="M49.434,0.016h5.418l12.936,29.736h-7.392l-2.562-6.3h-11.55l-2.478,6.3h-7.224L49.434,0.016z M51.954,8.668l-3.612,9.24
		h7.266L51.954,8.668z"/>
	<path d="M74.507,5.812h-8.484V0.016h23.52v5.796H81.06v23.94h-6.552V5.812z"/>
	<path d="M101.135,5.812h-8.484V0.016h23.52v5.796h-8.484v23.94h-6.552V5.812z"/>
	<path d="M132.172,0.016h19.95v6.048h-13.398v6.048h12.39v6.048h-12.39v11.592h-6.552V0.016z"/>
	<path d="M157.077,0.016h20.202v6.048h-13.65v5.544h12.894v6.048h-12.894v6.048h14.406v6.048h-20.958V0.016z"/>
	<path d="M183.285,0.016h11.508c1.512,0,2.946,0.147,4.305,0.441c1.358,0.294,2.548,0.784,3.57,1.47
		c1.021,0.687,1.833,1.611,2.436,2.772c0.602,1.163,0.903,2.611,0.903,4.347c0,2.1-0.546,3.885-1.638,5.355
		c-1.092,1.47-2.688,2.401-4.788,2.793l7.56,12.558h-7.854l-6.216-11.886h-3.234v11.886h-6.552V0.016z M189.837,12.322h3.864
		c0.588,0,1.211-0.021,1.869-0.063c0.658-0.042,1.253-0.168,1.785-0.378c0.531-0.21,0.972-0.539,1.323-0.987
		c0.35-0.448,0.525-1.078,0.525-1.89c0-0.756-0.154-1.358-0.462-1.806c-0.309-0.447-0.7-0.791-1.176-1.029
		c-0.477-0.238-1.022-0.399-1.638-0.483c-0.616-0.084-1.218-0.126-1.806-0.126h-4.284V12.322z"/>
	<path d="M210.5,0.016h11.508c1.512,0,2.946,0.147,4.305,0.441c1.358,0.294,2.548,0.784,3.57,1.47
		c1.021,0.687,1.833,1.611,2.436,2.772c0.602,1.163,0.903,2.611,0.903,4.347c0,2.1-0.546,3.885-1.638,5.355
		c-1.092,1.47-2.688,2.401-4.788,2.793l7.56,12.558h-7.854l-6.216-11.886h-3.234v11.886H210.5V0.016z M217.053,12.322h3.864
		c0.588,0,1.211-0.021,1.869-0.063c0.658-0.042,1.253-0.168,1.785-0.378c0.531-0.21,0.972-0.539,1.323-0.987
		c0.35-0.448,0.525-1.078,0.525-1.89c0-0.756-0.154-1.358-0.462-1.806c-0.309-0.447-0.7-0.791-1.176-1.029
		c-0.477-0.238-1.022-0.399-1.638-0.483c-0.616-0.084-1.218-0.126-1.806-0.126h-4.284V12.322z"/>
	<path d="M237.632,0.016h6.552v29.736h-6.552V0.016z"/>
	<path d="M250.148,0.016h8.904l12.642,20.664h0.084V0.016h6.552v29.736h-8.568L256.784,8.584H256.7v21.168h-6.552V0.016z"/>
</g>
<g>
	<g>
		<path d="M8.806,46.03c-0.476,0.644-1.027,1.106-1.652,1.386c-0.625,0.28-1.302,0.42-2.03,0.42c-0.756,0-1.449-0.128-2.079-0.385
			c-0.63-0.257-1.169-0.616-1.617-1.078c-0.448-0.462-0.798-1.013-1.05-1.652C0.126,44.082,0,43.384,0,42.628
			s0.126-1.451,0.378-2.086c0.252-0.635,0.602-1.183,1.05-1.645c0.448-0.462,0.987-0.824,1.617-1.085
			c0.63-0.261,1.323-0.392,2.079-0.392c0.672,0,1.3,0.119,1.883,0.357c0.583,0.238,1.094,0.637,1.533,1.197l-0.756,0.63
			c-0.308-0.467-0.703-0.807-1.183-1.022C6.12,38.367,5.628,38.26,5.124,38.26c-0.644,0-1.225,0.112-1.743,0.336
			c-0.518,0.224-0.959,0.532-1.323,0.924c-0.364,0.392-0.644,0.854-0.84,1.386c-0.196,0.532-0.294,1.106-0.294,1.722
			c0,0.616,0.098,1.19,0.294,1.722c0.196,0.532,0.476,0.994,0.84,1.386c0.364,0.392,0.805,0.7,1.323,0.924
			c0.518,0.224,1.099,0.336,1.743,0.336c0.252,0,0.513-0.03,0.784-0.091c0.271-0.061,0.534-0.154,0.791-0.28
			c0.256-0.126,0.501-0.285,0.735-0.476c0.233-0.191,0.438-0.422,0.616-0.693L8.806,46.03z"/>
		<path d="M10.5,37.672h2.604c0.131,0,0.308,0.005,0.532,0.014c0.224,0.009,0.466,0.038,0.728,0.084
			c0.261,0.047,0.527,0.122,0.798,0.224c0.271,0.103,0.513,0.252,0.728,0.448c0.214,0.196,0.392,0.443,0.532,0.742
			c0.14,0.299,0.21,0.663,0.21,1.092c0,0.476-0.082,0.868-0.245,1.176c-0.164,0.308-0.369,0.558-0.616,0.749
			s-0.521,0.333-0.819,0.427c-0.299,0.093-0.583,0.159-0.854,0.196l2.884,4.76h-1.05l-2.786-4.704h-1.722v4.704H10.5V37.672z
			 M11.424,42.04h1.96c0.485,0,0.879-0.061,1.183-0.182c0.303-0.121,0.539-0.271,0.707-0.448s0.282-0.369,0.343-0.574
			c0.061-0.205,0.091-0.392,0.091-0.56s-0.03-0.354-0.091-0.56c-0.061-0.205-0.175-0.396-0.343-0.574s-0.404-0.327-0.707-0.448
			c-0.303-0.121-0.698-0.182-1.183-0.182h-1.96V42.04z"/>
		<path d="M18.802,37.672h6.062v0.84h-5.138v3.528h4.816v0.84h-4.816v3.864h5.362v0.84h-6.286V37.672z"/>
		<path d="M30.142,37.672h0.952l4.172,9.912h-1.036l-1.078-2.632h-5.25l-1.12,2.632h-0.966L30.142,37.672z M30.576,38.68
			l-2.31,5.432h4.55L30.576,38.68z"/>
		<path d="M38.892,38.512h-3.388v-0.84h7.7v0.84h-3.388v9.072h-0.924V38.512z"/>
		<path d="M44.729,37.672h0.924v9.912h-0.924V37.672z"/>
		<path d="M46.969,37.672h0.994l3.192,8.694l3.22-8.694h0.98l-3.766,9.912h-0.924L46.969,37.672z"/>
		<path d="M56.671,37.672h6.062v0.84h-5.138v3.528h4.816v0.84h-4.816v3.864h5.362v0.84h-6.286V37.672z"/>
		<path d="M68.487,37.672h3.066c0.859,0,1.587,0.105,2.184,0.315s1.094,0.479,1.491,0.805c0.396,0.327,0.709,0.688,0.938,1.085
			c0.229,0.397,0.396,0.777,0.504,1.141c0.107,0.364,0.175,0.693,0.203,0.987c0.028,0.294,0.042,0.502,0.042,0.623
			c0,0.122-0.014,0.329-0.042,0.623c-0.028,0.294-0.096,0.623-0.203,0.987c-0.107,0.364-0.275,0.745-0.504,1.141
			c-0.229,0.397-0.542,0.758-0.938,1.085c-0.397,0.327-0.894,0.595-1.491,0.805s-1.325,0.315-2.184,0.315h-3.066V37.672z
			 M69.411,46.744h1.904c0.653,0,1.265-0.082,1.834-0.245c0.569-0.163,1.064-0.413,1.484-0.749s0.751-0.763,0.994-1.281
			c0.243-0.518,0.364-1.131,0.364-1.841c0-0.709-0.121-1.323-0.364-1.841s-0.574-0.945-0.994-1.281s-0.915-0.585-1.484-0.749
			c-0.569-0.163-1.181-0.245-1.834-0.245h-1.904V46.744z"/>
		<path d="M78.987,37.672h0.924v9.912h-0.924V37.672z"/>
		<path d="M82.627,37.672h2.604c0.131,0,0.308,0.005,0.532,0.014c0.224,0.009,0.466,0.038,0.728,0.084
			c0.261,0.047,0.527,0.122,0.798,0.224c0.271,0.103,0.513,0.252,0.728,0.448c0.214,0.196,0.392,0.443,0.532,0.742
			c0.14,0.299,0.21,0.663,0.21,1.092c0,0.476-0.082,0.868-0.245,1.176c-0.164,0.308-0.369,0.558-0.616,0.749
			s-0.521,0.333-0.819,0.427c-0.299,0.093-0.583,0.159-0.854,0.196l2.884,4.76h-1.05l-2.786-4.704h-1.722v4.704h-0.924V37.672z
			 M83.551,42.04h1.96c0.485,0,0.879-0.061,1.183-0.182c0.303-0.121,0.539-0.271,0.707-0.448s0.282-0.369,0.343-0.574
			c0.061-0.205,0.091-0.392,0.091-0.56s-0.03-0.354-0.091-0.56c-0.061-0.205-0.175-0.396-0.343-0.574s-0.404-0.327-0.707-0.448
			c-0.303-0.121-0.698-0.182-1.183-0.182h-1.96V42.04z"/>
		<path d="M90.929,37.672h6.062v0.84h-5.138v3.528h4.816v0.84h-4.816v3.864h5.362v0.84h-6.286V37.672z"/>
		<path d="M107.393,46.03c-0.476,0.644-1.027,1.106-1.652,1.386c-0.625,0.28-1.302,0.42-2.03,0.42c-0.756,0-1.449-0.128-2.079-0.385
			c-0.63-0.257-1.169-0.616-1.617-1.078c-0.448-0.462-0.798-1.013-1.05-1.652c-0.252-0.639-0.378-1.337-0.378-2.093
			s0.126-1.451,0.378-2.086c0.252-0.635,0.602-1.183,1.05-1.645c0.448-0.462,0.987-0.824,1.617-1.085
			c0.63-0.261,1.323-0.392,2.079-0.392c0.672,0,1.3,0.119,1.883,0.357c0.583,0.238,1.094,0.637,1.533,1.197l-0.756,0.63
			c-0.308-0.467-0.703-0.807-1.183-1.022c-0.481-0.215-0.973-0.322-1.477-0.322c-0.644,0-1.225,0.112-1.743,0.336
			c-0.518,0.224-0.959,0.532-1.323,0.924c-0.364,0.392-0.644,0.854-0.84,1.386c-0.196,0.532-0.294,1.106-0.294,1.722
			c0,0.616,0.098,1.19,0.294,1.722c0.196,0.532,0.476,0.994,0.84,1.386c0.364,0.392,0.805,0.7,1.323,0.924
			c0.518,0.224,1.099,0.336,1.743,0.336c0.252,0,0.513-0.03,0.784-0.091c0.271-0.061,0.534-0.154,0.791-0.28
			c0.256-0.126,0.501-0.285,0.735-0.476c0.233-0.191,0.438-0.422,0.616-0.693L107.393,46.03z"/>
		<path d="M111.285,38.512h-3.388v-0.84h7.7v0.84h-3.388v9.072h-0.924V38.512z"/>
		<path d="M116.478,42.628c0-0.756,0.126-1.451,0.378-2.086c0.252-0.635,0.602-1.183,1.05-1.645
			c0.448-0.462,0.987-0.824,1.617-1.085c0.63-0.261,1.323-0.392,2.079-0.392c0.756,0,1.449,0.131,2.079,0.392
			s1.169,0.623,1.617,1.085c0.448,0.462,0.798,1.01,1.05,1.645s0.378,1.33,0.378,2.086s-0.126,1.454-0.378,2.093
			s-0.602,1.19-1.05,1.652c-0.448,0.462-0.987,0.821-1.617,1.078c-0.63,0.256-1.323,0.385-2.079,0.385
			c-0.756,0-1.449-0.128-2.079-0.385c-0.63-0.257-1.169-0.616-1.617-1.078c-0.448-0.462-0.798-1.013-1.05-1.652
			C116.604,44.082,116.478,43.384,116.478,42.628z M117.402,42.628c0,0.616,0.098,1.19,0.294,1.722
			c0.196,0.532,0.476,0.994,0.84,1.386c0.364,0.392,0.805,0.7,1.323,0.924c0.518,0.224,1.099,0.336,1.743,0.336
			s1.225-0.112,1.743-0.336c0.518-0.224,0.959-0.532,1.323-0.924c0.364-0.392,0.644-0.854,0.84-1.386
			c0.196-0.532,0.294-1.106,0.294-1.722c0-0.616-0.098-1.19-0.294-1.722c-0.196-0.532-0.476-0.994-0.84-1.386
			c-0.364-0.392-0.805-0.7-1.323-0.924c-0.518-0.224-1.099-0.336-1.743-0.336s-1.225,0.112-1.743,0.336
			c-0.518,0.224-0.959,0.532-1.323,0.924c-0.364,0.392-0.644,0.854-0.84,1.386C117.5,41.438,117.402,42.012,117.402,42.628z"/>
		<path d="M128.798,37.672h2.604c0.131,0,0.308,0.005,0.532,0.014c0.224,0.009,0.466,0.038,0.728,0.084
			c0.261,0.047,0.527,0.122,0.798,0.224c0.271,0.103,0.513,0.252,0.728,0.448c0.214,0.196,0.392,0.443,0.532,0.742
			c0.14,0.299,0.21,0.663,0.21,1.092c0,0.476-0.082,0.868-0.245,1.176c-0.164,0.308-0.369,0.558-0.616,0.749
			s-0.521,0.333-0.819,0.427c-0.299,0.093-0.583,0.159-0.854,0.196l2.884,4.76h-1.05l-2.786-4.704h-1.722v4.704h-0.924V37.672z
			 M129.722,42.04h1.96c0.485,0,0.879-0.061,1.183-0.182c0.303-0.121,0.539-0.271,0.707-0.448s0.282-0.369,0.343-0.574
			c0.061-0.205,0.091-0.392,0.091-0.56s-0.03-0.354-0.091-0.56c-0.061-0.205-0.175-0.396-0.343-0.574s-0.404-0.327-0.707-0.448
			c-0.303-0.121-0.698-0.182-1.183-0.182h-1.96V42.04z"/>
		<path d="M140.474,43.006h3.234v-3.234h0.672v3.234h3.234v0.672h-3.234v3.234h-0.672v-3.234h-3.234V43.006z"/>
		<path d="M156.742,37.672h0.952l4.172,9.912h-1.036l-1.078-2.632h-5.25l-1.12,2.632h-0.966L156.742,37.672z M157.176,38.68
			l-2.31,5.432h4.55L157.176,38.68z"/>
		<path d="M163.293,37.672h2.604c0.131,0,0.308,0.005,0.532,0.014c0.224,0.009,0.466,0.038,0.728,0.084
			c0.261,0.047,0.527,0.122,0.798,0.224c0.271,0.103,0.513,0.252,0.728,0.448c0.214,0.196,0.392,0.443,0.532,0.742
			c0.14,0.299,0.21,0.663,0.21,1.092c0,0.476-0.082,0.868-0.245,1.176c-0.164,0.308-0.369,0.558-0.616,0.749
			s-0.521,0.333-0.819,0.427c-0.299,0.093-0.583,0.159-0.854,0.196l2.884,4.76h-1.05l-2.786-4.704h-1.722v4.704h-0.924V37.672z
			 M164.218,42.04h1.96c0.485,0,0.879-0.061,1.183-0.182c0.303-0.121,0.539-0.271,0.707-0.448s0.282-0.369,0.343-0.574
			c0.061-0.205,0.091-0.392,0.091-0.56s-0.03-0.354-0.091-0.56c-0.061-0.205-0.175-0.396-0.343-0.574s-0.404-0.327-0.707-0.448
			c-0.303-0.121-0.698-0.182-1.183-0.182h-1.96V42.04z"/>
		<path d="M173.793,38.512h-3.388v-0.84h7.7v0.84h-3.388v9.072h-0.924V38.512z"/>
		<path d="M183.145,37.672h3.066c0.859,0,1.587,0.105,2.184,0.315s1.094,0.479,1.491,0.805c0.396,0.327,0.709,0.688,0.938,1.085
			c0.229,0.397,0.396,0.777,0.504,1.141c0.107,0.364,0.175,0.693,0.203,0.987c0.028,0.294,0.042,0.502,0.042,0.623
			c0,0.122-0.014,0.329-0.042,0.623c-0.028,0.294-0.096,0.623-0.203,0.987c-0.107,0.364-0.275,0.745-0.504,1.141
			c-0.229,0.397-0.542,0.758-0.938,1.085c-0.397,0.327-0.894,0.595-1.491,0.805s-1.325,0.315-2.184,0.315h-3.066V37.672z
			 M184.069,46.744h1.904c0.653,0,1.265-0.082,1.834-0.245c0.569-0.163,1.064-0.413,1.484-0.749s0.751-0.763,0.994-1.281
			c0.243-0.518,0.364-1.131,0.364-1.841c0-0.709-0.121-1.323-0.364-1.841s-0.574-0.945-0.994-1.281s-0.915-0.585-1.484-0.749
			c-0.569-0.163-1.181-0.245-1.834-0.245h-1.904V46.744z"/>
		<path d="M193.645,37.672h0.924v9.912h-0.924V37.672z"/>
		<path d="M197.285,37.672h2.604c0.131,0,0.308,0.005,0.532,0.014c0.224,0.009,0.466,0.038,0.728,0.084
			c0.261,0.047,0.527,0.122,0.798,0.224c0.271,0.103,0.513,0.252,0.728,0.448c0.214,0.196,0.392,0.443,0.532,0.742
			c0.14,0.299,0.21,0.663,0.21,1.092c0,0.476-0.082,0.868-0.245,1.176c-0.164,0.308-0.369,0.558-0.616,0.749
			s-0.521,0.333-0.819,0.427c-0.299,0.093-0.583,0.159-0.854,0.196l2.884,4.76h-1.05l-2.786-4.704h-1.722v4.704h-0.924V37.672z
			 M198.209,42.04h1.96c0.485,0,0.879-0.061,1.183-0.182c0.303-0.121,0.539-0.271,0.707-0.448s0.282-0.369,0.343-0.574
			c0.061-0.205,0.091-0.392,0.091-0.56s-0.03-0.354-0.091-0.56c-0.061-0.205-0.175-0.396-0.343-0.574s-0.404-0.327-0.707-0.448
			c-0.303-0.121-0.698-0.182-1.183-0.182h-1.96V42.04z"/>
		<path d="M205.587,37.672h6.062v0.84h-5.138v3.528h4.816v0.84h-4.816v3.864h5.362v0.84h-6.286V37.672z"/>
		<path d="M222.051,46.03c-0.476,0.644-1.027,1.106-1.652,1.386c-0.625,0.28-1.302,0.42-2.03,0.42c-0.756,0-1.449-0.128-2.079-0.385
			c-0.63-0.257-1.169-0.616-1.617-1.078c-0.448-0.462-0.798-1.013-1.05-1.652c-0.252-0.639-0.378-1.337-0.378-2.093
			s0.126-1.451,0.378-2.086c0.252-0.635,0.602-1.183,1.05-1.645c0.448-0.462,0.987-0.824,1.617-1.085
			c0.63-0.261,1.323-0.392,2.079-0.392c0.672,0,1.3,0.119,1.883,0.357c0.583,0.238,1.094,0.637,1.533,1.197l-0.756,0.63
			c-0.308-0.467-0.703-0.807-1.183-1.022c-0.481-0.215-0.973-0.322-1.477-0.322c-0.644,0-1.225,0.112-1.743,0.336
			c-0.518,0.224-0.959,0.532-1.323,0.924c-0.364,0.392-0.644,0.854-0.84,1.386c-0.196,0.532-0.294,1.106-0.294,1.722
			c0,0.616,0.098,1.19,0.294,1.722c0.196,0.532,0.476,0.994,0.84,1.386c0.364,0.392,0.805,0.7,1.323,0.924
			c0.518,0.224,1.099,0.336,1.743,0.336c0.252,0,0.513-0.03,0.784-0.091c0.271-0.061,0.534-0.154,0.791-0.28
			c0.256-0.126,0.501-0.285,0.735-0.476c0.233-0.191,0.438-0.422,0.616-0.693L222.051,46.03z"/>
		<path d="M225.943,38.512h-3.388v-0.84h7.7v0.84h-3.388v9.072h-0.924V38.512z"/>
		<path d="M231.136,42.628c0-0.756,0.126-1.451,0.378-2.086c0.252-0.635,0.602-1.183,1.05-1.645
			c0.448-0.462,0.987-0.824,1.617-1.085c0.63-0.261,1.323-0.392,2.079-0.392c0.756,0,1.449,0.131,2.079,0.392
			s1.169,0.623,1.617,1.085c0.448,0.462,0.798,1.01,1.05,1.645s0.378,1.33,0.378,2.086s-0.126,1.454-0.378,2.093
			s-0.602,1.19-1.05,1.652c-0.448,0.462-0.987,0.821-1.617,1.078c-0.63,0.256-1.323,0.385-2.079,0.385
			c-0.756,0-1.449-0.128-2.079-0.385c-0.63-0.257-1.169-0.616-1.617-1.078c-0.448-0.462-0.798-1.013-1.05-1.652
			C231.262,44.082,231.136,43.384,231.136,42.628z M232.061,42.628c0,0.616,0.098,1.19,0.294,1.722
			c0.196,0.532,0.476,0.994,0.84,1.386c0.364,0.392,0.805,0.7,1.323,0.924c0.518,0.224,1.099,0.336,1.743,0.336
			s1.225-0.112,1.743-0.336c0.518-0.224,0.959-0.532,1.323-0.924c0.364-0.392,0.644-0.854,0.84-1.386
			c0.196-0.532,0.294-1.106,0.294-1.722c0-0.616-0.098-1.19-0.294-1.722c-0.196-0.532-0.476-0.994-0.84-1.386
			c-0.364-0.392-0.805-0.7-1.323-0.924c-0.518-0.224-1.099-0.336-1.743-0.336s-1.225,0.112-1.743,0.336
			c-0.518,0.224-0.959,0.532-1.323,0.924c-0.364,0.392-0.644,0.854-0.84,1.386C232.158,41.438,232.061,42.012,232.061,42.628z"/>
		<path d="M243.456,37.672h2.604c0.131,0,0.308,0.005,0.532,0.014c0.224,0.009,0.466,0.038,0.728,0.084
			c0.261,0.047,0.527,0.122,0.798,0.224c0.271,0.103,0.513,0.252,0.728,0.448c0.214,0.196,0.392,0.443,0.532,0.742
			c0.14,0.299,0.21,0.663,0.21,1.092c0,0.476-0.082,0.868-0.245,1.176c-0.164,0.308-0.369,0.558-0.616,0.749
			s-0.521,0.333-0.819,0.427c-0.299,0.093-0.583,0.159-0.854,0.196l2.884,4.76h-1.05l-2.786-4.704h-1.722v4.704h-0.924V37.672z
			 M244.38,42.04h1.96c0.485,0,0.879-0.061,1.183-0.182c0.303-0.121,0.539-0.271,0.707-0.448s0.282-0.369,0.343-0.574
			c0.061-0.205,0.091-0.392,0.091-0.56s-0.03-0.354-0.091-0.56c-0.061-0.205-0.175-0.396-0.343-0.574s-0.404-0.327-0.707-0.448
			c-0.303-0.121-0.698-0.182-1.183-0.182h-1.96V42.04z"/>
	</g>
</g>
</svg>
